solid OpenSCAD_Model
  facet normal 0 0.707107 -0.707107
    outer loop
      vertex 165 139 0
      vertex 0 155 16
      vertex 165 155 16
    endloop
  endfacet
  facet normal 0 0.707107 -0.707107
    outer loop
      vertex 0 155 16
      vertex 165 139 0
      vertex 0 139 0
    endloop
  endfacet
  facet normal 0 0 -1
    outer loop
      vertex 0 16 0
      vertex 165 139 0
      vertex 165 16 0
    endloop
  endfacet
  facet normal -0 0 -1
    outer loop
      vertex 165 139 0
      vertex 0 16 0
      vertex 0 139 0
    endloop
  endfacet
  facet normal -1 0 0
    outer loop
      vertex 0 155 16
      vertex 0 151 16
      vertex 0 155 179
    endloop
  endfacet
  facet normal -1 0 0
    outer loop
      vertex 0 139 0
      vertex 0 151 16
      vertex 0 155 16
    endloop
  endfacet
  facet normal -1 0 0
    outer loop
      vertex 0 139 0
      vertex 0 139 4
      vertex 0 151 16
    endloop
  endfacet
  facet normal -1 0 0
    outer loop
      vertex 0 16 0
      vertex 0 139 4
      vertex 0 139 0
    endloop
  endfacet
  facet normal -1 0 0
    outer loop
      vertex 0 16 0
      vertex 0 16 4
      vertex 0 139 4
    endloop
  endfacet
  facet normal -1 0 0
    outer loop
      vertex 0 16 0
      vertex 0 4 16
      vertex 0 16 4
    endloop
  endfacet
  facet normal -1 0 0
    outer loop
      vertex 0 4 16
      vertex 0 0 16
      vertex 0 4 179
    endloop
  endfacet
  facet normal -1 0 0
    outer loop
      vertex 0 0 16
      vertex 0 4 16
      vertex 0 16 0
    endloop
  endfacet
  facet normal -1 0 0
    outer loop
      vertex 0 151 179
      vertex 0 155 179
      vertex 0 151 16
    endloop
  endfacet
  facet normal -1 0 0
    outer loop
      vertex 0 139 191
      vertex 0 155 179
      vertex 0 151 179
    endloop
  endfacet
  facet normal -1 0 0
    outer loop
      vertex 0 139 191
      vertex 0 139 195
      vertex 0 155 179
    endloop
  endfacet
  facet normal -1 0 0
    outer loop
      vertex 0 16 191
      vertex 0 139 195
      vertex 0 139 191
    endloop
  endfacet
  facet normal -1 0 0
    outer loop
      vertex 0 16 191
      vertex 0 16 195
      vertex 0 139 195
    endloop
  endfacet
  facet normal -1 0 0
    outer loop
      vertex 0 4 179
      vertex 0 16 195
      vertex 0 16 191
    endloop
  endfacet
  facet normal -1 0 0
    outer loop
      vertex 0 4 179
      vertex 0 0 179
      vertex 0 16 195
    endloop
  endfacet
  facet normal -1 0 0
    outer loop
      vertex 0 0 179
      vertex 0 4 179
      vertex 0 0 16
    endloop
  endfacet
  facet normal 0 -0.707107 0.707107
    outer loop
      vertex 0 0 179
      vertex 165 16 195
      vertex 0 16 195
    endloop
  endfacet
  facet normal 0 -0.707107 0.707107
    outer loop
      vertex 165 16 195
      vertex 0 0 179
      vertex 165 0 179
    endloop
  endfacet
  facet normal 0 0.707107 0.707107
    outer loop
      vertex 165 155 179
      vertex 0 139 195
      vertex 165 139 195
    endloop
  endfacet
  facet normal 0 0.707107 0.707107
    outer loop
      vertex 0 139 195
      vertex 165 155 179
      vertex 0 155 179
    endloop
  endfacet
  facet normal 0 1 -0
    outer loop
      vertex 165 155 16
      vertex 0 155 179
      vertex 165 155 179
    endloop
  endfacet
  facet normal 0 1 0
    outer loop
      vertex 0 155 179
      vertex 165 155 16
      vertex 0 155 16
    endloop
  endfacet
  facet normal -0 0 1
    outer loop
      vertex 0 139 195
      vertex 165 16 195
      vertex 165 139 195
    endloop
  endfacet
  facet normal 0 0 1
    outer loop
      vertex 165 16 195
      vertex 0 139 195
      vertex 0 16 195
    endloop
  endfacet
  facet normal 0 -1 0
    outer loop
      vertex 0 0 16
      vertex 165 0 179
      vertex 0 0 179
    endloop
  endfacet
  facet normal 0 -1 -0
    outer loop
      vertex 165 0 179
      vertex 0 0 16
      vertex 165 0 16
    endloop
  endfacet
  facet normal 0 -0.707107 -0.707107
    outer loop
      vertex 0 16 0
      vertex 165 0 16
      vertex 0 0 16
    endloop
  endfacet
  facet normal 0 -0.707107 -0.707107
    outer loop
      vertex 165 0 16
      vertex 0 16 0
      vertex 165 16 0
    endloop
  endfacet
  facet normal 0 -0.707107 0.707107
    outer loop
      vertex 0 139 4
      vertex 165 151 16
      vertex 0 151 16
    endloop
  endfacet
  facet normal 0 -0.707107 0.707107
    outer loop
      vertex 165 151 16
      vertex 0 139 4
      vertex 165 139 4
    endloop
  endfacet
  facet normal -0 0 1
    outer loop
      vertex 0 139 4
      vertex 165 16 4
      vertex 165 139 4
    endloop
  endfacet
  facet normal 0 0 1
    outer loop
      vertex 165 16 4
      vertex 0 139 4
      vertex 0 16 4
    endloop
  endfacet
  facet normal 0 0.707107 -0.707107
    outer loop
      vertex 165 4 179
      vertex 0 16 191
      vertex 165 16 191
    endloop
  endfacet
  facet normal 0 0.707107 -0.707107
    outer loop
      vertex 0 16 191
      vertex 165 4 179
      vertex 0 4 179
    endloop
  endfacet
  facet normal 0 -0.707107 -0.707107
    outer loop
      vertex 0 151 179
      vertex 165 139 191
      vertex 0 139 191
    endloop
  endfacet
  facet normal 0 -0.707107 -0.707107
    outer loop
      vertex 165 139 191
      vertex 0 151 179
      vertex 165 151 179
    endloop
  endfacet
  facet normal 0 -1 0
    outer loop
      vertex 0 151 179
      vertex 151 151 160.975
      vertex 165 151 179
    endloop
  endfacet
  facet normal 0 -1 0
    outer loop
      vertex 0 151 179
      vertex 151 151 153.025
      vertex 151 151 160.975
    endloop
  endfacet
  facet normal 0 -1 0
    outer loop
      vertex 0 151 16
      vertex 151 151 153.025
      vertex 0 151 179
    endloop
  endfacet
  facet normal 0 -1 0
    outer loop
      vertex 165 151 16
      vertex 151 151 153.025
      vertex 0 151 16
    endloop
  endfacet
  facet normal 0 -1 0
    outer loop
      vertex 151 151 153.025
      vertex 165 151 16
      vertex 165 151 153.025
    endloop
  endfacet
  facet normal 0 -1 -0
    outer loop
      vertex 165 151 179
      vertex 151 151 160.975
      vertex 165 151 160.975
    endloop
  endfacet
  facet normal 0 0 -1
    outer loop
      vertex 0 16 191
      vertex 165 139 191
      vertex 165 16 191
    endloop
  endfacet
  facet normal -0 0 -1
    outer loop
      vertex 165 139 191
      vertex 0 16 191
      vertex 0 139 191
    endloop
  endfacet
  facet normal 0 1 0
    outer loop
      vertex 165 4 34.025
      vertex 165 4 16
      vertex 151 4 34.025
    endloop
  endfacet
  facet normal 0 1 0
    outer loop
      vertex 151 4 41.975
      vertex 165 4 179
      vertex 165 4 41.975
    endloop
  endfacet
  facet normal 0 1 0
    outer loop
      vertex 165 4 179
      vertex 151 4 41.975
      vertex 0 4 179
    endloop
  endfacet
  facet normal 0 1 0
    outer loop
      vertex 0 4 16
      vertex 151 4 41.975
      vertex 151 4 34.025
    endloop
  endfacet
  facet normal 0 1 0
    outer loop
      vertex 0 4 16
      vertex 151 4 34.025
      vertex 165 4 16
    endloop
  endfacet
  facet normal 0 1 0
    outer loop
      vertex 151 4 41.975
      vertex 0 4 16
      vertex 0 4 179
    endloop
  endfacet
  facet normal 0 0.707107 0.707107
    outer loop
      vertex 165 16 4
      vertex 0 4 16
      vertex 165 4 16
    endloop
  endfacet
  facet normal 0 0.707107 0.707107
    outer loop
      vertex 0 4 16
      vertex 165 16 4
      vertex 0 16 4
    endloop
  endfacet
  facet normal 1 0 0
    outer loop
      vertex 165 148 158.6
      vertex 165 148.25 161.975
      vertex 165 148 162
    endloop
  endfacet
  facet normal 1 0 0
    outer loop
      vertex 165 148.25 161.975
      vertex 165 148 158.6
      vertex 165 148.25 158.575
    endloop
  endfacet
  facet normal 1 0 0
    outer loop
      vertex 165 148 162
      vertex 165 147.688 158.569
      vertex 165 148 158.6
    endloop
  endfacet
  facet normal 1 -0 0
    outer loop
      vertex 165 147.025 161.904
      vertex 165 147.688 158.569
      vertex 165 148 162
    endloop
  endfacet
  facet normal 1 0 0
    outer loop
      vertex 165 147.688 158.569
      vertex 165 147.025 161.904
      vertex 165 147.388 158.478
    endloop
  endfacet
  facet normal 1 -0 0
    outer loop
      vertex 165 146.087 161.619
      vertex 165 147.388 158.478
      vertex 165 147.025 161.904
    endloop
  endfacet
  facet normal 1 0 0
    outer loop
      vertex 165 147.388 158.478
      vertex 165 146.087 161.619
      vertex 165 147.111 158.33
    endloop
  endfacet
  facet normal 1 -0 0
    outer loop
      vertex 165 145.222 161.157
      vertex 165 147.111 158.33
      vertex 165 146.087 161.619
    endloop
  endfacet
  facet normal 1 0 0
    outer loop
      vertex 165 147.111 158.33
      vertex 165 145.222 161.157
      vertex 165 146.869 158.131
    endloop
  endfacet
  facet normal 1 -0 0
    outer loop
      vertex 165 144.464 160.536
      vertex 165 146.869 158.131
      vertex 165 145.222 161.157
    endloop
  endfacet
  facet normal 1 -0 0
    outer loop
      vertex 165 143.843 159.778
      vertex 165 146.67 157.889
      vertex 165 144.464 160.536
    endloop
  endfacet
  facet normal 1 0 0
    outer loop
      vertex 165 146.869 158.131
      vertex 165 144.464 160.536
      vertex 165 146.67 157.889
    endloop
  endfacet
  facet normal 1 -0 0
    outer loop
      vertex 165 148 155.4
      vertex 165 148.25 152.025
      vertex 165 148.25 155.425
    endloop
  endfacet
  facet normal 1 0 0
    outer loop
      vertex 165 148 155.4
      vertex 165 148 152
      vertex 165 148.25 152.025
    endloop
  endfacet
  facet normal 1 0 0
    outer loop
      vertex 165 147.688 155.431
      vertex 165 148 152
      vertex 165 148 155.4
    endloop
  endfacet
  facet normal 1 0 0
    outer loop
      vertex 165 147.025 152.096
      vertex 165 147.688 155.431
      vertex 165 147.388 155.522
    endloop
  endfacet
  facet normal 1 0 0
    outer loop
      vertex 165 146.087 152.381
      vertex 165 147.388 155.522
      vertex 165 147.111 155.67
    endloop
  endfacet
  facet normal 1 0 0
    outer loop
      vertex 165 147.688 155.431
      vertex 165 147.025 152.096
      vertex 165 148 152
    endloop
  endfacet
  facet normal 1 0 0
    outer loop
      vertex 165 145.222 152.843
      vertex 165 147.111 155.67
      vertex 165 146.869 155.869
    endloop
  endfacet
  facet normal 1 0 0
    outer loop
      vertex 165 144.464 153.464
      vertex 165 146.869 155.869
      vertex 165 146.67 156.111
    endloop
  endfacet
  facet normal 1 0 0
    outer loop
      vertex 165 143.843 154.222
      vertex 165 146.67 156.111
      vertex 165 146.522 156.388
    endloop
  endfacet
  facet normal 1 0 0
    outer loop
      vertex 165 143.381 155.087
      vertex 165 146.522 156.388
      vertex 165 146.431 156.688
    endloop
  endfacet
  facet normal 1 0 0
    outer loop
      vertex 165 147.388 155.522
      vertex 165 146.087 152.381
      vertex 165 147.025 152.096
    endloop
  endfacet
  facet normal 1 0 0
    outer loop
      vertex 165 143.096 156.025
      vertex 165 146.431 156.688
      vertex 165 146.4 157
    endloop
  endfacet
  facet normal 1 0 0
    outer loop
      vertex 165 146.67 157.889
      vertex 165 143.843 159.778
      vertex 165 146.522 157.612
    endloop
  endfacet
  facet normal 1 -0 0
    outer loop
      vertex 165 143.381 158.913
      vertex 165 146.522 157.612
      vertex 165 143.843 159.778
    endloop
  endfacet
  facet normal 1 0 0
    outer loop
      vertex 165 147.111 155.67
      vertex 165 145.222 152.843
      vertex 165 146.087 152.381
    endloop
  endfacet
  facet normal 1 0 0
    outer loop
      vertex 165 146.522 157.612
      vertex 165 143.381 158.913
      vertex 165 146.431 157.312
    endloop
  endfacet
  facet normal 1 0 0
    outer loop
      vertex 165 146.869 155.869
      vertex 165 144.464 153.464
      vertex 165 145.222 152.843
    endloop
  endfacet
  facet normal 1 -0 0
    outer loop
      vertex 165 143.096 157.975
      vertex 165 146.431 157.312
      vertex 165 143.381 158.913
    endloop
  endfacet
  facet normal 1 0 0
    outer loop
      vertex 165 146.67 156.111
      vertex 165 143.843 154.222
      vertex 165 144.464 153.464
    endloop
  endfacet
  facet normal 1 0 0
    outer loop
      vertex 165 146.431 157.312
      vertex 165 143.096 157.975
      vertex 165 146.4 157
    endloop
  endfacet
  facet normal 1 0 0
    outer loop
      vertex 165 146.522 156.388
      vertex 165 143.381 155.087
      vertex 165 143.843 154.222
    endloop
  endfacet
  facet normal 1 0 0
    outer loop
      vertex 165 143 157
      vertex 165 146.4 157
      vertex 165 143.096 157.975
    endloop
  endfacet
  facet normal 1 0 0
    outer loop
      vertex 165 146.431 156.688
      vertex 165 143.096 156.025
      vertex 165 143.381 155.087
    endloop
  endfacet
  facet normal 1 0 0
    outer loop
      vertex 165 146.4 157
      vertex 165 143 157
      vertex 165 143.096 156.025
    endloop
  endfacet
  facet normal -1 0 0
    outer loop
      vertex 165 4.35 179
      vertex 165 6.75 42.9754
      vertex 165 6.02455 42.9039
    endloop
  endfacet
  facet normal -1 0 0
    outer loop
      vertex 165 149.913 161.619
      vertex 165 150.65 179
      vertex 165 150.65 161.226
    endloop
  endfacet
  facet normal -1 0 0
    outer loop
      vertex 165 148.975 161.904
      vertex 165 150.65 179
      vertex 165 149.913 161.619
    endloop
  endfacet
  facet normal -1 0 0
    outer loop
      vertex 165 148.25 161.975
      vertex 165 150.65 179
      vertex 165 148.975 161.904
    endloop
  endfacet
  facet normal -1 0 0
    outer loop
      vertex 165 148.25 179
      vertex 165 150.65 179
      vertex 165 148.25 161.975
    endloop
  endfacet
  facet normal -1 0 0
    outer loop
      vertex 165 139 188.25
      vertex 165 150.65 179
      vertex 165 148.25 179
    endloop
  endfacet
  facet normal -1 0 0
    outer loop
      vertex 165 139 188.25
      vertex 165 139 190.65
      vertex 165 150.65 179
    endloop
  endfacet
  facet normal -1 0 0
    outer loop
      vertex 165 16 188.25
      vertex 165 139 190.65
      vertex 165 139 188.25
    endloop
  endfacet
  facet normal -1 0 0
    outer loop
      vertex 165 16 188.25
      vertex 165 16 190.65
      vertex 165 139 190.65
    endloop
  endfacet
  facet normal -1 0 0
    outer loop
      vertex 165 6.75 179
      vertex 165 16 190.65
      vertex 165 16 188.25
    endloop
  endfacet
  facet normal -1 0 0
    outer loop
      vertex 165 4.35 179
      vertex 165 6.02455 42.9039
      vertex 165 5.08658 42.6194
    endloop
  endfacet
  facet normal -1 0 0
    outer loop
      vertex 165 4.35 179
      vertex 165 5.08658 42.6194
      vertex 165 4.35 42.2257
    endloop
  endfacet
  facet normal -1 0 0
    outer loop
      vertex 165 6.75 179
      vertex 165 4.35 179
      vertex 165 16 190.65
    endloop
  endfacet
  facet normal -1 0 0
    outer loop
      vertex 165 6.75 42.9754
      vertex 165 4.35 179
      vertex 165 6.75 179
    endloop
  endfacet
  facet normal -1 0 0
    outer loop
      vertex 165 150.65 16
      vertex 165 149.913 152.381
      vertex 165 150.65 152.774
    endloop
  endfacet
  facet normal -1 0 0
    outer loop
      vertex 165 150.65 16
      vertex 165 148.975 152.096
      vertex 165 149.913 152.381
    endloop
  endfacet
  facet normal -1 0 0
    outer loop
      vertex 165 148.25 152.025
      vertex 165 150.65 16
      vertex 165 148.25 16
    endloop
  endfacet
  facet normal -1 0 0
    outer loop
      vertex 165 139 4.35001
      vertex 165 148.25 16
      vertex 165 150.65 16
    endloop
  endfacet
  facet normal -1 0 0
    outer loop
      vertex 165 139 4.35001
      vertex 165 139 6.75
      vertex 165 148.25 16
    endloop
  endfacet
  facet normal -1 0 0
    outer loop
      vertex 165 139 4.35001
      vertex 165 16 6.75
      vertex 165 139 6.75
    endloop
  endfacet
  facet normal -1 0 0
    outer loop
      vertex 165 16 4.35001
      vertex 165 16 6.75
      vertex 165 139 4.35001
    endloop
  endfacet
  facet normal -1 0 0
    outer loop
      vertex 165 16 4.35001
      vertex 165 6.75 16
      vertex 165 16 6.75
    endloop
  endfacet
  facet normal -1 0 0
    outer loop
      vertex 165 6.75 16
      vertex 165 6.02455 33.0961
      vertex 165 6.75 33.0246
    endloop
  endfacet
  facet normal -1 0 0
    outer loop
      vertex 165 4.35 16
      vertex 165 6.02455 33.0961
      vertex 165 6.75 16
    endloop
  endfacet
  facet normal -1 0 0
    outer loop
      vertex 165 4.35 16
      vertex 165 6.75 16
      vertex 165 16 4.35001
    endloop
  endfacet
  facet normal -1 -0 0
    outer loop
      vertex 165 6.02455 33.0961
      vertex 165 4.35 16
      vertex 165 5.08658 33.3806
    endloop
  endfacet
  facet normal -1 -0 0
    outer loop
      vertex 165 5.08658 33.3806
      vertex 165 4.35 16
      vertex 165 4.35 33.7743
    endloop
  endfacet
  facet normal -1 0 0
    outer loop
      vertex 165 150.65 16
      vertex 165 148.25 152.025
      vertex 165 148.975 152.096
    endloop
  endfacet
  facet normal -1 0 0
    outer loop
      vertex 165 149.569 156.688
      vertex 165 149.569 157.312
      vertex 165 149.6 157
    endloop
  endfacet
  facet normal -1 0 0
    outer loop
      vertex 165 149.478 156.388
      vertex 165 149.569 157.312
      vertex 165 149.569 156.688
    endloop
  endfacet
  facet normal -1 0 0
    outer loop
      vertex 165 149.478 156.388
      vertex 165 149.478 157.612
      vertex 165 149.569 157.312
    endloop
  endfacet
  facet normal -1 0 0
    outer loop
      vertex 165 149.33 156.111
      vertex 165 149.478 157.612
      vertex 165 149.478 156.388
    endloop
  endfacet
  facet normal -1 0 0
    outer loop
      vertex 165 149.33 156.111
      vertex 165 149.33 157.889
      vertex 165 149.478 157.612
    endloop
  endfacet
  facet normal -1 0 0
    outer loop
      vertex 165 149.131 155.869
      vertex 165 149.33 157.889
      vertex 165 149.33 156.111
    endloop
  endfacet
  facet normal -1 0 0
    outer loop
      vertex 165 149.131 155.869
      vertex 165 149.131 158.131
      vertex 165 149.33 157.889
    endloop
  endfacet
  facet normal -1 0 0
    outer loop
      vertex 165 148.889 155.67
      vertex 165 149.131 158.131
      vertex 165 149.131 155.869
    endloop
  endfacet
  facet normal -1 0 0
    outer loop
      vertex 165 148.889 155.67
      vertex 165 148.889 158.33
      vertex 165 149.131 158.131
    endloop
  endfacet
  facet normal -1 0 0
    outer loop
      vertex 165 148.25 155.425
      vertex 165 148.889 155.67
      vertex 165 148.612 155.522
    endloop
  endfacet
  facet normal -1 -0 0
    outer loop
      vertex 165 148.889 155.67
      vertex 165 148.25 155.425
      vertex 165 148.889 158.33
    endloop
  endfacet
  facet normal -1 0 0
    outer loop
      vertex 165 148.25 155.425
      vertex 165 148.612 155.522
      vertex 165 148.312 155.431
    endloop
  endfacet
  facet normal -1 0 0
    outer loop
      vertex 165 148.25 158.575
      vertex 165 148.889 158.33
      vertex 165 148.25 155.425
    endloop
  endfacet
  facet normal -1 0 0
    outer loop
      vertex 165 148.889 158.33
      vertex 165 148.25 158.575
      vertex 165 148.612 158.478
    endloop
  endfacet
  facet normal -1 0 0
    outer loop
      vertex 165 148.612 158.478
      vertex 165 148.25 158.575
      vertex 165 148.312 158.569
    endloop
  endfacet
  facet normal 1 0 0
    outer loop
      vertex 165 150.65 161.226
      vertex 165 151 160.975
      vertex 165 150.778 161.157
    endloop
  endfacet
  facet normal 1 0 0
    outer loop
      vertex 165 151 160.975
      vertex 165 150.65 161.226
      vertex 165 151 153.025
    endloop
  endfacet
  facet normal 1 0 0
    outer loop
      vertex 165 150.65 152.774
      vertex 165 151 153.025
      vertex 165 150.65 161.226
    endloop
  endfacet
  facet normal 1 0 0
    outer loop
      vertex 165 151 153.025
      vertex 165 150.65 152.774
      vertex 165 150.778 152.843
    endloop
  endfacet
  facet normal 1 0 0
    outer loop
      vertex 165 151 160.975
      vertex 165 155 179
      vertex 165 151 179
    endloop
  endfacet
  facet normal 1 0 0
    outer loop
      vertex 165 139 195
      vertex 165 151 179
      vertex 165 155 179
    endloop
  endfacet
  facet normal 1 0 0
    outer loop
      vertex 165 139 195
      vertex 165 139 191
      vertex 165 151 179
    endloop
  endfacet
  facet normal 1 -0 0
    outer loop
      vertex 165 16 195
      vertex 165 139 191
      vertex 165 139 195
    endloop
  endfacet
  facet normal 1 0 0
    outer loop
      vertex 165 16 195
      vertex 165 16 191
      vertex 165 139 191
    endloop
  endfacet
  facet normal 1 0 0
    outer loop
      vertex 165 16 195
      vertex 165 4 179
      vertex 165 16 191
    endloop
  endfacet
  facet normal 1 -0 0
    outer loop
      vertex 165 0 179
      vertex 165 4 41.975
      vertex 165 4 179
    endloop
  endfacet
  facet normal 1 0 0
    outer loop
      vertex 165 0 16
      vertex 165 4 41.975
      vertex 165 0 179
    endloop
  endfacet
  facet normal 1 0 0
    outer loop
      vertex 165 4 41.975
      vertex 165 0 16
      vertex 165 4 34.025
    endloop
  endfacet
  facet normal 1 0 0
    outer loop
      vertex 165 0 179
      vertex 165 4 179
      vertex 165 16 195
    endloop
  endfacet
  facet normal 1 0 0
    outer loop
      vertex 165 151 153.025
      vertex 165 155 179
      vertex 165 151 160.975
    endloop
  endfacet
  facet normal 1 0 0
    outer loop
      vertex 165 155 179
      vertex 165 151 153.025
      vertex 165 155 16
    endloop
  endfacet
  facet normal 1 0 0
    outer loop
      vertex 165 151 16
      vertex 165 155 16
      vertex 165 151 153.025
    endloop
  endfacet
  facet normal 1 0 0
    outer loop
      vertex 165 139 4
      vertex 165 155 16
      vertex 165 151 16
    endloop
  endfacet
  facet normal 1 -0 0
    outer loop
      vertex 165 139 4
      vertex 165 139 0
      vertex 165 155 16
    endloop
  endfacet
  facet normal 1 -0 0
    outer loop
      vertex 165 16 4
      vertex 165 139 0
      vertex 165 139 4
    endloop
  endfacet
  facet normal 1 0 0
    outer loop
      vertex 165 16 4
      vertex 165 16 0
      vertex 165 139 0
    endloop
  endfacet
  facet normal 1 0 0
    outer loop
      vertex 165 4 16
      vertex 165 16 0
      vertex 165 16 4
    endloop
  endfacet
  facet normal 1 0 0
    outer loop
      vertex 165 4 16
      vertex 165 0 16
      vertex 165 16 0
    endloop
  endfacet
  facet normal 1 0 0
    outer loop
      vertex 165 4 34.025
      vertex 165 0 16
      vertex 165 4 16
    endloop
  endfacet
  facet normal 1 0 0
    outer loop
      vertex 165 4 41.975
      vertex 165 4.35 42.2257
      vertex 165 4.22215 42.1573
    endloop
  endfacet
  facet normal 1 0 0
    outer loop
      vertex 165 4.35 42.2257
      vertex 165 4 41.975
      vertex 165 4.35 33.7743
    endloop
  endfacet
  facet normal 1 -0 0
    outer loop
      vertex 165 4 34.025
      vertex 165 4.35 33.7743
      vertex 165 4 41.975
    endloop
  endfacet
  facet normal 1 0 0
    outer loop
      vertex 165 4.35 33.7743
      vertex 165 4 34.025
      vertex 165 4.22215 33.8427
    endloop
  endfacet
  facet normal 1 0 0
    outer loop
      vertex 165 8.6 38
      vertex 165 12 38
      vertex 165 11.9039 38.9755
    endloop
  endfacet
  facet normal 1 0 0
    outer loop
      vertex 165 8.56926 38.3121
      vertex 165 11.9039 38.9755
      vertex 165 11.6194 39.9134
    endloop
  endfacet
  facet normal 1 0 0
    outer loop
      vertex 165 12 38
      vertex 165 8.6 38
      vertex 165 11.9039 37.0245
    endloop
  endfacet
  facet normal 1 0 0
    outer loop
      vertex 165 8.47821 38.6123
      vertex 165 11.6194 39.9134
      vertex 165 11.1573 40.7779
    endloop
  endfacet
  facet normal 1 -0 0
    outer loop
      vertex 165 8.56926 37.6879
      vertex 165 11.9039 37.0245
      vertex 165 8.6 38
    endloop
  endfacet
  facet normal 1 0 0
    outer loop
      vertex 165 8.33035 38.8889
      vertex 165 11.1573 40.7779
      vertex 165 10.5355 41.5355
    endloop
  endfacet
  facet normal 1 0 0
    outer loop
      vertex 165 11.9039 37.0245
      vertex 165 8.56926 37.6879
      vertex 165 11.6194 36.0866
    endloop
  endfacet
  facet normal 1 0 0
    outer loop
      vertex 165 8.13137 39.1314
      vertex 165 10.5355 41.5355
      vertex 165 9.77785 42.1573
    endloop
  endfacet
  facet normal 1 -0 0
    outer loop
      vertex 165 8.47821 37.3877
      vertex 165 11.6194 36.0866
      vertex 165 8.56926 37.6879
    endloop
  endfacet
  facet normal 1 0 0
    outer loop
      vertex 165 7.88891 39.3304
      vertex 165 9.77785 42.1573
      vertex 165 8.91342 42.6194
    endloop
  endfacet
  facet normal 1 0 0
    outer loop
      vertex 165 11.6194 36.0866
      vertex 165 8.47821 37.3877
      vertex 165 11.1573 35.2221
    endloop
  endfacet
  facet normal 1 -0 0
    outer loop
      vertex 165 8.33035 37.1111
      vertex 165 11.1573 35.2221
      vertex 165 8.47821 37.3877
    endloop
  endfacet
  facet normal 1 0 0
    outer loop
      vertex 165 11.9039 38.9755
      vertex 165 8.56926 38.3121
      vertex 165 8.6 38
    endloop
  endfacet
  facet normal 1 0 0
    outer loop
      vertex 165 11.6194 39.9134
      vertex 165 8.47821 38.6123
      vertex 165 8.56926 38.3121
    endloop
  endfacet
  facet normal 1 0 0
    outer loop
      vertex 165 11.1573 40.7779
      vertex 165 8.33035 38.8889
      vertex 165 8.47821 38.6123
    endloop
  endfacet
  facet normal 1 0 0
    outer loop
      vertex 165 10.5355 41.5355
      vertex 165 8.13137 39.1314
      vertex 165 8.33035 38.8889
    endloop
  endfacet
  facet normal 1 0 0
    outer loop
      vertex 165 7.61229 39.4782
      vertex 165 8.91342 42.6194
      vertex 165 7.97545 42.9039
    endloop
  endfacet
  facet normal 1 0 0
    outer loop
      vertex 165 9.77785 42.1573
      vertex 165 7.88891 39.3304
      vertex 165 8.13137 39.1314
    endloop
  endfacet
  facet normal 1 0 0
    outer loop
      vertex 165 8.91342 42.6194
      vertex 165 7.61229 39.4782
      vertex 165 7.88891 39.3304
    endloop
  endfacet
  facet normal 1 0 0
    outer loop
      vertex 165 7.97545 42.9039
      vertex 165 7.31214 39.5693
      vertex 165 7.61229 39.4782
    endloop
  endfacet
  facet normal 1 0 0
    outer loop
      vertex 165 7 43
      vertex 165 7.31214 39.5693
      vertex 165 7.97545 42.9039
    endloop
  endfacet
  facet normal 1 0 0
    outer loop
      vertex 165 7 43
      vertex 165 7 39.6
      vertex 165 7.31214 39.5693
    endloop
  endfacet
  facet normal 1 -0 0
    outer loop
      vertex 165 6.75 42.9754
      vertex 165 7 39.6
      vertex 165 7 43
    endloop
  endfacet
  facet normal 1 0 0
    outer loop
      vertex 165 7 39.6
      vertex 165 6.75 42.9754
      vertex 165 6.75 39.5754
    endloop
  endfacet
  facet normal 1 0 0
    outer loop
      vertex 165 11.1573 35.2221
      vertex 165 8.33035 37.1111
      vertex 165 10.5355 34.4645
    endloop
  endfacet
  facet normal 1 -0 0
    outer loop
      vertex 165 8.13137 36.8686
      vertex 165 10.5355 34.4645
      vertex 165 8.33035 37.1111
    endloop
  endfacet
  facet normal 1 0 0
    outer loop
      vertex 165 10.5355 34.4645
      vertex 165 8.13137 36.8686
      vertex 165 9.77785 33.8427
    endloop
  endfacet
  facet normal 1 -0 0
    outer loop
      vertex 165 7.88891 36.6696
      vertex 165 9.77785 33.8427
      vertex 165 8.13137 36.8686
    endloop
  endfacet
  facet normal 1 0 0
    outer loop
      vertex 165 9.77785 33.8427
      vertex 165 7.88891 36.6696
      vertex 165 8.91342 33.3806
    endloop
  endfacet
  facet normal 1 -0 0
    outer loop
      vertex 165 7.61229 36.5218
      vertex 165 8.91342 33.3806
      vertex 165 7.88891 36.6696
    endloop
  endfacet
  facet normal 1 0 0
    outer loop
      vertex 165 8.91342 33.3806
      vertex 165 7.61229 36.5218
      vertex 165 7.97545 33.0961
    endloop
  endfacet
  facet normal 1 -0 0
    outer loop
      vertex 165 7.31214 36.4307
      vertex 165 7.97545 33.0961
      vertex 165 7.61229 36.5218
    endloop
  endfacet
  facet normal 1 -0 0
    outer loop
      vertex 165 7 36.4
      vertex 165 7.97545 33.0961
      vertex 165 7.31214 36.4307
    endloop
  endfacet
  facet normal 1 0 0
    outer loop
      vertex 165 7 36.4
      vertex 165 7 33
      vertex 165 7.97545 33.0961
    endloop
  endfacet
  facet normal 1 0 0
    outer loop
      vertex 165 6.75 33.0246
      vertex 165 7 36.4
      vertex 165 6.75 36.4246
    endloop
  endfacet
  facet normal 1 0 0
    outer loop
      vertex 165 7 36.4
      vertex 165 6.75 33.0246
      vertex 165 7 33
    endloop
  endfacet
  facet normal -1 0 0
    outer loop
      vertex 165 6.38771 36.5218
      vertex 165 6.75 36.4246
      vertex 165 6.68786 36.4307
    endloop
  endfacet
  facet normal -1 0 0
    outer loop
      vertex 165 6.11109 36.6696
      vertex 165 6.75 36.4246
      vertex 165 6.38771 36.5218
    endloop
  endfacet
  facet normal -1 0 0
    outer loop
      vertex 165 6.75 36.4246
      vertex 165 6.11109 36.6696
      vertex 165 6.75 39.5754
    endloop
  endfacet
  facet normal -1 0 0
    outer loop
      vertex 165 6.75 39.5754
      vertex 165 6.38771 39.4782
      vertex 165 6.68786 39.5693
    endloop
  endfacet
  facet normal -1 0 0
    outer loop
      vertex 165 6.11109 39.3304
      vertex 165 6.75 39.5754
      vertex 165 6.11109 36.6696
    endloop
  endfacet
  facet normal -1 0 0
    outer loop
      vertex 165 6.75 39.5754
      vertex 165 6.11109 39.3304
      vertex 165 6.38771 39.4782
    endloop
  endfacet
  facet normal -1 0 0
    outer loop
      vertex 165 5.86863 36.8686
      vertex 165 6.11109 39.3304
      vertex 165 6.11109 36.6696
    endloop
  endfacet
  facet normal -1 0 0
    outer loop
      vertex 165 5.86863 36.8686
      vertex 165 5.86863 39.1314
      vertex 165 6.11109 39.3304
    endloop
  endfacet
  facet normal -1 0 0
    outer loop
      vertex 165 5.66965 37.1111
      vertex 165 5.86863 39.1314
      vertex 165 5.86863 36.8686
    endloop
  endfacet
  facet normal -1 0 0
    outer loop
      vertex 165 5.66965 37.1111
      vertex 165 5.66965 38.8889
      vertex 165 5.86863 39.1314
    endloop
  endfacet
  facet normal -1 0 0
    outer loop
      vertex 165 5.52179 37.3877
      vertex 165 5.66965 38.8889
      vertex 165 5.66965 37.1111
    endloop
  endfacet
  facet normal -1 0 0
    outer loop
      vertex 165 5.52179 37.3877
      vertex 165 5.52179 38.6123
      vertex 165 5.66965 38.8889
    endloop
  endfacet
  facet normal -1 0 0
    outer loop
      vertex 165 5.43074 37.6879
      vertex 165 5.52179 38.6123
      vertex 165 5.52179 37.3877
    endloop
  endfacet
  facet normal -1 0 0
    outer loop
      vertex 165 5.43074 37.6879
      vertex 165 5.43074 38.3121
      vertex 165 5.52179 38.6123
    endloop
  endfacet
  facet normal -1 0 -0
    outer loop
      vertex 165 5.43074 38.3121
      vertex 165 5.43074 37.6879
      vertex 165 5.4 38
    endloop
  endfacet
  facet normal 0 0.707106 -0.707107
    outer loop
      vertex 174 139 4.35001
      vertex 165 150.65 16
      vertex 174 150.65 16
    endloop
  endfacet
  facet normal 0 0.707106 -0.707107
    outer loop
      vertex 165 150.65 16
      vertex 174 139 4.35001
      vertex 165 139 4.35001
    endloop
  endfacet
  facet normal 0 0.707107 0.707107
    outer loop
      vertex 174 150.65 179
      vertex 165 139 190.65
      vertex 174 139 190.65
    endloop
  endfacet
  facet normal 0 0.707107 0.707107
    outer loop
      vertex 165 139 190.65
      vertex 174 150.65 179
      vertex 165 150.65 179
    endloop
  endfacet
  facet normal -0 0 1
    outer loop
      vertex 165 139 190.65
      vertex 174 16 190.65
      vertex 174 139 190.65
    endloop
  endfacet
  facet normal 0 0 1
    outer loop
      vertex 174 16 190.65
      vertex 165 139 190.65
      vertex 165 16 190.65
    endloop
  endfacet
  facet normal 0 0 -1
    outer loop
      vertex 165 16 4.35001
      vertex 174 139 4.35001
      vertex 174 16 4.35001
    endloop
  endfacet
  facet normal -0 0 -1
    outer loop
      vertex 174 139 4.35001
      vertex 165 16 4.35001
      vertex 165 139 4.35001
    endloop
  endfacet
  facet normal 0 -0.707107 0.707107
    outer loop
      vertex 165 4.35 179
      vertex 174 16 190.65
      vertex 165 16 190.65
    endloop
  endfacet
  facet normal 0 -0.707107 0.707107
    outer loop
      vertex 174 16 190.65
      vertex 165 4.35 179
      vertex 174 4.35 179
    endloop
  endfacet
  facet normal 0 1 0
    outer loop
      vertex 174 150.65 179
      vertex 165 150.65 161.226
      vertex 165 150.65 179
    endloop
  endfacet
  facet normal 0 1 0
    outer loop
      vertex 174 150.65 179
      vertex 165 150.65 152.774
      vertex 165 150.65 161.226
    endloop
  endfacet
  facet normal 0 1 -0
    outer loop
      vertex 174 150.65 16
      vertex 165 150.65 152.774
      vertex 174 150.65 179
    endloop
  endfacet
  facet normal 0 1 0
    outer loop
      vertex 165 150.65 152.774
      vertex 174 150.65 16
      vertex 165 150.65 16
    endloop
  endfacet
  facet normal 0 -1 0
    outer loop
      vertex 165 4.35 42.2257
      vertex 174 4.35 179
      vertex 165 4.35 179
    endloop
  endfacet
  facet normal 0 -1 0
    outer loop
      vertex 174 4.35 16
      vertex 165 4.35 42.2257
      vertex 165 4.35 33.7743
    endloop
  endfacet
  facet normal 0 -1 0
    outer loop
      vertex 174 4.35 16
      vertex 165 4.35 33.7743
      vertex 165 4.35 16
    endloop
  endfacet
  facet normal 0 -1 0
    outer loop
      vertex 165 4.35 42.2257
      vertex 174 4.35 16
      vertex 174 4.35 179
    endloop
  endfacet
  facet normal 0 -0.707106 -0.707107
    outer loop
      vertex 165 16 4.35001
      vertex 174 4.35 16
      vertex 165 4.35 16
    endloop
  endfacet
  facet normal 0 -0.707106 -0.707107
    outer loop
      vertex 174 4.35 16
      vertex 165 16 4.35001
      vertex 174 16 4.35001
    endloop
  endfacet
  facet normal 1 0 0
    outer loop
      vertex 174 150.65 179
      vertex 174 148.25 179
      vertex 174 150.65 16
    endloop
  endfacet
  facet normal 1 0 0
    outer loop
      vertex 174 139 190.65
      vertex 174 148.25 179
      vertex 174 150.65 179
    endloop
  endfacet
  facet normal 1 0 0
    outer loop
      vertex 174 139 190.65
      vertex 174 139 188.25
      vertex 174 148.25 179
    endloop
  endfacet
  facet normal 1 0 0
    outer loop
      vertex 174 139 190.65
      vertex 174 16 188.25
      vertex 174 139 188.25
    endloop
  endfacet
  facet normal 1 -0 0
    outer loop
      vertex 174 16 190.65
      vertex 174 16 188.25
      vertex 174 139 190.65
    endloop
  endfacet
  facet normal 1 0 0
    outer loop
      vertex 174 16 190.65
      vertex 174 6.75 179
      vertex 174 16 188.25
    endloop
  endfacet
  facet normal 1 0 0
    outer loop
      vertex 174 6.75 179
      vertex 174 4.35 179
      vertex 174 6.75 16
    endloop
  endfacet
  facet normal 1 0 0
    outer loop
      vertex 174 4.35 179
      vertex 174 6.75 179
      vertex 174 16 190.65
    endloop
  endfacet
  facet normal 1 0 0
    outer loop
      vertex 174 148.25 16
      vertex 174 150.65 16
      vertex 174 148.25 179
    endloop
  endfacet
  facet normal 1 0 0
    outer loop
      vertex 174 139 6.75
      vertex 174 150.65 16
      vertex 174 148.25 16
    endloop
  endfacet
  facet normal 1 -0 0
    outer loop
      vertex 174 139 6.75
      vertex 174 139 4.35001
      vertex 174 150.65 16
    endloop
  endfacet
  facet normal 1 -0 0
    outer loop
      vertex 174 16 6.75
      vertex 174 139 4.35001
      vertex 174 139 6.75
    endloop
  endfacet
  facet normal 1 0 0
    outer loop
      vertex 174 16 6.75
      vertex 174 16 4.35001
      vertex 174 139 4.35001
    endloop
  endfacet
  facet normal 1 0 0
    outer loop
      vertex 174 6.75 16
      vertex 174 16 4.35001
      vertex 174 16 6.75
    endloop
  endfacet
  facet normal 1 0 0
    outer loop
      vertex 174 6.75 16
      vertex 174 4.35 16
      vertex 174 16 4.35001
    endloop
  endfacet
  facet normal 1 0 0
    outer loop
      vertex 174 4.35 16
      vertex 174 6.75 16
      vertex 174 4.35 179
    endloop
  endfacet
  facet normal 0 -0.707107 0.707107
    outer loop
      vertex 165 139 6.75
      vertex 174 148.25 16
      vertex 165 148.25 16
    endloop
  endfacet
  facet normal 0 -0.707107 0.707107
    outer loop
      vertex 174 148.25 16
      vertex 165 139 6.75
      vertex 174 139 6.75
    endloop
  endfacet
  facet normal -0 0 1
    outer loop
      vertex 165 139 6.75
      vertex 174 16 6.75
      vertex 174 139 6.75
    endloop
  endfacet
  facet normal 0 0 1
    outer loop
      vertex 174 16 6.75
      vertex 165 139 6.75
      vertex 165 16 6.75
    endloop
  endfacet
  facet normal 0 0.707107 -0.707107
    outer loop
      vertex 174 6.75 179
      vertex 165 16 188.25
      vertex 174 16 188.25
    endloop
  endfacet
  facet normal 0 0.707107 -0.707107
    outer loop
      vertex 165 16 188.25
      vertex 174 6.75 179
      vertex 165 6.75 179
    endloop
  endfacet
  facet normal 0 -0.707107 -0.707107
    outer loop
      vertex 165 148.25 179
      vertex 174 139 188.25
      vertex 165 139 188.25
    endloop
  endfacet
  facet normal 0 -0.707107 -0.707107
    outer loop
      vertex 174 139 188.25
      vertex 165 148.25 179
      vertex 174 148.25 179
    endloop
  endfacet
  facet normal 0 -1 0
    outer loop
      vertex 165 148.25 161.975
      vertex 174 148.25 179
      vertex 165 148.25 179
    endloop
  endfacet
  facet normal 0 -1 0
    outer loop
      vertex 165 148.25 158.575
      vertex 174 148.25 179
      vertex 165 148.25 161.975
    endloop
  endfacet
  facet normal 0 -1 0
    outer loop
      vertex 165 148.25 155.425
      vertex 174 148.25 179
      vertex 165 148.25 158.575
    endloop
  endfacet
  facet normal 0 -1 0
    outer loop
      vertex 165 148.25 152.025
      vertex 174 148.25 179
      vertex 165 148.25 155.425
    endloop
  endfacet
  facet normal 0 -1 0
    outer loop
      vertex 174 148.25 16
      vertex 165 148.25 152.025
      vertex 165 148.25 16
    endloop
  endfacet
  facet normal 0 -1 0
    outer loop
      vertex 165 148.25 152.025
      vertex 174 148.25 16
      vertex 174 148.25 179
    endloop
  endfacet
  facet normal 0 0 -1
    outer loop
      vertex 165 16 188.25
      vertex 174 139 188.25
      vertex 174 16 188.25
    endloop
  endfacet
  facet normal -0 0 -1
    outer loop
      vertex 174 139 188.25
      vertex 165 16 188.25
      vertex 165 139 188.25
    endloop
  endfacet
  facet normal 0 1 0
    outer loop
      vertex 174 6.75 179
      vertex 165 6.75 42.9754
      vertex 165 6.75 179
    endloop
  endfacet
  facet normal 0 1 -0
    outer loop
      vertex 174 6.75 16
      vertex 165 6.75 42.9754
      vertex 174 6.75 179
    endloop
  endfacet
  facet normal 0 1 0
    outer loop
      vertex 165 6.75 42.9754
      vertex 174 6.75 16
      vertex 165 6.75 39.5754
    endloop
  endfacet
  facet normal 0 1 0
    outer loop
      vertex 165 6.75 39.5754
      vertex 174 6.75 16
      vertex 165 6.75 36.4246
    endloop
  endfacet
  facet normal 0 1 0
    outer loop
      vertex 165 6.75 36.4246
      vertex 174 6.75 16
      vertex 165 6.75 33.0246
    endloop
  endfacet
  facet normal 0 1 0
    outer loop
      vertex 165 6.75 33.0246
      vertex 174 6.75 16
      vertex 165 6.75 16
    endloop
  endfacet
  facet normal 0 0.707107 0.707107
    outer loop
      vertex 174 16 6.75
      vertex 165 6.75 16
      vertex 174 6.75 16
    endloop
  endfacet
  facet normal 0 0.707107 0.707107
    outer loop
      vertex 165 6.75 16
      vertex 174 16 6.75
      vertex 165 16 6.75
    endloop
  endfacet
  facet normal 0 0.995183 -0.098039
    outer loop
      vertex 165 11.9039 37.0245
      vertex 151 12 38
      vertex 165 12 38
    endloop
  endfacet
  facet normal 0 0.995183 -0.098039
    outer loop
      vertex 151 12 38
      vertex 165 11.9039 37.0245
      vertex 151 11.9039 37.0245
    endloop
  endfacet
  facet normal 0 0.290257 -0.956949
    outer loop
      vertex 151 7.97545 33.0961
      vertex 165 8.91342 33.3806
      vertex 165 7.97545 33.0961
    endloop
  endfacet
  facet normal 0 0.290257 -0.956949
    outer loop
      vertex 165 8.91342 33.3806
      vertex 151 7.97545 33.0961
      vertex 151 8.91342 33.3806
    endloop
  endfacet
  facet normal 0 0.098044 -0.995182
    outer loop
      vertex 151 7 33
      vertex 165 7.97545 33.0961
      vertex 165 7 33
    endloop
  endfacet
  facet normal 0 0.098044 -0.995182
    outer loop
      vertex 165 7.97545 33.0961
      vertex 151 7 33
      vertex 151 7.97545 33.0961
    endloop
  endfacet
  facet normal 0 0.471438 -0.881899
    outer loop
      vertex 151 8.91342 33.3806
      vertex 165 9.77785 33.8427
      vertex 165 8.91342 33.3806
    endloop
  endfacet
  facet normal 0 0.471438 -0.881899
    outer loop
      vertex 165 9.77785 33.8427
      vertex 151 8.91342 33.3806
      vertex 151 9.77785 33.8427
    endloop
  endfacet
  facet normal 0 0.772984 0.634426
    outer loop
      vertex 165 11.1573 40.7779
      vertex 151 10.5355 41.5355
      vertex 165 10.5355 41.5355
    endloop
  endfacet
  facet normal 0 0.772984 0.634426
    outer loop
      vertex 151 10.5355 41.5355
      vertex 165 11.1573 40.7779
      vertex 151 11.1573 40.7779
    endloop
  endfacet
  facet normal 0 0.634401 -0.773004
    outer loop
      vertex 151 9.77785 33.8427
      vertex 165 10.5355 34.4645
      vertex 165 9.77785 33.8427
    endloop
  endfacet
  facet normal 0 0.634401 -0.773004
    outer loop
      vertex 165 10.5355 34.4645
      vertex 151 9.77785 33.8427
      vertex 151 10.5355 34.4645
    endloop
  endfacet
  facet normal -0 0.634401 0.773004
    outer loop
      vertex 151 10.5355 41.5355
      vertex 165 9.77785 42.1573
      vertex 165 10.5355 41.5355
    endloop
  endfacet
  facet normal 0 0.634401 0.773004
    outer loop
      vertex 165 9.77785 42.1573
      vertex 151 10.5355 41.5355
      vertex 151 9.77785 42.1573
    endloop
  endfacet
  facet normal 0 -0.471387 0.881926
    outer loop
      vertex 151 5.08658 42.6194
      vertex 165 4.35 42.2257
      vertex 165 5.08658 42.6194
    endloop
  endfacet
  facet normal -3.46339e-06 -0.471438 0.881899
    outer loop
      vertex 151 4.22215 42.1573
      vertex 165 4.35 42.2257
      vertex 151 5.08658 42.6194
    endloop
  endfacet
  facet normal 0 -0.471733 0.881741
    outer loop
      vertex 165 4.35 42.2257
      vertex 151 4.22215 42.1573
      vertex 165 4.22215 42.1573
    endloop
  endfacet
  facet normal 0 -0.471733 -0.881741
    outer loop
      vertex 151 4.22215 33.8427
      vertex 165 4.35 33.7743
      vertex 165 4.22215 33.8427
    endloop
  endfacet
  facet normal -4.06467e-06 -0.471387 -0.881926
    outer loop
      vertex 165 4.35 33.7743
      vertex 151 4.22215 33.8427
      vertex 165 5.08658 33.3806
    endloop
  endfacet
  facet normal -0 -0.471438 -0.881899
    outer loop
      vertex 165 5.08658 33.3806
      vertex 151 4.22215 33.8427
      vertex 151 5.08658 33.3806
    endloop
  endfacet
  facet normal 0 0.956943 0.290276
    outer loop
      vertex 165 11.9039 38.9755
      vertex 151 11.6194 39.9134
      vertex 165 11.6194 39.9134
    endloop
  endfacet
  facet normal 0 0.956943 0.290276
    outer loop
      vertex 151 11.6194 39.9134
      vertex 165 11.9039 38.9755
      vertex 151 11.9039 38.9755
    endloop
  endfacet
  facet normal 0 0.772984 -0.634426
    outer loop
      vertex 165 10.5355 34.4645
      vertex 151 11.1573 35.2221
      vertex 165 11.1573 35.2221
    endloop
  endfacet
  facet normal 0 0.772984 -0.634426
    outer loop
      vertex 151 11.1573 35.2221
      vertex 165 10.5355 34.4645
      vertex 151 10.5355 34.4645
    endloop
  endfacet
  facet normal 0 0.995183 0.098039
    outer loop
      vertex 165 12 38
      vertex 151 11.9039 38.9755
      vertex 165 11.9039 38.9755
    endloop
  endfacet
  facet normal 0 0.995183 0.098039
    outer loop
      vertex 151 11.9039 38.9755
      vertex 165 12 38
      vertex 151 12 38
    endloop
  endfacet
  facet normal -1 0 0
    outer loop
      vertex 151 8.6 38
      vertex 151 12 38
      vertex 151 11.9039 37.0245
    endloop
  endfacet
  facet normal -1 0 0
    outer loop
      vertex 151 8.56926 37.6879
      vertex 151 11.9039 37.0245
      vertex 151 11.6194 36.0866
    endloop
  endfacet
  facet normal -1 0 0
    outer loop
      vertex 151 12 38
      vertex 151 8.6 38
      vertex 151 11.9039 38.9755
    endloop
  endfacet
  facet normal -1 0 0
    outer loop
      vertex 151 8.47821 37.3877
      vertex 151 11.6194 36.0866
      vertex 151 11.1573 35.2221
    endloop
  endfacet
  facet normal -1 0 0
    outer loop
      vertex 151 8.56926 38.3121
      vertex 151 11.9039 38.9755
      vertex 151 8.6 38
    endloop
  endfacet
  facet normal -1 0 0
    outer loop
      vertex 151 8.33035 37.1111
      vertex 151 11.1573 35.2221
      vertex 151 10.5355 34.4645
    endloop
  endfacet
  facet normal -1 -0 0
    outer loop
      vertex 151 11.9039 38.9755
      vertex 151 8.56926 38.3121
      vertex 151 11.6194 39.9134
    endloop
  endfacet
  facet normal -1 0 0
    outer loop
      vertex 151 8.13137 36.8686
      vertex 151 10.5355 34.4645
      vertex 151 9.77785 33.8427
    endloop
  endfacet
  facet normal -1 0 0
    outer loop
      vertex 151 8.47821 38.6123
      vertex 151 11.6194 39.9134
      vertex 151 8.56926 38.3121
    endloop
  endfacet
  facet normal -1 0 0
    outer loop
      vertex 151 7.88891 36.6696
      vertex 151 9.77785 33.8427
      vertex 151 8.91342 33.3806
    endloop
  endfacet
  facet normal -1 -0 0
    outer loop
      vertex 151 11.6194 39.9134
      vertex 151 8.47821 38.6123
      vertex 151 11.1573 40.7779
    endloop
  endfacet
  facet normal -1 0 0
    outer loop
      vertex 151 8.33035 38.8889
      vertex 151 11.1573 40.7779
      vertex 151 8.47821 38.6123
    endloop
  endfacet
  facet normal -1 0 0
    outer loop
      vertex 151 11.9039 37.0245
      vertex 151 8.56926 37.6879
      vertex 151 8.6 38
    endloop
  endfacet
  facet normal -1 0 0
    outer loop
      vertex 151 11.6194 36.0866
      vertex 151 8.47821 37.3877
      vertex 151 8.56926 37.6879
    endloop
  endfacet
  facet normal -1 0 0
    outer loop
      vertex 151 11.1573 35.2221
      vertex 151 8.33035 37.1111
      vertex 151 8.47821 37.3877
    endloop
  endfacet
  facet normal -1 0 0
    outer loop
      vertex 151 10.5355 34.4645
      vertex 151 8.13137 36.8686
      vertex 151 8.33035 37.1111
    endloop
  endfacet
  facet normal -1 0 0
    outer loop
      vertex 151 7.61229 36.5218
      vertex 151 8.91342 33.3806
      vertex 151 7.97545 33.0961
    endloop
  endfacet
  facet normal -1 0 0
    outer loop
      vertex 151 9.77785 33.8427
      vertex 151 7.88891 36.6696
      vertex 151 8.13137 36.8686
    endloop
  endfacet
  facet normal -1 0 0
    outer loop
      vertex 151 8.91342 33.3806
      vertex 151 7.61229 36.5218
      vertex 151 7.88891 36.6696
    endloop
  endfacet
  facet normal -1 0 0
    outer loop
      vertex 151 7.97545 33.0961
      vertex 151 7.31214 36.4307
      vertex 151 7.61229 36.5218
    endloop
  endfacet
  facet normal -1 0 0
    outer loop
      vertex 151 7 33
      vertex 151 7.31214 36.4307
      vertex 151 7.97545 33.0961
    endloop
  endfacet
  facet normal -1 0 0
    outer loop
      vertex 151 7 33
      vertex 151 7 36.4
      vertex 151 7.31214 36.4307
    endloop
  endfacet
  facet normal -1 0 0
    outer loop
      vertex 151 7 33
      vertex 151 6.68786 36.4307
      vertex 151 7 36.4
    endloop
  endfacet
  facet normal -1 0 0
    outer loop
      vertex 151 6.02455 33.0961
      vertex 151 6.68786 36.4307
      vertex 151 7 33
    endloop
  endfacet
  facet normal -1 -0 0
    outer loop
      vertex 151 6.68786 36.4307
      vertex 151 6.02455 33.0961
      vertex 151 6.38771 36.5218
    endloop
  endfacet
  facet normal -1 0 0
    outer loop
      vertex 151 5.08658 33.3806
      vertex 151 6.38771 36.5218
      vertex 151 6.02455 33.0961
    endloop
  endfacet
  facet normal -1 -0 0
    outer loop
      vertex 151 6.38771 36.5218
      vertex 151 5.08658 33.3806
      vertex 151 6.11109 36.6696
    endloop
  endfacet
  facet normal -1 0 0
    outer loop
      vertex 151 4.22215 33.8427
      vertex 151 6.11109 36.6696
      vertex 151 5.08658 33.3806
    endloop
  endfacet
  facet normal -1 0 0
    outer loop
      vertex 151 4 34.025
      vertex 151 6.11109 36.6696
      vertex 151 4.22215 33.8427
    endloop
  endfacet
  facet normal -1 -0 0
    outer loop
      vertex 151 6.11109 36.6696
      vertex 151 4 34.025
      vertex 151 5.86863 36.8686
    endloop
  endfacet
  facet normal -1 -0 0
    outer loop
      vertex 151 5.66965 37.1111
      vertex 151 4 34.025
      vertex 151 5.52179 37.3877
    endloop
  endfacet
  facet normal -1 -0 0
    outer loop
      vertex 151 5.86863 36.8686
      vertex 151 4 34.025
      vertex 151 5.66965 37.1111
    endloop
  endfacet
  facet normal -1 -0 0
    outer loop
      vertex 151 11.1573 40.7779
      vertex 151 8.33035 38.8889
      vertex 151 10.5355 41.5355
    endloop
  endfacet
  facet normal -1 0 0
    outer loop
      vertex 151 8.13137 39.1314
      vertex 151 10.5355 41.5355
      vertex 151 8.33035 38.8889
    endloop
  endfacet
  facet normal -1 -0 0
    outer loop
      vertex 151 10.5355 41.5355
      vertex 151 8.13137 39.1314
      vertex 151 9.77785 42.1573
    endloop
  endfacet
  facet normal -1 0 0
    outer loop
      vertex 151 7.88891 39.3304
      vertex 151 9.77785 42.1573
      vertex 151 8.13137 39.1314
    endloop
  endfacet
  facet normal -1 -0 0
    outer loop
      vertex 151 9.77785 42.1573
      vertex 151 7.88891 39.3304
      vertex 151 8.91342 42.6194
    endloop
  endfacet
  facet normal -1 0 0
    outer loop
      vertex 151 7.61229 39.4782
      vertex 151 8.91342 42.6194
      vertex 151 7.88891 39.3304
    endloop
  endfacet
  facet normal -1 -0 0
    outer loop
      vertex 151 8.91342 42.6194
      vertex 151 7.61229 39.4782
      vertex 151 7.97545 42.9039
    endloop
  endfacet
  facet normal -1 0 0
    outer loop
      vertex 151 7.31214 39.5693
      vertex 151 7.97545 42.9039
      vertex 151 7.61229 39.4782
    endloop
  endfacet
  facet normal -1 0 0
    outer loop
      vertex 151 7 39.6
      vertex 151 7.97545 42.9039
      vertex 151 7.31214 39.5693
    endloop
  endfacet
  facet normal -1 0 0
    outer loop
      vertex 151 7 39.6
      vertex 151 7 43
      vertex 151 7.97545 42.9039
    endloop
  endfacet
  facet normal -1 0 0
    outer loop
      vertex 151 6.68786 39.5693
      vertex 151 7 43
      vertex 151 7 39.6
    endloop
  endfacet
  facet normal -1 0 0
    outer loop
      vertex 151 6.02455 42.9039
      vertex 151 6.68786 39.5693
      vertex 151 6.38771 39.4782
    endloop
  endfacet
  facet normal -1 0 0
    outer loop
      vertex 151 5.08658 42.6194
      vertex 151 6.38771 39.4782
      vertex 151 6.11109 39.3304
    endloop
  endfacet
  facet normal -1 0 0
    outer loop
      vertex 151 6.68786 39.5693
      vertex 151 6.02455 42.9039
      vertex 151 7 43
    endloop
  endfacet
  facet normal -1 0 0
    outer loop
      vertex 151 4 41.975
      vertex 151 6.11109 39.3304
      vertex 151 5.86863 39.1314
    endloop
  endfacet
  facet normal -1 0 0
    outer loop
      vertex 151 4 41.975
      vertex 151 5.86863 39.1314
      vertex 151 5.66965 38.8889
    endloop
  endfacet
  facet normal -1 0 0
    outer loop
      vertex 151 4 41.975
      vertex 151 5.66965 38.8889
      vertex 151 5.52179 38.6123
    endloop
  endfacet
  facet normal -1 0 0
    outer loop
      vertex 151 4 41.975
      vertex 151 5.52179 38.6123
      vertex 151 5.43074 38.3121
    endloop
  endfacet
  facet normal -1 0 0
    outer loop
      vertex 151 6.38771 39.4782
      vertex 151 5.08658 42.6194
      vertex 151 6.02455 42.9039
    endloop
  endfacet
  facet normal -1 0 0
    outer loop
      vertex 151 4 41.975
      vertex 151 5.43074 38.3121
      vertex 151 5.4 38
    endloop
  endfacet
  facet normal -1 -0 0
    outer loop
      vertex 151 5.52179 37.3877
      vertex 151 4 34.025
      vertex 151 5.43074 37.6879
    endloop
  endfacet
  facet normal -1 -0 0
    outer loop
      vertex 151 5.43074 37.6879
      vertex 151 4 34.025
      vertex 151 5.4 38
    endloop
  endfacet
  facet normal -1 0 0
    outer loop
      vertex 151 4 41.975
      vertex 151 5.4 38
      vertex 151 4 34.025
    endloop
  endfacet
  facet normal -1 0 0
    outer loop
      vertex 151 6.11109 39.3304
      vertex 151 4 41.975
      vertex 151 4.22215 42.1573
    endloop
  endfacet
  facet normal -1 0 0
    outer loop
      vertex 151 6.11109 39.3304
      vertex 151 4.22215 42.1573
      vertex 151 5.08658 42.6194
    endloop
  endfacet
  facet normal 0 -0.634365 -0.773034
    outer loop
      vertex 151 4 34.025
      vertex 165 4.22215 33.8427
      vertex 165 4 34.025
    endloop
  endfacet
  facet normal -0 -0.634365 -0.773034
    outer loop
      vertex 165 4.22215 33.8427
      vertex 151 4 34.025
      vertex 151 4.22215 33.8427
    endloop
  endfacet
  facet normal -0 0.098044 0.995182
    outer loop
      vertex 151 7.97545 42.9039
      vertex 165 7 43
      vertex 165 7.97545 42.9039
    endloop
  endfacet
  facet normal 0 0.098044 0.995182
    outer loop
      vertex 165 7 43
      vertex 151 7.97545 42.9039
      vertex 151 7 43
    endloop
  endfacet
  facet normal 0 0.881915 0.471409
    outer loop
      vertex 165 11.6194 39.9134
      vertex 151 11.1573 40.7779
      vertex 165 11.1573 40.7779
    endloop
  endfacet
  facet normal 0 0.881915 0.471409
    outer loop
      vertex 151 11.1573 40.7779
      vertex 165 11.6194 39.9134
      vertex 151 11.6194 39.9134
    endloop
  endfacet
  facet normal 0 0.881915 -0.471409
    outer loop
      vertex 165 11.1573 35.2221
      vertex 151 11.6194 36.0866
      vertex 165 11.6194 36.0866
    endloop
  endfacet
  facet normal 0 0.881915 -0.471409
    outer loop
      vertex 151 11.6194 36.0866
      vertex 165 11.1573 35.2221
      vertex 151 11.1573 35.2221
    endloop
  endfacet
  facet normal 0 0.956943 -0.290276
    outer loop
      vertex 165 11.6194 36.0866
      vertex 151 11.9039 37.0245
      vertex 165 11.9039 37.0245
    endloop
  endfacet
  facet normal 0 0.956943 -0.290276
    outer loop
      vertex 151 11.9039 37.0245
      vertex 165 11.6194 36.0866
      vertex 151 11.6194 36.0866
    endloop
  endfacet
  facet normal -0 0.290257 0.956949
    outer loop
      vertex 151 8.91342 42.6194
      vertex 165 7.97545 42.9039
      vertex 165 8.91342 42.6194
    endloop
  endfacet
  facet normal 0 0.290257 0.956949
    outer loop
      vertex 165 7.97545 42.9039
      vertex 151 8.91342 42.6194
      vertex 151 7.97545 42.9039
    endloop
  endfacet
  facet normal -0 0.471438 0.881899
    outer loop
      vertex 151 9.77785 42.1573
      vertex 165 8.91342 42.6194
      vertex 165 9.77785 42.1573
    endloop
  endfacet
  facet normal 0 0.471438 0.881899
    outer loop
      vertex 165 8.91342 42.6194
      vertex 151 9.77785 42.1573
      vertex 151 8.91342 42.6194
    endloop
  endfacet
  facet normal 0 -0.290257 -0.956949
    outer loop
      vertex 151 5.08658 33.3806
      vertex 165 6.02455 33.0961
      vertex 165 5.08658 33.3806
    endloop
  endfacet
  facet normal -0 -0.290257 -0.956949
    outer loop
      vertex 165 6.02455 33.0961
      vertex 151 5.08658 33.3806
      vertex 151 6.02455 33.0961
    endloop
  endfacet
  facet normal 0 -0.0980843 -0.995178
    outer loop
      vertex 151 6.02455 33.0961
      vertex 165 6.75 33.0246
      vertex 165 6.02455 33.0961
    endloop
  endfacet
  facet normal -2.10823e-06 -0.098044 -0.995182
    outer loop
      vertex 151 7 33
      vertex 165 6.75 33.0246
      vertex 151 6.02455 33.0961
    endloop
  endfacet
  facet normal 0 -0.097927 -0.995194
    outer loop
      vertex 165 6.75 33.0246
      vertex 151 7 33
      vertex 165 7 33
    endloop
  endfacet
  facet normal 0 -0.290257 0.956949
    outer loop
      vertex 151 6.02455 42.9039
      vertex 165 5.08658 42.6194
      vertex 165 6.02455 42.9039
    endloop
  endfacet
  facet normal 0 -0.290257 0.956949
    outer loop
      vertex 165 5.08658 42.6194
      vertex 151 6.02455 42.9039
      vertex 151 5.08658 42.6194
    endloop
  endfacet
  facet normal 0 -0.097927 0.995194
    outer loop
      vertex 151 7 43
      vertex 165 6.75 42.9754
      vertex 165 7 43
    endloop
  endfacet
  facet normal -2.10823e-06 -0.098044 0.995182
    outer loop
      vertex 151 6.02455 42.9039
      vertex 165 6.75 42.9754
      vertex 151 7 43
    endloop
  endfacet
  facet normal 0 -0.0980843 0.995178
    outer loop
      vertex 165 6.75 42.9754
      vertex 151 6.02455 42.9039
      vertex 165 6.02455 42.9039
    endloop
  endfacet
  facet normal 0 -0.634365 0.773034
    outer loop
      vertex 151 4.22215 42.1573
      vertex 165 4 41.975
      vertex 165 4.22215 42.1573
    endloop
  endfacet
  facet normal 0 -0.634365 0.773034
    outer loop
      vertex 165 4 41.975
      vertex 151 4.22215 42.1573
      vertex 151 4 41.975
    endloop
  endfacet
  facet normal 0 -0.290432 0.956896
    outer loop
      vertex 151 7.61229 36.5218
      vertex 165 7.31214 36.4307
      vertex 165 7.61229 36.5218
    endloop
  endfacet
  facet normal 0 -0.290432 0.956896
    outer loop
      vertex 165 7.31214 36.4307
      vertex 151 7.61229 36.5218
      vertex 151 7.31214 36.4307
    endloop
  endfacet
  facet normal 0 -0.097881 0.995198
    outer loop
      vertex 151 7.31214 36.4307
      vertex 165 7 36.4
      vertex 165 7.31214 36.4307
    endloop
  endfacet
  facet normal 0 -0.097881 0.995198
    outer loop
      vertex 165 7 36.4
      vertex 151 7.31214 36.4307
      vertex 151 7 36.4
    endloop
  endfacet
  facet normal 0 -0.471257 0.881996
    outer loop
      vertex 151 7.88891 36.6696
      vertex 165 7.61229 36.5218
      vertex 165 7.88891 36.6696
    endloop
  endfacet
  facet normal 0 -0.471257 0.881996
    outer loop
      vertex 165 7.61229 36.5218
      vertex 151 7.88891 36.6696
      vertex 151 7.61229 36.5218
    endloop
  endfacet
  facet normal 0 -0.773065 -0.634327
    outer loop
      vertex 151 8.33035 38.8889
      vertex 165 8.13137 39.1314
      vertex 151 8.13137 39.1314
    endloop
  endfacet
  facet normal 0 -0.773065 -0.634327
    outer loop
      vertex 165 8.13137 39.1314
      vertex 151 8.33035 38.8889
      vertex 165 8.33035 38.8889
    endloop
  endfacet
  facet normal 0 -0.956953 0.290242
    outer loop
      vertex 151 8.47821 37.3877
      vertex 165 8.56926 37.6879
      vertex 151 8.56926 37.6879
    endloop
  endfacet
  facet normal 0 -0.956953 0.290242
    outer loop
      vertex 165 8.56926 37.6879
      vertex 151 8.47821 37.3877
      vertex 165 8.47821 37.3877
    endloop
  endfacet
  facet normal 0 -0.634428 0.772982
    outer loop
      vertex 151 8.13137 36.8686
      vertex 165 7.88891 36.6696
      vertex 165 8.13137 36.8686
    endloop
  endfacet
  facet normal 0 -0.634428 0.772982
    outer loop
      vertex 165 7.88891 36.6696
      vertex 151 8.13137 36.8686
      vertex 151 7.88891 36.6696
    endloop
  endfacet
  facet normal 0 -0.634428 -0.772982
    outer loop
      vertex 151 7.88891 39.3304
      vertex 165 8.13137 39.1314
      vertex 165 7.88891 39.3304
    endloop
  endfacet
  facet normal -0 -0.634428 -0.772982
    outer loop
      vertex 165 8.13137 39.1314
      vertex 151 7.88891 39.3304
      vertex 151 8.13137 39.1314
    endloop
  endfacet
  facet normal 0 0.471257 -0.881996
    outer loop
      vertex 151 6.11109 39.3304
      vertex 165 6.38771 39.4782
      vertex 165 6.11109 39.3304
    endloop
  endfacet
  facet normal 0 0.471257 -0.881996
    outer loop
      vertex 165 6.38771 39.4782
      vertex 151 6.11109 39.3304
      vertex 151 6.38771 39.4782
    endloop
  endfacet
  facet normal -0 0.471257 0.881996
    outer loop
      vertex 151 6.38771 36.5218
      vertex 165 6.11109 36.6696
      vertex 165 6.38771 36.5218
    endloop
  endfacet
  facet normal 0 0.471257 0.881996
    outer loop
      vertex 165 6.11109 36.6696
      vertex 151 6.38771 36.5218
      vertex 151 6.11109 36.6696
    endloop
  endfacet
  facet normal 0 -0.956953 -0.290242
    outer loop
      vertex 151 8.56926 38.3121
      vertex 165 8.47821 38.6123
      vertex 151 8.47821 38.6123
    endloop
  endfacet
  facet normal 0 -0.956953 -0.290242
    outer loop
      vertex 165 8.47821 38.6123
      vertex 151 8.56926 38.3121
      vertex 165 8.56926 38.3121
    endloop
  endfacet
  facet normal 0 0.956953 0.290242
    outer loop
      vertex 165 5.52179 37.3877
      vertex 151 5.43074 37.6879
      vertex 165 5.43074 37.6879
    endloop
  endfacet
  facet normal 0 0.956953 0.290242
    outer loop
      vertex 151 5.43074 37.6879
      vertex 165 5.52179 37.3877
      vertex 151 5.52179 37.3877
    endloop
  endfacet
  facet normal 0 -0.773065 0.634327
    outer loop
      vertex 151 8.13137 36.8686
      vertex 165 8.33035 37.1111
      vertex 151 8.33035 37.1111
    endloop
  endfacet
  facet normal 0 -0.773065 0.634327
    outer loop
      vertex 165 8.33035 37.1111
      vertex 151 8.13137 36.8686
      vertex 165 8.13137 36.8686
    endloop
  endfacet
  facet normal 0 0.773065 0.634327
    outer loop
      vertex 165 5.86863 36.8686
      vertex 151 5.66965 37.1111
      vertex 165 5.66965 37.1111
    endloop
  endfacet
  facet normal 0 0.773065 0.634327
    outer loop
      vertex 151 5.66965 37.1111
      vertex 165 5.86863 36.8686
      vertex 151 5.86863 36.8686
    endloop
  endfacet
  facet normal 0 0.881902 0.471432
    outer loop
      vertex 165 5.66965 37.1111
      vertex 151 5.52179 37.3877
      vertex 165 5.52179 37.3877
    endloop
  endfacet
  facet normal 0 0.881902 0.471432
    outer loop
      vertex 151 5.52179 37.3877
      vertex 165 5.66965 37.1111
      vertex 151 5.66965 37.1111
    endloop
  endfacet
  facet normal 0 0.773065 -0.634327
    outer loop
      vertex 165 5.66965 38.8889
      vertex 151 5.86863 39.1314
      vertex 165 5.86863 39.1314
    endloop
  endfacet
  facet normal 0 0.773065 -0.634327
    outer loop
      vertex 151 5.86863 39.1314
      vertex 165 5.66965 38.8889
      vertex 151 5.66965 38.8889
    endloop
  endfacet
  facet normal -0 0.634428 0.772982
    outer loop
      vertex 151 6.11109 36.6696
      vertex 165 5.86863 36.8686
      vertex 165 6.11109 36.6696
    endloop
  endfacet
  facet normal 0 0.634428 0.772982
    outer loop
      vertex 165 5.86863 36.8686
      vertex 151 6.11109 36.6696
      vertex 151 5.86863 36.8686
    endloop
  endfacet
  facet normal -0 0.097927 0.995194
    outer loop
      vertex 151 7 36.4
      vertex 165 6.75 36.4246
      vertex 165 7 36.4
    endloop
  endfacet
  facet normal -8.29871e-07 0.097881 0.995198
    outer loop
      vertex 151 6.68786 36.4307
      vertex 165 6.75 36.4246
      vertex 151 7 36.4
    endloop
  endfacet
  facet normal 0 0.0976958 0.995216
    outer loop
      vertex 165 6.75 36.4246
      vertex 151 6.68786 36.4307
      vertex 165 6.68786 36.4307
    endloop
  endfacet
  facet normal -0 0.290432 0.956896
    outer loop
      vertex 151 6.68786 36.4307
      vertex 165 6.38771 36.5218
      vertex 165 6.68786 36.4307
    endloop
  endfacet
  facet normal 0 0.290432 0.956896
    outer loop
      vertex 165 6.38771 36.5218
      vertex 151 6.68786 36.4307
      vertex 151 6.38771 36.5218
    endloop
  endfacet
  facet normal 0 -0.881902 -0.471432
    outer loop
      vertex 151 8.47821 38.6123
      vertex 165 8.33035 38.8889
      vertex 151 8.33035 38.8889
    endloop
  endfacet
  facet normal 0 -0.881902 -0.471432
    outer loop
      vertex 165 8.33035 38.8889
      vertex 151 8.47821 38.6123
      vertex 165 8.47821 38.6123
    endloop
  endfacet
  facet normal 0 -0.881902 0.471432
    outer loop
      vertex 151 8.33035 37.1111
      vertex 165 8.47821 37.3877
      vertex 151 8.47821 37.3877
    endloop
  endfacet
  facet normal 0 -0.881902 0.471432
    outer loop
      vertex 165 8.47821 37.3877
      vertex 151 8.33035 37.1111
      vertex 165 8.33035 37.1111
    endloop
  endfacet
  facet normal 0 -0.290432 -0.956896
    outer loop
      vertex 151 7.31214 39.5693
      vertex 165 7.61229 39.4782
      vertex 165 7.31214 39.5693
    endloop
  endfacet
  facet normal -0 -0.290432 -0.956896
    outer loop
      vertex 165 7.61229 39.4782
      vertex 151 7.31214 39.5693
      vertex 151 7.61229 39.4782
    endloop
  endfacet
  facet normal 0 0.995184 0.0980198
    outer loop
      vertex 165 5.43074 37.6879
      vertex 151 5.4 38
      vertex 165 5.4 38
    endloop
  endfacet
  facet normal 0 0.995184 0.0980198
    outer loop
      vertex 151 5.4 38
      vertex 165 5.43074 37.6879
      vertex 151 5.43074 37.6879
    endloop
  endfacet
  facet normal 0 -0.995184 -0.0980198
    outer loop
      vertex 151 8.6 38
      vertex 165 8.56926 38.3121
      vertex 151 8.56926 38.3121
    endloop
  endfacet
  facet normal 0 -0.995184 -0.0980198
    outer loop
      vertex 165 8.56926 38.3121
      vertex 151 8.6 38
      vertex 165 8.6 38
    endloop
  endfacet
  facet normal 0 -0.471257 -0.881996
    outer loop
      vertex 151 7.61229 39.4782
      vertex 165 7.88891 39.3304
      vertex 165 7.61229 39.4782
    endloop
  endfacet
  facet normal -0 -0.471257 -0.881996
    outer loop
      vertex 165 7.88891 39.3304
      vertex 151 7.61229 39.4782
      vertex 151 7.88891 39.3304
    endloop
  endfacet
  facet normal 0 0.290432 -0.956896
    outer loop
      vertex 151 6.38771 39.4782
      vertex 165 6.68786 39.5693
      vertex 165 6.38771 39.4782
    endloop
  endfacet
  facet normal 0 0.290432 -0.956896
    outer loop
      vertex 165 6.68786 39.5693
      vertex 151 6.38771 39.4782
      vertex 151 6.68786 39.5693
    endloop
  endfacet
  facet normal 0 0.0976958 -0.995216
    outer loop
      vertex 151 6.68786 39.5693
      vertex 165 6.75 39.5754
      vertex 165 6.68786 39.5693
    endloop
  endfacet
  facet normal -1.03614e-06 0.097927 -0.995194
    outer loop
      vertex 165 6.75 39.5754
      vertex 151 6.68786 39.5693
      vertex 165 7 39.6
    endloop
  endfacet
  facet normal 0 0.097881 -0.995198
    outer loop
      vertex 165 7 39.6
      vertex 151 6.68786 39.5693
      vertex 151 7 39.6
    endloop
  endfacet
  facet normal 0 0.634428 -0.772982
    outer loop
      vertex 151 5.86863 39.1314
      vertex 165 6.11109 39.3304
      vertex 165 5.86863 39.1314
    endloop
  endfacet
  facet normal 0 0.634428 -0.772982
    outer loop
      vertex 165 6.11109 39.3304
      vertex 151 5.86863 39.1314
      vertex 151 6.11109 39.3304
    endloop
  endfacet
  facet normal 0 0.881902 -0.471432
    outer loop
      vertex 165 5.52179 38.6123
      vertex 151 5.66965 38.8889
      vertex 165 5.66965 38.8889
    endloop
  endfacet
  facet normal 0 0.881902 -0.471432
    outer loop
      vertex 151 5.66965 38.8889
      vertex 165 5.52179 38.6123
      vertex 151 5.52179 38.6123
    endloop
  endfacet
  facet normal 0 -0.995184 0.0980198
    outer loop
      vertex 151 8.56926 37.6879
      vertex 165 8.6 38
      vertex 151 8.6 38
    endloop
  endfacet
  facet normal 0 -0.995184 0.0980198
    outer loop
      vertex 165 8.6 38
      vertex 151 8.56926 37.6879
      vertex 165 8.56926 37.6879
    endloop
  endfacet
  facet normal 0 -0.097881 -0.995198
    outer loop
      vertex 151 7 39.6
      vertex 165 7.31214 39.5693
      vertex 165 7 39.6
    endloop
  endfacet
  facet normal -0 -0.097881 -0.995198
    outer loop
      vertex 165 7.31214 39.5693
      vertex 151 7 39.6
      vertex 151 7.31214 39.5693
    endloop
  endfacet
  facet normal 0 0.995184 -0.0980198
    outer loop
      vertex 165 5.4 38
      vertex 151 5.43074 38.3121
      vertex 165 5.43074 38.3121
    endloop
  endfacet
  facet normal 0 0.995184 -0.0980198
    outer loop
      vertex 151 5.43074 38.3121
      vertex 165 5.4 38
      vertex 151 5.4 38
    endloop
  endfacet
  facet normal 0 0.956953 -0.290242
    outer loop
      vertex 165 5.43074 38.3121
      vertex 151 5.52179 38.6123
      vertex 165 5.52179 38.6123
    endloop
  endfacet
  facet normal 0 0.956953 -0.290242
    outer loop
      vertex 151 5.52179 38.6123
      vertex 165 5.43074 38.3121
      vertex 151 5.43074 38.3121
    endloop
  endfacet
  facet normal 0 0.290715 -0.95681
    outer loop
      vertex 151 148.975 152.096
      vertex 165 149.913 152.381
      vertex 165 148.975 152.096
    endloop
  endfacet
  facet normal 0 0.290715 -0.95681
    outer loop
      vertex 165 149.913 152.381
      vertex 151 148.975 152.096
      vertex 151 149.913 152.381
    endloop
  endfacet
  facet normal 0 0.0995037 -0.995037
    outer loop
      vertex 151 148 152
      vertex 165 148.25 152.025
      vertex 165 148 152
    endloop
  endfacet
  facet normal 2.73403e-05 0.0979877 -0.995188
    outer loop
      vertex 151 148.975 152.096
      vertex 165 148.25 152.025
      vertex 151 148 152
    endloop
  endfacet
  facet normal 0 0.0974648 -0.995239
    outer loop
      vertex 165 148.25 152.025
      vertex 151 148.975 152.096
      vertex 165 148.975 152.096
    endloop
  endfacet
  facet normal 0 0.470526 -0.882386
    outer loop
      vertex 151 149.913 152.381
      vertex 165 150.65 152.774
      vertex 165 149.913 152.381
    endloop
  endfacet
  facet normal -3.99882e-05 0.471117 -0.882071
    outer loop
      vertex 151 150.778 152.843
      vertex 165 150.65 152.774
      vertex 151 149.913 152.381
    endloop
  endfacet
  facet normal 0 0.47451 -0.88025
    outer loop
      vertex 165 150.65 152.774
      vertex 151 150.778 152.843
      vertex 165 150.778 152.843
    endloop
  endfacet
  facet normal 0 0.633996 -0.773336
    outer loop
      vertex 151 150.778 152.843
      vertex 165 151 153.025
      vertex 165 150.778 152.843
    endloop
  endfacet
  facet normal 0 0.633996 -0.773336
    outer loop
      vertex 165 151 153.025
      vertex 151 150.778 152.843
      vertex 151 151 153.025
    endloop
  endfacet
  facet normal -0 0.633996 0.773336
    outer loop
      vertex 151 151 160.975
      vertex 165 150.778 161.157
      vertex 165 151 160.975
    endloop
  endfacet
  facet normal 0 0.633996 0.773336
    outer loop
      vertex 165 150.778 161.157
      vertex 151 151 160.975
      vertex 151 150.778 161.157
    endloop
  endfacet
  facet normal 0 -0.471117 0.882071
    outer loop
      vertex 151 146.087 161.619
      vertex 165 145.222 161.157
      vertex 165 146.087 161.619
    endloop
  endfacet
  facet normal 0 -0.471117 0.882071
    outer loop
      vertex 165 145.222 161.157
      vertex 151 146.087 161.619
      vertex 151 145.222 161.157
    endloop
  endfacet
  facet normal 0 -0.471117 -0.882071
    outer loop
      vertex 151 145.222 152.843
      vertex 165 146.087 152.381
      vertex 165 145.222 152.843
    endloop
  endfacet
  facet normal -0 -0.471117 -0.882071
    outer loop
      vertex 165 146.087 152.381
      vertex 151 145.222 152.843
      vertex 151 146.087 152.381
    endloop
  endfacet
  facet normal 0 -0.95681 -0.290715
    outer loop
      vertex 151 143.381 155.087
      vertex 165 143.096 156.025
      vertex 151 143.096 156.025
    endloop
  endfacet
  facet normal 0 -0.95681 -0.290715
    outer loop
      vertex 165 143.096 156.025
      vertex 151 143.381 155.087
      vertex 165 143.381 155.087
    endloop
  endfacet
  facet normal 0 -0.773548 -0.633738
    outer loop
      vertex 151 144.464 153.464
      vertex 165 143.843 154.222
      vertex 151 143.843 154.222
    endloop
  endfacet
  facet normal 0 -0.773548 -0.633738
    outer loop
      vertex 165 143.843 154.222
      vertex 151 144.464 153.464
      vertex 165 144.464 153.464
    endloop
  endfacet
  facet normal 0 -0.882071 -0.471117
    outer loop
      vertex 151 143.843 154.222
      vertex 165 143.381 155.087
      vertex 151 143.381 155.087
    endloop
  endfacet
  facet normal 0 -0.882071 -0.471117
    outer loop
      vertex 165 143.381 155.087
      vertex 151 143.843 154.222
      vertex 165 143.843 154.222
    endloop
  endfacet
  facet normal 0 -0.773548 0.633738
    outer loop
      vertex 151 143.843 159.778
      vertex 165 144.464 160.536
      vertex 151 144.464 160.536
    endloop
  endfacet
  facet normal 0 -0.773548 0.633738
    outer loop
      vertex 165 144.464 160.536
      vertex 151 143.843 159.778
      vertex 165 143.843 159.778
    endloop
  endfacet
  facet normal -1 0 0
    outer loop
      vertex 151 148.889 155.67
      vertex 151 151 153.025
      vertex 151 150.778 152.843
    endloop
  endfacet
  facet normal -1 0 0
    outer loop
      vertex 151 151 153.025
      vertex 151 149.6 157
      vertex 151 151 160.975
    endloop
  endfacet
  facet normal -1 0 0
    outer loop
      vertex 151 148.889 155.67
      vertex 151 150.778 152.843
      vertex 151 149.913 152.381
    endloop
  endfacet
  facet normal -1 0 0
    outer loop
      vertex 151 149.569 157.312
      vertex 151 151 160.975
      vertex 151 149.6 157
    endloop
  endfacet
  facet normal -1 0 0
    outer loop
      vertex 151 149.478 157.612
      vertex 151 151 160.975
      vertex 151 149.569 157.312
    endloop
  endfacet
  facet normal -1 0 0
    outer loop
      vertex 151 151 153.025
      vertex 151 149.569 156.688
      vertex 151 149.6 157
    endloop
  endfacet
  facet normal -1 0 0
    outer loop
      vertex 151 151 153.025
      vertex 151 149.478 156.388
      vertex 151 149.569 156.688
    endloop
  endfacet
  facet normal -1 0 0
    outer loop
      vertex 151 151 153.025
      vertex 151 149.33 156.111
      vertex 151 149.478 156.388
    endloop
  endfacet
  facet normal -1 0 0
    outer loop
      vertex 151 151 153.025
      vertex 151 149.131 155.869
      vertex 151 149.33 156.111
    endloop
  endfacet
  facet normal -1 0 0
    outer loop
      vertex 151 148.612 155.522
      vertex 151 149.913 152.381
      vertex 151 148.975 152.096
    endloop
  endfacet
  facet normal -1 0 0
    outer loop
      vertex 151 151 153.025
      vertex 151 148.889 155.67
      vertex 151 149.131 155.869
    endloop
  endfacet
  facet normal -1 0 0
    outer loop
      vertex 151 149.913 152.381
      vertex 151 148.612 155.522
      vertex 151 148.889 155.67
    endloop
  endfacet
  facet normal -1 0 0
    outer loop
      vertex 151 148.975 152.096
      vertex 151 148.312 155.431
      vertex 151 148.612 155.522
    endloop
  endfacet
  facet normal -1 0 0
    outer loop
      vertex 151 148 152
      vertex 151 148.312 155.431
      vertex 151 148.975 152.096
    endloop
  endfacet
  facet normal -1 0 0
    outer loop
      vertex 151 148 152
      vertex 151 148 155.4
      vertex 151 148.312 155.431
    endloop
  endfacet
  facet normal -1 0 0
    outer loop
      vertex 151 148 152
      vertex 151 147.688 155.431
      vertex 151 148 155.4
    endloop
  endfacet
  facet normal -1 0 0
    outer loop
      vertex 151 147.025 152.096
      vertex 151 147.688 155.431
      vertex 151 148 152
    endloop
  endfacet
  facet normal -1 -0 0
    outer loop
      vertex 151 147.688 155.431
      vertex 151 147.025 152.096
      vertex 151 147.388 155.522
    endloop
  endfacet
  facet normal -1 0 0
    outer loop
      vertex 151 146.087 152.381
      vertex 151 147.388 155.522
      vertex 151 147.025 152.096
    endloop
  endfacet
  facet normal -1 -0 0
    outer loop
      vertex 151 147.388 155.522
      vertex 151 146.087 152.381
      vertex 151 147.111 155.67
    endloop
  endfacet
  facet normal -1 0 0
    outer loop
      vertex 151 145.222 152.843
      vertex 151 147.111 155.67
      vertex 151 146.087 152.381
    endloop
  endfacet
  facet normal -1 -0 0
    outer loop
      vertex 151 147.111 155.67
      vertex 151 145.222 152.843
      vertex 151 146.869 155.869
    endloop
  endfacet
  facet normal -1 0 0
    outer loop
      vertex 151 144.464 153.464
      vertex 151 146.869 155.869
      vertex 151 145.222 152.843
    endloop
  endfacet
  facet normal -1 0 0
    outer loop
      vertex 151 143.843 154.222
      vertex 151 146.67 156.111
      vertex 151 144.464 153.464
    endloop
  endfacet
  facet normal -1 -0 0
    outer loop
      vertex 151 146.869 155.869
      vertex 151 144.464 153.464
      vertex 151 146.67 156.111
    endloop
  endfacet
  facet normal -1 0 0
    outer loop
      vertex 151 149.33 157.889
      vertex 151 151 160.975
      vertex 151 149.478 157.612
    endloop
  endfacet
  facet normal -1 0 0
    outer loop
      vertex 151 149.131 158.131
      vertex 151 151 160.975
      vertex 151 149.33 157.889
    endloop
  endfacet
  facet normal -1 0 0
    outer loop
      vertex 151 148.889 158.33
      vertex 151 151 160.975
      vertex 151 149.131 158.131
    endloop
  endfacet
  facet normal -1 -0 0
    outer loop
      vertex 151 151 160.975
      vertex 151 148.889 158.33
      vertex 151 150.778 161.157
    endloop
  endfacet
  facet normal -1 -0 0
    outer loop
      vertex 151 150.778 161.157
      vertex 151 148.889 158.33
      vertex 151 149.913 161.619
    endloop
  endfacet
  facet normal -1 0 0
    outer loop
      vertex 151 148.612 158.478
      vertex 151 149.913 161.619
      vertex 151 148.889 158.33
    endloop
  endfacet
  facet normal -1 -0 0
    outer loop
      vertex 151 149.913 161.619
      vertex 151 148.612 158.478
      vertex 151 148.975 161.904
    endloop
  endfacet
  facet normal -1 0 0
    outer loop
      vertex 151 148.312 158.569
      vertex 151 148.975 161.904
      vertex 151 148.612 158.478
    endloop
  endfacet
  facet normal -1 0 0
    outer loop
      vertex 151 148 158.6
      vertex 151 148.975 161.904
      vertex 151 148.312 158.569
    endloop
  endfacet
  facet normal -1 0 0
    outer loop
      vertex 151 148 158.6
      vertex 151 148 162
      vertex 151 148.975 161.904
    endloop
  endfacet
  facet normal -1 0 0
    outer loop
      vertex 151 147.688 158.569
      vertex 151 148 162
      vertex 151 148 158.6
    endloop
  endfacet
  facet normal -1 0 0
    outer loop
      vertex 151 147.025 161.904
      vertex 151 147.688 158.569
      vertex 151 147.388 158.478
    endloop
  endfacet
  facet normal -1 0 0
    outer loop
      vertex 151 146.087 161.619
      vertex 151 147.388 158.478
      vertex 151 147.111 158.33
    endloop
  endfacet
  facet normal -1 0 0
    outer loop
      vertex 151 147.688 158.569
      vertex 151 147.025 161.904
      vertex 151 148 162
    endloop
  endfacet
  facet normal -1 0 0
    outer loop
      vertex 151 145.222 161.157
      vertex 151 147.111 158.33
      vertex 151 146.869 158.131
    endloop
  endfacet
  facet normal -1 0 0
    outer loop
      vertex 151 144.464 160.536
      vertex 151 146.869 158.131
      vertex 151 146.67 157.889
    endloop
  endfacet
  facet normal -1 0 0
    outer loop
      vertex 151 143.843 159.778
      vertex 151 146.67 157.889
      vertex 151 146.522 157.612
    endloop
  endfacet
  facet normal -1 0 0
    outer loop
      vertex 151 143.381 158.913
      vertex 151 146.522 157.612
      vertex 151 146.431 157.312
    endloop
  endfacet
  facet normal -1 0 0
    outer loop
      vertex 151 147.388 158.478
      vertex 151 146.087 161.619
      vertex 151 147.025 161.904
    endloop
  endfacet
  facet normal -1 0 0
    outer loop
      vertex 151 143.096 157.975
      vertex 151 146.431 157.312
      vertex 151 146.4 157
    endloop
  endfacet
  facet normal -1 -0 0
    outer loop
      vertex 151 146.67 156.111
      vertex 151 143.843 154.222
      vertex 151 146.522 156.388
    endloop
  endfacet
  facet normal -1 0 0
    outer loop
      vertex 151 143.381 155.087
      vertex 151 146.522 156.388
      vertex 151 143.843 154.222
    endloop
  endfacet
  facet normal -1 0 0
    outer loop
      vertex 151 147.111 158.33
      vertex 151 145.222 161.157
      vertex 151 146.087 161.619
    endloop
  endfacet
  facet normal -1 -0 0
    outer loop
      vertex 151 146.522 156.388
      vertex 151 143.381 155.087
      vertex 151 146.431 156.688
    endloop
  endfacet
  facet normal -1 0 0
    outer loop
      vertex 151 146.869 158.131
      vertex 151 144.464 160.536
      vertex 151 145.222 161.157
    endloop
  endfacet
  facet normal -1 0 0
    outer loop
      vertex 151 143.096 156.025
      vertex 151 146.431 156.688
      vertex 151 143.381 155.087
    endloop
  endfacet
  facet normal -1 0 0
    outer loop
      vertex 151 146.67 157.889
      vertex 151 143.843 159.778
      vertex 151 144.464 160.536
    endloop
  endfacet
  facet normal -1 -0 0
    outer loop
      vertex 151 146.431 156.688
      vertex 151 143.096 156.025
      vertex 151 146.4 157
    endloop
  endfacet
  facet normal -1 0 0
    outer loop
      vertex 151 146.522 157.612
      vertex 151 143.381 158.913
      vertex 151 143.843 159.778
    endloop
  endfacet
  facet normal -1 0 0
    outer loop
      vertex 151 143 157
      vertex 151 146.4 157
      vertex 151 143.096 156.025
    endloop
  endfacet
  facet normal -1 0 0
    outer loop
      vertex 151 146.431 157.312
      vertex 151 143.096 157.975
      vertex 151 143.381 158.913
    endloop
  endfacet
  facet normal -1 0 0
    outer loop
      vertex 151 146.4 157
      vertex 151 143 157
      vertex 151 143.096 157.975
    endloop
  endfacet
  facet normal 0 -0.633738 -0.773548
    outer loop
      vertex 151 144.464 153.464
      vertex 165 145.222 152.843
      vertex 165 144.464 153.464
    endloop
  endfacet
  facet normal -0 -0.633738 -0.773548
    outer loop
      vertex 165 145.222 152.843
      vertex 151 144.464 153.464
      vertex 151 145.222 152.843
    endloop
  endfacet
  facet normal -0 0.0974648 0.995239
    outer loop
      vertex 151 148.975 161.904
      vertex 165 148.25 161.975
      vertex 165 148.975 161.904
    endloop
  endfacet
  facet normal 2.73403e-05 0.0979877 0.995188
    outer loop
      vertex 151 148 162
      vertex 165 148.25 161.975
      vertex 151 148.975 161.904
    endloop
  endfacet
  facet normal 0 0.0995037 0.995037
    outer loop
      vertex 165 148.25 161.975
      vertex 151 148 162
      vertex 165 148 162
    endloop
  endfacet
  facet normal -0 0.290715 0.95681
    outer loop
      vertex 151 149.913 161.619
      vertex 165 148.975 161.904
      vertex 165 149.913 161.619
    endloop
  endfacet
  facet normal 0 0.290715 0.95681
    outer loop
      vertex 165 148.975 161.904
      vertex 151 149.913 161.619
      vertex 151 148.975 161.904
    endloop
  endfacet
  facet normal 0 -0.995188 -0.0979877
    outer loop
      vertex 151 143.096 156.025
      vertex 165 143 157
      vertex 151 143 157
    endloop
  endfacet
  facet normal 0 -0.995188 -0.0979877
    outer loop
      vertex 165 143 157
      vertex 151 143.096 156.025
      vertex 165 143.096 156.025
    endloop
  endfacet
  facet normal -0 0.47451 0.88025
    outer loop
      vertex 151 150.778 161.157
      vertex 165 150.65 161.226
      vertex 165 150.778 161.157
    endloop
  endfacet
  facet normal -4.695e-05 0.470526 0.882386
    outer loop
      vertex 165 150.65 161.226
      vertex 151 150.778 161.157
      vertex 165 149.913 161.619
    endloop
  endfacet
  facet normal 0 0.471117 0.882071
    outer loop
      vertex 165 149.913 161.619
      vertex 151 150.778 161.157
      vertex 151 149.913 161.619
    endloop
  endfacet
  facet normal 0 -0.290715 -0.95681
    outer loop
      vertex 151 146.087 152.381
      vertex 165 147.025 152.096
      vertex 165 146.087 152.381
    endloop
  endfacet
  facet normal -0 -0.290715 -0.95681
    outer loop
      vertex 165 147.025 152.096
      vertex 151 146.087 152.381
      vertex 151 147.025 152.096
    endloop
  endfacet
  facet normal 0 -0.0979877 -0.995188
    outer loop
      vertex 151 147.025 152.096
      vertex 165 148 152
      vertex 165 147.025 152.096
    endloop
  endfacet
  facet normal -0 -0.0979877 -0.995188
    outer loop
      vertex 165 148 152
      vertex 151 147.025 152.096
      vertex 151 148 152
    endloop
  endfacet
  facet normal 0 -0.290715 0.95681
    outer loop
      vertex 151 147.025 161.904
      vertex 165 146.087 161.619
      vertex 165 147.025 161.904
    endloop
  endfacet
  facet normal 0 -0.290715 0.95681
    outer loop
      vertex 165 146.087 161.619
      vertex 151 147.025 161.904
      vertex 151 146.087 161.619
    endloop
  endfacet
  facet normal 0 -0.0979877 0.995188
    outer loop
      vertex 151 148 162
      vertex 165 147.025 161.904
      vertex 165 148 162
    endloop
  endfacet
  facet normal 0 -0.0979877 0.995188
    outer loop
      vertex 165 147.025 161.904
      vertex 151 148 162
      vertex 151 147.025 161.904
    endloop
  endfacet
  facet normal 0 -0.633738 0.773548
    outer loop
      vertex 151 145.222 161.157
      vertex 165 144.464 160.536
      vertex 165 145.222 161.157
    endloop
  endfacet
  facet normal 0 -0.633738 0.773548
    outer loop
      vertex 165 144.464 160.536
      vertex 151 145.222 161.157
      vertex 151 144.464 160.536
    endloop
  endfacet
  facet normal 0 -0.882071 0.471117
    outer loop
      vertex 151 143.381 158.913
      vertex 165 143.843 159.778
      vertex 151 143.843 159.778
    endloop
  endfacet
  facet normal 0 -0.882071 0.471117
    outer loop
      vertex 165 143.843 159.778
      vertex 151 143.381 158.913
      vertex 165 143.381 158.913
    endloop
  endfacet
  facet normal 0 -0.995188 0.0979877
    outer loop
      vertex 151 143 157
      vertex 165 143.096 157.975
      vertex 151 143.096 157.975
    endloop
  endfacet
  facet normal 0 -0.995188 0.0979877
    outer loop
      vertex 165 143.096 157.975
      vertex 151 143 157
      vertex 165 143 157
    endloop
  endfacet
  facet normal 0 -0.95681 0.290715
    outer loop
      vertex 151 143.096 157.975
      vertex 165 143.381 158.913
      vertex 151 143.381 158.913
    endloop
  endfacet
  facet normal 0 -0.95681 0.290715
    outer loop
      vertex 165 143.381 158.913
      vertex 151 143.096 157.975
      vertex 165 143.096 157.975
    endloop
  endfacet
  facet normal 0 -0.290273 0.956944
    outer loop
      vertex 151 148.612 155.522
      vertex 165 148.312 155.431
      vertex 165 148.612 155.522
    endloop
  endfacet
  facet normal 0 -0.290273 0.956944
    outer loop
      vertex 165 148.312 155.431
      vertex 151 148.612 155.522
      vertex 151 148.312 155.431
    endloop
  endfacet
  facet normal 0 -0.0963242 0.99535
    outer loop
      vertex 151 148.312 155.431
      vertex 165 148.25 155.425
      vertex 165 148.312 155.431
    endloop
  endfacet
  facet normal -1.42148e-05 -0.0995037 0.995037
    outer loop
      vertex 165 148.25 155.425
      vertex 151 148.312 155.431
      vertex 165 148 155.4
    endloop
  endfacet
  facet normal 0 -0.0988721 0.9951
    outer loop
      vertex 165 148 155.4
      vertex 151 148.312 155.431
      vertex 151 148 155.4
    endloop
  endfacet
  facet normal 0 -0.471249 0.882
    outer loop
      vertex 151 148.889 155.67
      vertex 165 148.612 155.522
      vertex 165 148.889 155.67
    endloop
  endfacet
  facet normal 0 -0.471249 0.882
    outer loop
      vertex 165 148.612 155.522
      vertex 151 148.889 155.67
      vertex 151 148.612 155.522
    endloop
  endfacet
  facet normal 0 -0.772391 -0.635148
    outer loop
      vertex 151 149.33 157.889
      vertex 165 149.131 158.131
      vertex 151 149.131 158.131
    endloop
  endfacet
  facet normal 0 -0.772391 -0.635148
    outer loop
      vertex 165 149.131 158.131
      vertex 151 149.33 157.889
      vertex 165 149.33 157.889
    endloop
  endfacet
  facet normal 0 -0.956944 0.290273
    outer loop
      vertex 151 149.478 156.388
      vertex 165 149.569 156.688
      vertex 151 149.569 156.688
    endloop
  endfacet
  facet normal 0 -0.956944 0.290273
    outer loop
      vertex 165 149.569 156.688
      vertex 151 149.478 156.388
      vertex 165 149.478 156.388
    endloop
  endfacet
  facet normal 0 -0.635148 0.772391
    outer loop
      vertex 151 149.131 155.869
      vertex 165 148.889 155.67
      vertex 165 149.131 155.869
    endloop
  endfacet
  facet normal 0 -0.635148 0.772391
    outer loop
      vertex 165 148.889 155.67
      vertex 151 149.131 155.869
      vertex 151 148.889 155.67
    endloop
  endfacet
  facet normal 0 -0.635148 -0.772391
    outer loop
      vertex 151 148.889 158.33
      vertex 165 149.131 158.131
      vertex 165 148.889 158.33
    endloop
  endfacet
  facet normal -0 -0.635148 -0.772391
    outer loop
      vertex 165 149.131 158.131
      vertex 151 148.889 158.33
      vertex 151 149.131 158.131
    endloop
  endfacet
  facet normal 0 0.471249 -0.882
    outer loop
      vertex 151 147.111 158.33
      vertex 165 147.388 158.478
      vertex 165 147.111 158.33
    endloop
  endfacet
  facet normal 0 0.471249 -0.882
    outer loop
      vertex 165 147.388 158.478
      vertex 151 147.111 158.33
      vertex 151 147.388 158.478
    endloop
  endfacet
  facet normal -0 0.471249 0.882
    outer loop
      vertex 151 147.388 155.522
      vertex 165 147.111 155.67
      vertex 165 147.388 155.522
    endloop
  endfacet
  facet normal 0 0.471249 0.882
    outer loop
      vertex 165 147.111 155.67
      vertex 151 147.388 155.522
      vertex 151 147.111 155.67
    endloop
  endfacet
  facet normal 0 -0.956944 -0.290273
    outer loop
      vertex 151 149.569 157.312
      vertex 165 149.478 157.612
      vertex 151 149.478 157.612
    endloop
  endfacet
  facet normal 0 -0.956944 -0.290273
    outer loop
      vertex 165 149.478 157.612
      vertex 151 149.569 157.312
      vertex 165 149.569 157.312
    endloop
  endfacet
  facet normal 0 0.956944 0.290273
    outer loop
      vertex 165 146.522 156.388
      vertex 151 146.431 156.688
      vertex 165 146.431 156.688
    endloop
  endfacet
  facet normal 0 0.956944 0.290273
    outer loop
      vertex 151 146.431 156.688
      vertex 165 146.522 156.388
      vertex 151 146.522 156.388
    endloop
  endfacet
  facet normal 0 -0.772391 0.635148
    outer loop
      vertex 151 149.131 155.869
      vertex 165 149.33 156.111
      vertex 151 149.33 156.111
    endloop
  endfacet
  facet normal 0 -0.772391 0.635148
    outer loop
      vertex 165 149.33 156.111
      vertex 151 149.131 155.869
      vertex 165 149.131 155.869
    endloop
  endfacet
  facet normal 0 0.772391 0.635148
    outer loop
      vertex 165 146.869 155.869
      vertex 151 146.67 156.111
      vertex 165 146.67 156.111
    endloop
  endfacet
  facet normal 0 0.772391 0.635148
    outer loop
      vertex 151 146.67 156.111
      vertex 165 146.869 155.869
      vertex 151 146.869 155.869
    endloop
  endfacet
  facet normal 0 0.882 0.471249
    outer loop
      vertex 165 146.67 156.111
      vertex 151 146.522 156.388
      vertex 165 146.522 156.388
    endloop
  endfacet
  facet normal 0 0.882 0.471249
    outer loop
      vertex 151 146.522 156.388
      vertex 165 146.67 156.111
      vertex 151 146.67 156.111
    endloop
  endfacet
  facet normal 0 0.772391 -0.635148
    outer loop
      vertex 165 146.67 157.889
      vertex 151 146.869 158.131
      vertex 165 146.869 158.131
    endloop
  endfacet
  facet normal 0 0.772391 -0.635148
    outer loop
      vertex 151 146.869 158.131
      vertex 165 146.67 157.889
      vertex 151 146.67 157.889
    endloop
  endfacet
  facet normal -0 0.635148 0.772391
    outer loop
      vertex 151 147.111 155.67
      vertex 165 146.869 155.869
      vertex 165 147.111 155.67
    endloop
  endfacet
  facet normal 0 0.635148 0.772391
    outer loop
      vertex 165 146.869 155.869
      vertex 151 147.111 155.67
      vertex 151 146.869 155.869
    endloop
  endfacet
  facet normal -0 0.0988721 0.9951
    outer loop
      vertex 151 148 155.4
      vertex 165 147.688 155.431
      vertex 165 148 155.4
    endloop
  endfacet
  facet normal 0 0.0988721 0.9951
    outer loop
      vertex 165 147.688 155.431
      vertex 151 148 155.4
      vertex 151 147.688 155.431
    endloop
  endfacet
  facet normal -0 0.290273 0.956944
    outer loop
      vertex 151 147.688 155.431
      vertex 165 147.388 155.522
      vertex 165 147.688 155.431
    endloop
  endfacet
  facet normal 0 0.290273 0.956944
    outer loop
      vertex 165 147.388 155.522
      vertex 151 147.688 155.431
      vertex 151 147.388 155.522
    endloop
  endfacet
  facet normal 0 -0.882 -0.471249
    outer loop
      vertex 151 149.478 157.612
      vertex 165 149.33 157.889
      vertex 151 149.33 157.889
    endloop
  endfacet
  facet normal 0 -0.882 -0.471249
    outer loop
      vertex 165 149.33 157.889
      vertex 151 149.478 157.612
      vertex 165 149.478 157.612
    endloop
  endfacet
  facet normal 0 -0.882 0.471249
    outer loop
      vertex 151 149.33 156.111
      vertex 165 149.478 156.388
      vertex 151 149.478 156.388
    endloop
  endfacet
  facet normal 0 -0.882 0.471249
    outer loop
      vertex 165 149.478 156.388
      vertex 151 149.33 156.111
      vertex 165 149.33 156.111
    endloop
  endfacet
  facet normal 0 -0.290273 -0.956944
    outer loop
      vertex 151 148.312 158.569
      vertex 165 148.612 158.478
      vertex 165 148.312 158.569
    endloop
  endfacet
  facet normal -0 -0.290273 -0.956944
    outer loop
      vertex 165 148.612 158.478
      vertex 151 148.312 158.569
      vertex 151 148.612 158.478
    endloop
  endfacet
  facet normal 0 0.9951 0.0988721
    outer loop
      vertex 165 146.431 156.688
      vertex 151 146.4 157
      vertex 165 146.4 157
    endloop
  endfacet
  facet normal 0 0.9951 0.0988721
    outer loop
      vertex 151 146.4 157
      vertex 165 146.431 156.688
      vertex 151 146.431 156.688
    endloop
  endfacet
  facet normal 0 -0.9951 -0.0988721
    outer loop
      vertex 151 149.6 157
      vertex 165 149.569 157.312
      vertex 151 149.569 157.312
    endloop
  endfacet
  facet normal 0 -0.9951 -0.0988721
    outer loop
      vertex 165 149.569 157.312
      vertex 151 149.6 157
      vertex 165 149.6 157
    endloop
  endfacet
  facet normal 0 -0.471249 -0.882
    outer loop
      vertex 151 148.612 158.478
      vertex 165 148.889 158.33
      vertex 165 148.612 158.478
    endloop
  endfacet
  facet normal -0 -0.471249 -0.882
    outer loop
      vertex 165 148.889 158.33
      vertex 151 148.612 158.478
      vertex 151 148.889 158.33
    endloop
  endfacet
  facet normal 0 0.290273 -0.956944
    outer loop
      vertex 151 147.388 158.478
      vertex 165 147.688 158.569
      vertex 165 147.388 158.478
    endloop
  endfacet
  facet normal 0 0.290273 -0.956944
    outer loop
      vertex 165 147.688 158.569
      vertex 151 147.388 158.478
      vertex 151 147.688 158.569
    endloop
  endfacet
  facet normal 0 0.0988721 -0.9951
    outer loop
      vertex 151 147.688 158.569
      vertex 165 148 158.6
      vertex 165 147.688 158.569
    endloop
  endfacet
  facet normal 0 0.0988721 -0.9951
    outer loop
      vertex 165 148 158.6
      vertex 151 147.688 158.569
      vertex 151 148 158.6
    endloop
  endfacet
  facet normal 0 0.635148 -0.772391
    outer loop
      vertex 151 146.869 158.131
      vertex 165 147.111 158.33
      vertex 165 146.869 158.131
    endloop
  endfacet
  facet normal 0 0.635148 -0.772391
    outer loop
      vertex 165 147.111 158.33
      vertex 151 146.869 158.131
      vertex 151 147.111 158.33
    endloop
  endfacet
  facet normal 0 0.882 -0.471249
    outer loop
      vertex 165 146.522 157.612
      vertex 151 146.67 157.889
      vertex 165 146.67 157.889
    endloop
  endfacet
  facet normal 0 0.882 -0.471249
    outer loop
      vertex 151 146.67 157.889
      vertex 165 146.522 157.612
      vertex 151 146.522 157.612
    endloop
  endfacet
  facet normal 0 -0.9951 0.0988721
    outer loop
      vertex 151 149.569 156.688
      vertex 165 149.6 157
      vertex 151 149.6 157
    endloop
  endfacet
  facet normal 0 -0.9951 0.0988721
    outer loop
      vertex 165 149.6 157
      vertex 151 149.569 156.688
      vertex 165 149.569 156.688
    endloop
  endfacet
  facet normal 0 -0.0995037 -0.995037
    outer loop
      vertex 151 148 158.6
      vertex 165 148.25 158.575
      vertex 165 148 158.6
    endloop
  endfacet
  facet normal -1.13908e-05 -0.0988721 -0.9951
    outer loop
      vertex 151 148.312 158.569
      vertex 165 148.25 158.575
      vertex 151 148 158.6
    endloop
  endfacet
  facet normal 0 -0.0963242 -0.99535
    outer loop
      vertex 165 148.25 158.575
      vertex 151 148.312 158.569
      vertex 165 148.312 158.569
    endloop
  endfacet
  facet normal 0 0.9951 -0.0988721
    outer loop
      vertex 165 146.4 157
      vertex 151 146.431 157.312
      vertex 165 146.431 157.312
    endloop
  endfacet
  facet normal 0 0.9951 -0.0988721
    outer loop
      vertex 151 146.431 157.312
      vertex 165 146.4 157
      vertex 151 146.4 157
    endloop
  endfacet
  facet normal 0 0.956944 -0.290273
    outer loop
      vertex 165 146.431 157.312
      vertex 151 146.522 157.612
      vertex 165 146.522 157.612
    endloop
  endfacet
  facet normal 0 0.956944 -0.290273
    outer loop
      vertex 151 146.522 157.612
      vertex 165 146.431 157.312
      vertex 151 146.431 157.312
    endloop
  endfacet
endsolid OpenSCAD_Model
