solid OpenSCAD_Model
  facet normal 1 -0 0
    outer loop
      vertex 58 0 3
      vertex 58 42 0
      vertex 58 42 3
    endloop
  endfacet
  facet normal 1 0 0
    outer loop
      vertex 58 42 0
      vertex 58 0 3
      vertex 58 0 0
    endloop
  endfacet
  facet normal 0 0 1
    outer loop
      vertex 46.1795 24.1867 3
      vertex 55 35 3
      vertex 46.2 24.5 3
    endloop
  endfacet
  facet normal 0 0 1
    outer loop
      vertex 55 35 3
      vertex 46.1795 24.8133 3
      vertex 46.2 24.5 3
    endloop
  endfacet
  facet normal 0 0 1
    outer loop
      vertex 55 35 3
      vertex 46.1182 25.1212 3
      vertex 46.1795 24.8133 3
    endloop
  endfacet
  facet normal 0 0 1
    outer loop
      vertex 55 35 3
      vertex 46.0173 25.4184 3
      vertex 46.1182 25.1212 3
    endloop
  endfacet
  facet normal 0 0 1
    outer loop
      vertex 55 35 3
      vertex 45.8785 25.7 3
      vertex 46.0173 25.4184 3
    endloop
  endfacet
  facet normal 0 0 1
    outer loop
      vertex 55 35 3
      vertex 45.704 25.961 3
      vertex 45.8785 25.7 3
    endloop
  endfacet
  facet normal 0 0 1
    outer loop
      vertex 55 35 3
      vertex 45.4971 26.1971 3
      vertex 45.704 25.961 3
    endloop
  endfacet
  facet normal 0 0 1
    outer loop
      vertex 55 35 3
      vertex 45.261 26.404 3
      vertex 45.4971 26.1971 3
    endloop
  endfacet
  facet normal 0 0 1
    outer loop
      vertex 55 35 3
      vertex 45 26.5785 3
      vertex 45.261 26.404 3
    endloop
  endfacet
  facet normal 0 0 1
    outer loop
      vertex 55 35 3
      vertex 44.7184 26.7173 3
      vertex 45 26.5785 3
    endloop
  endfacet
  facet normal 0 0 1
    outer loop
      vertex 55 35 3
      vertex 44.4212 26.8182 3
      vertex 44.7184 26.7173 3
    endloop
  endfacet
  facet normal 0 0 1
    outer loop
      vertex 55 35 3
      vertex 44.1133 26.8795 3
      vertex 44.4212 26.8182 3
    endloop
  endfacet
  facet normal 0 0 1
    outer loop
      vertex 55 35 3
      vertex 43.8 26.9 3
      vertex 44.1133 26.8795 3
    endloop
  endfacet
  facet normal 0 0 1
    outer loop
      vertex 55 35 3
      vertex 38.4 26.9 3
      vertex 43.8 26.9 3
    endloop
  endfacet
  facet normal -0 0 1
    outer loop
      vertex 24 30.8 3
      vertex 38.4 26.9 3
      vertex 55 35 3
    endloop
  endfacet
  facet normal 0 0 1
    outer loop
      vertex 38.4 26.9 3
      vertex 24 30.8 3
      vertex 38.0867 26.8795 3
    endloop
  endfacet
  facet normal 0 0 1
    outer loop
      vertex 38.0867 26.8795 3
      vertex 24 30.8 3
      vertex 37.7788 26.8182 3
    endloop
  endfacet
  facet normal 0 0 1
    outer loop
      vertex 24 23 3
      vertex 36 24.5 3
      vertex 36.0205 24.8133 3
    endloop
  endfacet
  facet normal 0 0 1
    outer loop
      vertex 24 23 3
      vertex 36.0205 24.8133 3
      vertex 36.0818 25.1212 3
    endloop
  endfacet
  facet normal 0 0 1
    outer loop
      vertex 24 30.8 3
      vertex 36.0818 25.1212 3
      vertex 36.1827 25.4184 3
    endloop
  endfacet
  facet normal 0 0 1
    outer loop
      vertex 36 24.5 3
      vertex 30.1897 10.1566 3
      vertex 30.2 10 3
    endloop
  endfacet
  facet normal 0 0 1
    outer loop
      vertex 36 24.5 3
      vertex 30.1591 10.3106 3
      vertex 30.1897 10.1566 3
    endloop
  endfacet
  facet normal 0 0 1
    outer loop
      vertex 36 24.5 3
      vertex 30.1087 10.4592 3
      vertex 30.1591 10.3106 3
    endloop
  endfacet
  facet normal 0 0 1
    outer loop
      vertex 36 24.5 3
      vertex 30.0392 10.6 3
      vertex 30.1087 10.4592 3
    endloop
  endfacet
  facet normal 0 0 1
    outer loop
      vertex 36 24.5 3
      vertex 29.952 10.7305 3
      vertex 30.0392 10.6 3
    endloop
  endfacet
  facet normal 0 0 1
    outer loop
      vertex 36 24.5 3
      vertex 29.8485 10.8485 3
      vertex 29.952 10.7305 3
    endloop
  endfacet
  facet normal 0 0 1
    outer loop
      vertex 36 24.5 3
      vertex 29.7305 10.952 3
      vertex 29.8485 10.8485 3
    endloop
  endfacet
  facet normal 0 0 1
    outer loop
      vertex 36 24.5 3
      vertex 29.6 11.0392 3
      vertex 29.7305 10.952 3
    endloop
  endfacet
  facet normal 0 0 1
    outer loop
      vertex 36 24.5 3
      vertex 29.4592 11.1087 3
      vertex 29.6 11.0392 3
    endloop
  endfacet
  facet normal 0 0 1
    outer loop
      vertex 36 24.5 3
      vertex 29.3106 11.1591 3
      vertex 29.4592 11.1087 3
    endloop
  endfacet
  facet normal 0 -0 1
    outer loop
      vertex 29.1566 11.1897 3
      vertex 36 24.5 3
      vertex 24 23 3
    endloop
  endfacet
  facet normal 0 0 1
    outer loop
      vertex 24 30.8 3
      vertex 36.1827 25.4184 3
      vertex 36.3215 25.7 3
    endloop
  endfacet
  facet normal 0 0 1
    outer loop
      vertex 36 24.5 3
      vertex 29.1566 11.1897 3
      vertex 29.3106 11.1591 3
    endloop
  endfacet
  facet normal 0 0 1
    outer loop
      vertex 29.1566 11.1897 3
      vertex 24 23 3
      vertex 29 11.2 3
    endloop
  endfacet
  facet normal 0 0 1
    outer loop
      vertex 29 11.2 3
      vertex 24 23 3
      vertex 28.8434 11.1897 3
    endloop
  endfacet
  facet normal 0 0 1
    outer loop
      vertex 28.8434 11.1897 3
      vertex 24 23 3
      vertex 28.6894 11.1591 3
    endloop
  endfacet
  facet normal 0 0 1
    outer loop
      vertex 28.6894 11.1591 3
      vertex 24 23 3
      vertex 28.5408 11.1087 3
    endloop
  endfacet
  facet normal 0 0 1
    outer loop
      vertex 28.5408 11.1087 3
      vertex 24 23 3
      vertex 28.4 11.0392 3
    endloop
  endfacet
  facet normal 0 0 1
    outer loop
      vertex 28.4 11.0392 3
      vertex 24 23 3
      vertex 28.2695 10.952 3
    endloop
  endfacet
  facet normal 0 0 1
    outer loop
      vertex 28.2695 10.952 3
      vertex 24 23 3
      vertex 28.1515 10.8485 3
    endloop
  endfacet
  facet normal 0 0 1
    outer loop
      vertex 28.1515 10.8485 3
      vertex 24 23 3
      vertex 28.048 10.7305 3
    endloop
  endfacet
  facet normal -0 0 1
    outer loop
      vertex 9 23 3
      vertex 27.8409 10.3106 3
      vertex 24 23 3
    endloop
  endfacet
  facet normal 0 0 1
    outer loop
      vertex 27.8913 10.4592 3
      vertex 24 23 3
      vertex 27.8409 10.3106 3
    endloop
  endfacet
  facet normal 0 0 1
    outer loop
      vertex 27.9608 10.6 3
      vertex 24 23 3
      vertex 27.8913 10.4592 3
    endloop
  endfacet
  facet normal 0 0 1
    outer loop
      vertex 28.048 10.7305 3
      vertex 24 23 3
      vertex 27.9608 10.6 3
    endloop
  endfacet
  facet normal 0 0 1
    outer loop
      vertex 36.0818 25.1212 3
      vertex 24 30.8 3
      vertex 24 23 3
    endloop
  endfacet
  facet normal 0 0 1
    outer loop
      vertex 36.496 25.961 3
      vertex 24 30.8 3
      vertex 36.3215 25.7 3
    endloop
  endfacet
  facet normal 0 0 1
    outer loop
      vertex 36.7029 26.1971 3
      vertex 24 30.8 3
      vertex 36.496 25.961 3
    endloop
  endfacet
  facet normal 0 0 1
    outer loop
      vertex 36.939 26.404 3
      vertex 24 30.8 3
      vertex 36.7029 26.1971 3
    endloop
  endfacet
  facet normal 0 0 1
    outer loop
      vertex 37.2 26.5785 3
      vertex 24 30.8 3
      vertex 36.939 26.404 3
    endloop
  endfacet
  facet normal 0 0 1
    outer loop
      vertex 37.4816 26.7173 3
      vertex 24 30.8 3
      vertex 37.2 26.5785 3
    endloop
  endfacet
  facet normal 0 0 1
    outer loop
      vertex 37.7788 26.8182 3
      vertex 24 30.8 3
      vertex 37.4816 26.7173 3
    endloop
  endfacet
  facet normal -0 0 1
    outer loop
      vertex 6 35 3
      vertex 24 30.8 3
      vertex 55 35 3
    endloop
  endfacet
  facet normal 0 0 1
    outer loop
      vertex 9 30.8 3
      vertex 6 35 3
      vertex 9 23 3
    endloop
  endfacet
  facet normal 0 0 1
    outer loop
      vertex 24 30.8 3
      vertex 6 35 3
      vertex 9 30.8 3
    endloop
  endfacet
  facet normal 0 0 1
    outer loop
      vertex 55 35 3
      vertex 58 42 3
      vertex 55 38 3
    endloop
  endfacet
  facet normal 0 0 1
    outer loop
      vertex 58 42 3
      vertex 3 38 3
      vertex 55 38 3
    endloop
  endfacet
  facet normal 0 0 1
    outer loop
      vertex 3 38 3
      vertex 0 42 3
      vertex 3 4 3
    endloop
  endfacet
  facet normal -0 0 1
    outer loop
      vertex 0 42 3
      vertex 3 38 3
      vertex 58 42 3
    endloop
  endfacet
  facet normal 0 0 1
    outer loop
      vertex 58 42 3
      vertex 55 35 3
      vertex 58 0 3
    endloop
  endfacet
  facet normal -0 0 1
    outer loop
      vertex 55 7 3
      vertex 58 0 3
      vertex 55 35 3
    endloop
  endfacet
  facet normal -0 0 1
    outer loop
      vertex 55 4 3
      vertex 58 0 3
      vertex 55 7 3
    endloop
  endfacet
  facet normal -0 0 1
    outer loop
      vertex 3 4 3
      vertex 58 0 3
      vertex 55 4 3
    endloop
  endfacet
  facet normal 0 0 1
    outer loop
      vertex 3 4 3
      vertex 0 0 3
      vertex 58 0 3
    endloop
  endfacet
  facet normal 0 0 1
    outer loop
      vertex 0 0 3
      vertex 3 4 3
      vertex 0 42 3
    endloop
  endfacet
  facet normal 0 0 1
    outer loop
      vertex 55 35 3
      vertex 46.1795 24.1867 3
      vertex 55 7 3
    endloop
  endfacet
  facet normal -0 0 1
    outer loop
      vertex 46.1182 23.8788 3
      vertex 55 7 3
      vertex 46.1795 24.1867 3
    endloop
  endfacet
  facet normal -0 0 1
    outer loop
      vertex 46.0173 23.5816 3
      vertex 55 7 3
      vertex 46.1182 23.8788 3
    endloop
  endfacet
  facet normal -0 0 1
    outer loop
      vertex 45.8785 23.3 3
      vertex 55 7 3
      vertex 46.0173 23.5816 3
    endloop
  endfacet
  facet normal -0 0 1
    outer loop
      vertex 45.704 23.039 3
      vertex 55 7 3
      vertex 45.8785 23.3 3
    endloop
  endfacet
  facet normal -0 0 1
    outer loop
      vertex 45.4971 22.8029 3
      vertex 55 7 3
      vertex 45.704 23.039 3
    endloop
  endfacet
  facet normal -0 0 1
    outer loop
      vertex 45.261 22.596 3
      vertex 55 7 3
      vertex 45.4971 22.8029 3
    endloop
  endfacet
  facet normal -0 0 1
    outer loop
      vertex 45 22.4215 3
      vertex 55 7 3
      vertex 45.261 22.596 3
    endloop
  endfacet
  facet normal -0 0 1
    outer loop
      vertex 44.7184 22.2827 3
      vertex 55 7 3
      vertex 45 22.4215 3
    endloop
  endfacet
  facet normal -0 0 1
    outer loop
      vertex 44.4212 22.1818 3
      vertex 55 7 3
      vertex 44.7184 22.2827 3
    endloop
  endfacet
  facet normal -0 0 1
    outer loop
      vertex 44.1133 22.1205 3
      vertex 55 7 3
      vertex 44.4212 22.1818 3
    endloop
  endfacet
  facet normal -0 0 1
    outer loop
      vertex 43.8 22.1 3
      vertex 55 7 3
      vertex 44.1133 22.1205 3
    endloop
  endfacet
  facet normal 0 0 1
    outer loop
      vertex 30.2 10 3
      vertex 43.8 22.1 3
      vertex 38.4 22.1 3
    endloop
  endfacet
  facet normal 0 0 1
    outer loop
      vertex 30.2 10 3
      vertex 38.4 22.1 3
      vertex 38.0867 22.1205 3
    endloop
  endfacet
  facet normal 0 0 1
    outer loop
      vertex 30.2 10 3
      vertex 38.0867 22.1205 3
      vertex 37.7788 22.1818 3
    endloop
  endfacet
  facet normal 0 0 1
    outer loop
      vertex 30.2 10 3
      vertex 37.7788 22.1818 3
      vertex 37.4816 22.2827 3
    endloop
  endfacet
  facet normal 0 0 1
    outer loop
      vertex 30.2 10 3
      vertex 37.4816 22.2827 3
      vertex 37.2 22.4215 3
    endloop
  endfacet
  facet normal 0 0 1
    outer loop
      vertex 30.2 10 3
      vertex 37.2 22.4215 3
      vertex 36.939 22.596 3
    endloop
  endfacet
  facet normal 0 0 1
    outer loop
      vertex 30.2 10 3
      vertex 36.0205 24.1867 3
      vertex 36 24.5 3
    endloop
  endfacet
  facet normal 0 0 1
    outer loop
      vertex 30.2 10 3
      vertex 36.0818 23.8788 3
      vertex 36.0205 24.1867 3
    endloop
  endfacet
  facet normal 0 0 1
    outer loop
      vertex 30.2 10 3
      vertex 36.1827 23.5816 3
      vertex 36.0818 23.8788 3
    endloop
  endfacet
  facet normal 0 0 1
    outer loop
      vertex 30.2 10 3
      vertex 36.3215 23.3 3
      vertex 36.1827 23.5816 3
    endloop
  endfacet
  facet normal 0 0 1
    outer loop
      vertex 30.2 10 3
      vertex 36.496 23.039 3
      vertex 36.3215 23.3 3
    endloop
  endfacet
  facet normal 0 0 1
    outer loop
      vertex 30.2 10 3
      vertex 36.7029 22.8029 3
      vertex 36.496 23.039 3
    endloop
  endfacet
  facet normal 0 0 1
    outer loop
      vertex 30.2 10 3
      vertex 36.939 22.596 3
      vertex 36.7029 22.8029 3
    endloop
  endfacet
  facet normal 0 0 1
    outer loop
      vertex 43.8 22.1 3
      vertex 30.2 10 3
      vertex 55 7 3
    endloop
  endfacet
  facet normal -0 0 1
    outer loop
      vertex 30.1897 9.84337 3
      vertex 55 7 3
      vertex 30.2 10 3
    endloop
  endfacet
  facet normal -0 0 1
    outer loop
      vertex 30.1591 9.68942 3
      vertex 55 7 3
      vertex 30.1897 9.84337 3
    endloop
  endfacet
  facet normal -0 0 1
    outer loop
      vertex 30.1087 9.54078 3
      vertex 55 7 3
      vertex 30.1591 9.68942 3
    endloop
  endfacet
  facet normal -0 0 1
    outer loop
      vertex 30.0392 9.4 3
      vertex 55 7 3
      vertex 30.1087 9.54078 3
    endloop
  endfacet
  facet normal -0 0 1
    outer loop
      vertex 29.952 9.26949 3
      vertex 55 7 3
      vertex 30.0392 9.4 3
    endloop
  endfacet
  facet normal -0 0 1
    outer loop
      vertex 29.8485 9.15147 3
      vertex 55 7 3
      vertex 29.952 9.26949 3
    endloop
  endfacet
  facet normal -0 0 1
    outer loop
      vertex 29.7305 9.04798 3
      vertex 55 7 3
      vertex 29.8485 9.15147 3
    endloop
  endfacet
  facet normal -0 0 1
    outer loop
      vertex 29.6 8.96077 3
      vertex 55 7 3
      vertex 29.7305 9.04798 3
    endloop
  endfacet
  facet normal -0 0 1
    outer loop
      vertex 29.4592 8.89134 3
      vertex 55 7 3
      vertex 29.6 8.96077 3
    endloop
  endfacet
  facet normal -0 0 1
    outer loop
      vertex 29.3106 8.84089 3
      vertex 55 7 3
      vertex 29.4592 8.89134 3
    endloop
  endfacet
  facet normal -0 0 1
    outer loop
      vertex 29.1566 8.81027 3
      vertex 55 7 3
      vertex 29.3106 8.84089 3
    endloop
  endfacet
  facet normal -0 0 1
    outer loop
      vertex 29 8.8 3
      vertex 55 7 3
      vertex 29.1566 8.81027 3
    endloop
  endfacet
  facet normal 0 0 1
    outer loop
      vertex 6 7 3
      vertex 29 8.8 3
      vertex 28.8434 8.81027 3
    endloop
  endfacet
  facet normal 0 0 1
    outer loop
      vertex 6 7 3
      vertex 27.8409 10.3106 3
      vertex 9 23 3
    endloop
  endfacet
  facet normal 0 0 1
    outer loop
      vertex 27.8409 10.3106 3
      vertex 6 7 3
      vertex 27.8103 10.1566 3
    endloop
  endfacet
  facet normal 0 0 1
    outer loop
      vertex 27.8103 10.1566 3
      vertex 6 7 3
      vertex 27.8 10 3
    endloop
  endfacet
  facet normal 0 0 1
    outer loop
      vertex 27.8 10 3
      vertex 6 7 3
      vertex 27.8103 9.84337 3
    endloop
  endfacet
  facet normal 0 0 1
    outer loop
      vertex 27.8103 9.84337 3
      vertex 6 7 3
      vertex 27.8409 9.68942 3
    endloop
  endfacet
  facet normal 0 0 1
    outer loop
      vertex 27.8409 9.68942 3
      vertex 6 7 3
      vertex 27.8913 9.54078 3
    endloop
  endfacet
  facet normal 0 0 1
    outer loop
      vertex 27.8913 9.54078 3
      vertex 6 7 3
      vertex 27.9608 9.4 3
    endloop
  endfacet
  facet normal 0 0 1
    outer loop
      vertex 27.9608 9.4 3
      vertex 6 7 3
      vertex 28.048 9.26949 3
    endloop
  endfacet
  facet normal 0 0 1
    outer loop
      vertex 28.048 9.26949 3
      vertex 6 7 3
      vertex 28.1515 9.15147 3
    endloop
  endfacet
  facet normal 0 0 1
    outer loop
      vertex 29 8.8 3
      vertex 6 7 3
      vertex 55 7 3
    endloop
  endfacet
  facet normal 0 0 1
    outer loop
      vertex 28.6894 8.84089 3
      vertex 6 7 3
      vertex 28.8434 8.81027 3
    endloop
  endfacet
  facet normal 0 0 1
    outer loop
      vertex 28.5408 8.89134 3
      vertex 6 7 3
      vertex 28.6894 8.84089 3
    endloop
  endfacet
  facet normal 0 0 1
    outer loop
      vertex 28.4 8.96077 3
      vertex 6 7 3
      vertex 28.5408 8.89134 3
    endloop
  endfacet
  facet normal 0 0 1
    outer loop
      vertex 28.2695 9.04798 3
      vertex 6 7 3
      vertex 28.4 8.96077 3
    endloop
  endfacet
  facet normal 0 0 1
    outer loop
      vertex 28.1515 9.15147 3
      vertex 6 7 3
      vertex 28.2695 9.04798 3
    endloop
  endfacet
  facet normal 0 0 1
    outer loop
      vertex 6 7 3
      vertex 9 23 3
      vertex 6 35 3
    endloop
  endfacet
  facet normal -0 0 -1
    outer loop
      vertex 27.8409 10.3106 0
      vertex 12.88 3.784 0
      vertex 24 23 0
    endloop
  endfacet
  facet normal 0 0 -1
    outer loop
      vertex 12.88 3.784 0
      vertex 9 23 0
      vertex 24 23 0
    endloop
  endfacet
  facet normal 0 0 -1
    outer loop
      vertex 0 0 0
      vertex 9 23 0
      vertex 7.12 3.784 0
    endloop
  endfacet
  facet normal 0 0 -1
    outer loop
      vertex 7.12 3.784 0
      vertex 9 23 0
      vertex 12.88 3.784 0
    endloop
  endfacet
  facet normal 0 0 -1
    outer loop
      vertex 46.1795 24.1867 0
      vertex 58 42 0
      vertex 58 0 0
    endloop
  endfacet
  facet normal 0 0 -1
    outer loop
      vertex 46.1795 24.8133 0
      vertex 58 42 0
      vertex 46.2 24.5 0
    endloop
  endfacet
  facet normal 0 0 -1
    outer loop
      vertex 58 42 0
      vertex 46.1795 24.1867 0
      vertex 46.2 24.5 0
    endloop
  endfacet
  facet normal 0 0 -1
    outer loop
      vertex 58 0 0
      vertex 46.1182 23.8788 0
      vertex 46.1795 24.1867 0
    endloop
  endfacet
  facet normal 0 0 -1
    outer loop
      vertex 58 0 0
      vertex 46.0173 23.5816 0
      vertex 46.1182 23.8788 0
    endloop
  endfacet
  facet normal 0 0 -1
    outer loop
      vertex 58 0 0
      vertex 45.8785 23.3 0
      vertex 46.0173 23.5816 0
    endloop
  endfacet
  facet normal 0 0 -1
    outer loop
      vertex 58 0 0
      vertex 45.704 23.039 0
      vertex 45.8785 23.3 0
    endloop
  endfacet
  facet normal 0 0 -1
    outer loop
      vertex 58 0 0
      vertex 45.4971 22.8029 0
      vertex 45.704 23.039 0
    endloop
  endfacet
  facet normal 0 0 -1
    outer loop
      vertex 58 0 0
      vertex 45.261 22.596 0
      vertex 45.4971 22.8029 0
    endloop
  endfacet
  facet normal 0 0 -1
    outer loop
      vertex 58 0 0
      vertex 45 22.4215 0
      vertex 45.261 22.596 0
    endloop
  endfacet
  facet normal 0 0 -1
    outer loop
      vertex 58 0 0
      vertex 44.7184 22.2827 0
      vertex 45 22.4215 0
    endloop
  endfacet
  facet normal 0 0 -1
    outer loop
      vertex 58 0 0
      vertex 44.4212 22.1818 0
      vertex 44.7184 22.2827 0
    endloop
  endfacet
  facet normal 0 0 -1
    outer loop
      vertex 58 0 0
      vertex 44.1133 22.1205 0
      vertex 44.4212 22.1818 0
    endloop
  endfacet
  facet normal 0 0 -1
    outer loop
      vertex 58 0 0
      vertex 43.8 22.1 0
      vertex 44.1133 22.1205 0
    endloop
  endfacet
  facet normal 0 0 -1
    outer loop
      vertex 30.1897 9.84337 0
      vertex 43.8 22.1 0
      vertex 58 0 0
    endloop
  endfacet
  facet normal 0 -0 -1
    outer loop
      vertex 30.2 10 0
      vertex 43.8 22.1 0
      vertex 30.1897 9.84337 0
    endloop
  endfacet
  facet normal 0 0 -1
    outer loop
      vertex 30.1897 10.1566 0
      vertex 43.8 22.1 0
      vertex 30.2 10 0
    endloop
  endfacet
  facet normal 0 0 -1
    outer loop
      vertex 30.1591 10.3106 0
      vertex 38.4 22.1 0
      vertex 30.1897 10.1566 0
    endloop
  endfacet
  facet normal 0 0 -1
    outer loop
      vertex 30.1087 10.4592 0
      vertex 38.4 22.1 0
      vertex 30.1591 10.3106 0
    endloop
  endfacet
  facet normal -0 0 -1
    outer loop
      vertex 38.4 22.1 0
      vertex 30.1087 10.4592 0
      vertex 38.0867 22.1205 0
    endloop
  endfacet
  facet normal 0 0 -1
    outer loop
      vertex 30.0392 10.6 0
      vertex 38.0867 22.1205 0
      vertex 30.1087 10.4592 0
    endloop
  endfacet
  facet normal 0 0 -1
    outer loop
      vertex 29.6 11.0392 0
      vertex 37.2 22.4215 0
      vertex 29.7305 10.952 0
    endloop
  endfacet
  facet normal -0 0 -1
    outer loop
      vertex 37.4816 22.2827 0
      vertex 29.7305 10.952 0
      vertex 37.2 22.4215 0
    endloop
  endfacet
  facet normal 0 0 -1
    outer loop
      vertex 29.7305 10.952 0
      vertex 37.4816 22.2827 0
      vertex 29.8485 10.8485 0
    endloop
  endfacet
  facet normal 0 0 -1
    outer loop
      vertex 29.8485 10.8485 0
      vertex 37.4816 22.2827 0
      vertex 29.952 10.7305 0
    endloop
  endfacet
  facet normal -0 0 -1
    outer loop
      vertex 37.7788 22.1818 0
      vertex 29.952 10.7305 0
      vertex 37.4816 22.2827 0
    endloop
  endfacet
  facet normal 0 0 -1
    outer loop
      vertex 29.952 10.7305 0
      vertex 37.7788 22.1818 0
      vertex 30.0392 10.6 0
    endloop
  endfacet
  facet normal -0 0 -1
    outer loop
      vertex 38.0867 22.1205 0
      vertex 30.0392 10.6 0
      vertex 37.7788 22.1818 0
    endloop
  endfacet
  facet normal -0 0 -1
    outer loop
      vertex 43.8 22.1 0
      vertex 30.1897 10.1566 0
      vertex 38.4 22.1 0
    endloop
  endfacet
  facet normal 0 0 -1
    outer loop
      vertex 58 0 0
      vertex 30.1591 9.68942 0
      vertex 30.1897 9.84337 0
    endloop
  endfacet
  facet normal 0 0 -1
    outer loop
      vertex 58 0 0
      vertex 30.1087 9.54078 0
      vertex 30.1591 9.68942 0
    endloop
  endfacet
  facet normal 0 0 -1
    outer loop
      vertex 58 0 0
      vertex 30.0392 9.4 0
      vertex 30.1087 9.54078 0
    endloop
  endfacet
  facet normal 0 0 -1
    outer loop
      vertex 58 0 0
      vertex 29.952 9.26949 0
      vertex 30.0392 9.4 0
    endloop
  endfacet
  facet normal 0 0 -1
    outer loop
      vertex 58 0 0
      vertex 29.8485 9.15147 0
      vertex 29.952 9.26949 0
    endloop
  endfacet
  facet normal 0 0 -1
    outer loop
      vertex 58 0 0
      vertex 29.7305 9.04798 0
      vertex 29.8485 9.15147 0
    endloop
  endfacet
  facet normal 0 0 -1
    outer loop
      vertex 58 0 0
      vertex 29.6 8.96077 0
      vertex 29.7305 9.04798 0
    endloop
  endfacet
  facet normal 0 0 -1
    outer loop
      vertex 58 0 0
      vertex 29.4592 8.89134 0
      vertex 29.6 8.96077 0
    endloop
  endfacet
  facet normal 0 0 -1
    outer loop
      vertex 58 0 0
      vertex 29.3106 8.84089 0
      vertex 29.4592 8.89134 0
    endloop
  endfacet
  facet normal 0 0 -1
    outer loop
      vertex 58 0 0
      vertex 29.1566 8.81027 0
      vertex 29.3106 8.84089 0
    endloop
  endfacet
  facet normal 0 0 -1
    outer loop
      vertex 12.88 2.2 0
      vertex 29.1566 8.81027 0
      vertex 58 0 0
    endloop
  endfacet
  facet normal 0 0 -1
    outer loop
      vertex 29.1566 8.81027 0
      vertex 12.88 2.2 0
      vertex 29 8.8 0
    endloop
  endfacet
  facet normal -0 0 -1
    outer loop
      vertex 29 8.8 0
      vertex 12.88 2.2 0
      vertex 28.8434 8.81027 0
    endloop
  endfacet
  facet normal -0 0 -1
    outer loop
      vertex 27.8409 9.68942 0
      vertex 12.88 3.784 0
      vertex 27.8103 9.84337 0
    endloop
  endfacet
  facet normal -0 0 -1
    outer loop
      vertex 27.8913 9.54078 0
      vertex 12.88 3.784 0
      vertex 27.8409 9.68942 0
    endloop
  endfacet
  facet normal -0 0 -1
    outer loop
      vertex 27.8103 9.84337 0
      vertex 12.88 3.784 0
      vertex 27.8 10 0
    endloop
  endfacet
  facet normal -0 0 -1
    outer loop
      vertex 27.9608 9.4 0
      vertex 12.88 3.784 0
      vertex 27.8913 9.54078 0
    endloop
  endfacet
  facet normal -0 0 -1
    outer loop
      vertex 28.048 9.26949 0
      vertex 12.88 3.784 0
      vertex 27.9608 9.4 0
    endloop
  endfacet
  facet normal -0 0 -1
    outer loop
      vertex 28.1515 9.15147 0
      vertex 12.88 3.784 0
      vertex 28.048 9.26949 0
    endloop
  endfacet
  facet normal 0 0 -1
    outer loop
      vertex 12.88 3.784 0
      vertex 28.1515 9.15147 0
      vertex 12.88 2.2 0
    endloop
  endfacet
  facet normal -0 0 -1
    outer loop
      vertex 28.2695 9.04798 0
      vertex 12.88 2.2 0
      vertex 28.1515 9.15147 0
    endloop
  endfacet
  facet normal -0 0 -1
    outer loop
      vertex 28.4 8.96077 0
      vertex 12.88 2.2 0
      vertex 28.2695 9.04798 0
    endloop
  endfacet
  facet normal -0 0 -1
    outer loop
      vertex 28.5408 8.89134 0
      vertex 12.88 2.2 0
      vertex 28.4 8.96077 0
    endloop
  endfacet
  facet normal -0 0 -1
    outer loop
      vertex 28.6894 8.84089 0
      vertex 12.88 2.2 0
      vertex 28.5408 8.89134 0
    endloop
  endfacet
  facet normal -0 0 -1
    outer loop
      vertex 28.8434 8.81027 0
      vertex 12.88 2.2 0
      vertex 28.6894 8.84089 0
    endloop
  endfacet
  facet normal 0 0 -1
    outer loop
      vertex 0 0 0
      vertex 12.88 2.2 0
      vertex 58 0 0
    endloop
  endfacet
  facet normal -0 0 -1
    outer loop
      vertex 7.12 2.2 0
      vertex 0 0 0
      vertex 7.12 3.784 0
    endloop
  endfacet
  facet normal -0 0 -1
    outer loop
      vertex 12.88 2.2 0
      vertex 0 0 0
      vertex 7.12 2.2 0
    endloop
  endfacet
  facet normal 0 0 -1
    outer loop
      vertex 50.88 39.8 0
      vertex 58 42 0
      vertex 50.88 38.216 0
    endloop
  endfacet
  facet normal 0 0 -1
    outer loop
      vertex 45.12 39.8 0
      vertex 58 42 0
      vertex 50.88 39.8 0
    endloop
  endfacet
  facet normal 0 0 -1
    outer loop
      vertex 44.4212 26.8182 0
      vertex 45.12 38.216 0
      vertex 44.7184 26.7173 0
    endloop
  endfacet
  facet normal 0 0 -1
    outer loop
      vertex 44.1133 26.8795 0
      vertex 45.12 38.216 0
      vertex 44.4212 26.8182 0
    endloop
  endfacet
  facet normal 0 0 -1
    outer loop
      vertex 43.8 26.9 0
      vertex 45.12 38.216 0
      vertex 44.1133 26.8795 0
    endloop
  endfacet
  facet normal 0 0 -1
    outer loop
      vertex 38.4 26.9 0
      vertex 45.12 38.216 0
      vertex 43.8 26.9 0
    endloop
  endfacet
  facet normal 0 0 -1
    outer loop
      vertex 38.0867 26.8795 0
      vertex 45.12 38.216 0
      vertex 38.4 26.9 0
    endloop
  endfacet
  facet normal 0 0 -1
    outer loop
      vertex 37.7788 26.8182 0
      vertex 45.12 38.216 0
      vertex 38.0867 26.8795 0
    endloop
  endfacet
  facet normal 0 0 -1
    outer loop
      vertex 37.4816 26.7173 0
      vertex 45.12 38.216 0
      vertex 37.7788 26.8182 0
    endloop
  endfacet
  facet normal 0 0 -1
    outer loop
      vertex 24 30.8 0
      vertex 45.12 38.216 0
      vertex 37.4816 26.7173 0
    endloop
  endfacet
  facet normal 0 0 -1
    outer loop
      vertex 24 30.8 0
      vertex 37.4816 26.7173 0
      vertex 37.2 26.5785 0
    endloop
  endfacet
  facet normal 0 0 -1
    outer loop
      vertex 24 30.8 0
      vertex 37.2 26.5785 0
      vertex 36.939 26.404 0
    endloop
  endfacet
  facet normal 0 0 -1
    outer loop
      vertex 24 30.8 0
      vertex 36.939 26.404 0
      vertex 36.7029 26.1971 0
    endloop
  endfacet
  facet normal 0 0 -1
    outer loop
      vertex 24 30.8 0
      vertex 36.7029 26.1971 0
      vertex 36.496 25.961 0
    endloop
  endfacet
  facet normal 0 0 -1
    outer loop
      vertex 24 30.8 0
      vertex 36.496 25.961 0
      vertex 36.3215 25.7 0
    endloop
  endfacet
  facet normal -0 0 -1
    outer loop
      vertex 37.2 22.4215 0
      vertex 29.6 11.0392 0
      vertex 36.939 22.596 0
    endloop
  endfacet
  facet normal 0 0 -1
    outer loop
      vertex 29.4592 11.1087 0
      vertex 36.939 22.596 0
      vertex 29.6 11.0392 0
    endloop
  endfacet
  facet normal -0 0 -1
    outer loop
      vertex 36.939 22.596 0
      vertex 29.4592 11.1087 0
      vertex 36.7029 22.8029 0
    endloop
  endfacet
  facet normal 0 0 -1
    outer loop
      vertex 29.3106 11.1591 0
      vertex 36.7029 22.8029 0
      vertex 29.4592 11.1087 0
    endloop
  endfacet
  facet normal -0 0 -1
    outer loop
      vertex 36.7029 22.8029 0
      vertex 29.3106 11.1591 0
      vertex 36.496 23.039 0
    endloop
  endfacet
  facet normal 0 0 -1
    outer loop
      vertex 29.1566 11.1897 0
      vertex 36.496 23.039 0
      vertex 29.3106 11.1591 0
    endloop
  endfacet
  facet normal 0 0 -1
    outer loop
      vertex 24 23 0
      vertex 36.496 23.039 0
      vertex 29.1566 11.1897 0
    endloop
  endfacet
  facet normal -0 0 -1
    outer loop
      vertex 36.496 23.039 0
      vertex 24 23 0
      vertex 36.3215 23.3 0
    endloop
  endfacet
  facet normal -0 0 -1
    outer loop
      vertex 36.3215 23.3 0
      vertex 24 23 0
      vertex 36.1827 23.5816 0
    endloop
  endfacet
  facet normal -0 0 -1
    outer loop
      vertex 36.1827 23.5816 0
      vertex 24 23 0
      vertex 36.0818 23.8788 0
    endloop
  endfacet
  facet normal -0 0 -1
    outer loop
      vertex 36.0818 23.8788 0
      vertex 24 23 0
      vertex 36.0205 24.1867 0
    endloop
  endfacet
  facet normal -0 0 -1
    outer loop
      vertex 36 24.5 0
      vertex 24 23 0
      vertex 36.0205 24.8133 0
    endloop
  endfacet
  facet normal -0 0 -1
    outer loop
      vertex 36.0205 24.8133 0
      vertex 24 23 0
      vertex 36.0818 25.1212 0
    endloop
  endfacet
  facet normal -0 0 -1
    outer loop
      vertex 36.0205 24.1867 0
      vertex 24 23 0
      vertex 36 24.5 0
    endloop
  endfacet
  facet normal 0 0 -1
    outer loop
      vertex 24 30.8 0
      vertex 36.0818 25.1212 0
      vertex 24 23 0
    endloop
  endfacet
  facet normal 0 0 -1
    outer loop
      vertex 24 23 0
      vertex 29.1566 11.1897 0
      vertex 29 11.2 0
    endloop
  endfacet
  facet normal 0 0 -1
    outer loop
      vertex 24 23 0
      vertex 29 11.2 0
      vertex 28.8434 11.1897 0
    endloop
  endfacet
  facet normal 0 0 -1
    outer loop
      vertex 24 23 0
      vertex 28.8434 11.1897 0
      vertex 28.6894 11.1591 0
    endloop
  endfacet
  facet normal 0 0 -1
    outer loop
      vertex 24 23 0
      vertex 28.6894 11.1591 0
      vertex 28.5408 11.1087 0
    endloop
  endfacet
  facet normal 0 0 -1
    outer loop
      vertex 24 23 0
      vertex 28.5408 11.1087 0
      vertex 28.4 11.0392 0
    endloop
  endfacet
  facet normal 0 0 -1
    outer loop
      vertex 24 23 0
      vertex 28.4 11.0392 0
      vertex 28.2695 10.952 0
    endloop
  endfacet
  facet normal 0 0 -1
    outer loop
      vertex 24 23 0
      vertex 28.2695 10.952 0
      vertex 28.1515 10.8485 0
    endloop
  endfacet
  facet normal 0 0 -1
    outer loop
      vertex 24 23 0
      vertex 28.1515 10.8485 0
      vertex 28.048 10.7305 0
    endloop
  endfacet
  facet normal 0 0 -1
    outer loop
      vertex 24 23 0
      vertex 28.048 10.7305 0
      vertex 27.9608 10.6 0
    endloop
  endfacet
  facet normal 0 0 -1
    outer loop
      vertex 12.88 3.784 0
      vertex 27.8103 10.1566 0
      vertex 27.8 10 0
    endloop
  endfacet
  facet normal 0 0 -1
    outer loop
      vertex 12.88 3.784 0
      vertex 27.8409 10.3106 0
      vertex 27.8103 10.1566 0
    endloop
  endfacet
  facet normal 0 0 -1
    outer loop
      vertex 24 23 0
      vertex 27.8913 10.4592 0
      vertex 27.8409 10.3106 0
    endloop
  endfacet
  facet normal 0 0 -1
    outer loop
      vertex 24 23 0
      vertex 27.9608 10.6 0
      vertex 27.8913 10.4592 0
    endloop
  endfacet
  facet normal 0 0 -1
    outer loop
      vertex 36.0818 25.1212 0
      vertex 24 30.8 0
      vertex 36.1827 25.4184 0
    endloop
  endfacet
  facet normal 0 0 -1
    outer loop
      vertex 36.1827 25.4184 0
      vertex 24 30.8 0
      vertex 36.3215 25.7 0
    endloop
  endfacet
  facet normal -0 0 -1
    outer loop
      vertex 45.12 38.216 0
      vertex 24 30.8 0
      vertex 45.12 39.8 0
    endloop
  endfacet
  facet normal 0 0 -1
    outer loop
      vertex 0 42 0
      vertex 24 30.8 0
      vertex 9 30.8 0
    endloop
  endfacet
  facet normal 0 0 -1
    outer loop
      vertex 0 42 0
      vertex 9 23 0
      vertex 0 0 0
    endloop
  endfacet
  facet normal 0 0 -1
    outer loop
      vertex 45.12 39.8 0
      vertex 0 42 0
      vertex 58 42 0
    endloop
  endfacet
  facet normal 0 0 -1
    outer loop
      vertex 24 30.8 0
      vertex 0 42 0
      vertex 45.12 39.8 0
    endloop
  endfacet
  facet normal 0 0 -1
    outer loop
      vertex 9 23 0
      vertex 0 42 0
      vertex 9 30.8 0
    endloop
  endfacet
  facet normal 0 0 -1
    outer loop
      vertex 58 42 0
      vertex 46.1795 24.8133 0
      vertex 50.88 38.216 0
    endloop
  endfacet
  facet normal 0 0 -1
    outer loop
      vertex 46.1182 25.1212 0
      vertex 50.88 38.216 0
      vertex 46.1795 24.8133 0
    endloop
  endfacet
  facet normal 0 0 -1
    outer loop
      vertex 46.0173 25.4184 0
      vertex 50.88 38.216 0
      vertex 46.1182 25.1212 0
    endloop
  endfacet
  facet normal 0 0 -1
    outer loop
      vertex 45.8785 25.7 0
      vertex 50.88 38.216 0
      vertex 46.0173 25.4184 0
    endloop
  endfacet
  facet normal 0 0 -1
    outer loop
      vertex 45.704 25.961 0
      vertex 50.88 38.216 0
      vertex 45.8785 25.7 0
    endloop
  endfacet
  facet normal 0 0 -1
    outer loop
      vertex 45.4971 26.1971 0
      vertex 50.88 38.216 0
      vertex 45.704 25.961 0
    endloop
  endfacet
  facet normal 0 0 -1
    outer loop
      vertex 45.261 26.404 0
      vertex 50.88 38.216 0
      vertex 45.4971 26.1971 0
    endloop
  endfacet
  facet normal 0 0 -1
    outer loop
      vertex 45 26.5785 0
      vertex 50.88 38.216 0
      vertex 45.261 26.404 0
    endloop
  endfacet
  facet normal 0 0 -1
    outer loop
      vertex 44.7184 26.7173 0
      vertex 45.12 38.216 0
      vertex 45 26.5785 0
    endloop
  endfacet
  facet normal -0 0 -1
    outer loop
      vertex 50.88 38.216 0
      vertex 45 26.5785 0
      vertex 45.12 38.216 0
    endloop
  endfacet
  facet normal -1 0 0
    outer loop
      vertex 0 0 0
      vertex 0 42 3
      vertex 0 42 0
    endloop
  endfacet
  facet normal -1 -0 0
    outer loop
      vertex 0 42 3
      vertex 0 0 0
      vertex 0 0 3
    endloop
  endfacet
  facet normal 0 1 -0
    outer loop
      vertex 58 42 0
      vertex 0 42 3
      vertex 58 42 3
    endloop
  endfacet
  facet normal 0 1 0
    outer loop
      vertex 0 42 3
      vertex 58 42 0
      vertex 0 42 0
    endloop
  endfacet
  facet normal 0 -1 0
    outer loop
      vertex 0 0 0
      vertex 58 0 3
      vertex 0 0 3
    endloop
  endfacet
  facet normal 0 -1 -0
    outer loop
      vertex 58 0 3
      vertex 0 0 0
      vertex 58 0 0
    endloop
  endfacet
  facet normal 1 -0 0
    outer loop
      vertex 55 4 15
      vertex 55 7 3
      vertex 55 7 15
    endloop
  endfacet
  facet normal 1 0 0
    outer loop
      vertex 55 7 3
      vertex 55 4 15
      vertex 55 4 3
    endloop
  endfacet
  facet normal 0 0 1
    outer loop
      vertex 55 38 15
      vertex 6 35 15
      vertex 55 35 15
    endloop
  endfacet
  facet normal 0 0 1
    outer loop
      vertex 6 35 15
      vertex 3 38 15
      vertex 6 7 15
    endloop
  endfacet
  facet normal -0 0 1
    outer loop
      vertex 3 38 15
      vertex 6 35 15
      vertex 55 38 15
    endloop
  endfacet
  facet normal -0 0 1
    outer loop
      vertex 6 7 15
      vertex 55 4 15
      vertex 55 7 15
    endloop
  endfacet
  facet normal 0 0 1
    outer loop
      vertex 6 7 15
      vertex 3 4 15
      vertex 55 4 15
    endloop
  endfacet
  facet normal 0 0 1
    outer loop
      vertex 3 4 15
      vertex 6 7 15
      vertex 3 38 15
    endloop
  endfacet
  facet normal -1 0 0
    outer loop
      vertex 3 4 3
      vertex 3 38 15
      vertex 3 38 3
    endloop
  endfacet
  facet normal -1 -0 0
    outer loop
      vertex 3 38 15
      vertex 3 4 3
      vertex 3 4 15
    endloop
  endfacet
  facet normal 0 1 -0
    outer loop
      vertex 55 7 3
      vertex 6 7 15
      vertex 55 7 15
    endloop
  endfacet
  facet normal 0 1 0
    outer loop
      vertex 6 7 15
      vertex 55 7 3
      vertex 6 7 3
    endloop
  endfacet
  facet normal 0 -1 0
    outer loop
      vertex 3 4 3
      vertex 55 4 15
      vertex 3 4 15
    endloop
  endfacet
  facet normal 0 -1 -0
    outer loop
      vertex 55 4 15
      vertex 3 4 3
      vertex 55 4 3
    endloop
  endfacet
  facet normal 1 -0 0
    outer loop
      vertex 55 35 15
      vertex 55 38 3
      vertex 55 38 15
    endloop
  endfacet
  facet normal 1 0 0
    outer loop
      vertex 55 38 3
      vertex 55 35 15
      vertex 55 35 3
    endloop
  endfacet
  facet normal 0 1 -0
    outer loop
      vertex 55 38 3
      vertex 3 38 15
      vertex 55 38 15
    endloop
  endfacet
  facet normal 0 1 0
    outer loop
      vertex 3 38 15
      vertex 55 38 3
      vertex 3 38 3
    endloop
  endfacet
  facet normal 0 -1 0
    outer loop
      vertex 6 35 3
      vertex 55 35 15
      vertex 6 35 15
    endloop
  endfacet
  facet normal 0 -1 -0
    outer loop
      vertex 55 35 15
      vertex 6 35 3
      vertex 55 35 3
    endloop
  endfacet
  facet normal 1 -0 0
    outer loop
      vertex 6 7 15
      vertex 6 35 3
      vertex 6 35 15
    endloop
  endfacet
  facet normal 1 0 0
    outer loop
      vertex 6 35 3
      vertex 6 7 15
      vertex 6 7 3
    endloop
  endfacet
  facet normal -1 0 0
    outer loop
      vertex 24 23 0
      vertex 24 30.8 3
      vertex 24 30.8 0
    endloop
  endfacet
  facet normal -1 -0 0
    outer loop
      vertex 24 30.8 3
      vertex 24 23 0
      vertex 24 23 3
    endloop
  endfacet
  facet normal 1 -0 0
    outer loop
      vertex 9 23 3
      vertex 9 30.8 0
      vertex 9 30.8 3
    endloop
  endfacet
  facet normal 1 0 0
    outer loop
      vertex 9 30.8 0
      vertex 9 23 3
      vertex 9 23 0
    endloop
  endfacet
  facet normal 0 -1 0
    outer loop
      vertex 9 30.8 0
      vertex 24 30.8 3
      vertex 9 30.8 3
    endloop
  endfacet
  facet normal 0 -1 -0
    outer loop
      vertex 24 30.8 3
      vertex 9 30.8 0
      vertex 24 30.8 0
    endloop
  endfacet
  facet normal 0 1 -0
    outer loop
      vertex 24 23 0
      vertex 9 23 3
      vertex 24 23 3
    endloop
  endfacet
  facet normal 0 1 0
    outer loop
      vertex 9 23 3
      vertex 24 23 0
      vertex 9 23 0
    endloop
  endfacet
  facet normal 0.0652929 -0.997866 0
    outer loop
      vertex 38.0867 26.8795 0
      vertex 38.4 26.9 3
      vertex 38.0867 26.8795 3
    endloop
  endfacet
  facet normal 0.0652929 -0.997866 0
    outer loop
      vertex 38.4 26.9 3
      vertex 38.0867 26.8795 0
      vertex 38.4 26.9 0
    endloop
  endfacet
  facet normal 0.44211 -0.896961 0
    outer loop
      vertex 37.2 26.5785 0
      vertex 37.4816 26.7173 3
      vertex 37.2 26.5785 3
    endloop
  endfacet
  facet normal 0.44211 -0.896961 0
    outer loop
      vertex 37.4816 26.7173 3
      vertex 37.2 26.5785 0
      vertex 37.4816 26.7173 0
    endloop
  endfacet
  facet normal -0.555802 0.831315 0
    outer loop
      vertex 45.261 22.596 0
      vertex 45 22.4215 3
      vertex 45.261 22.596 3
    endloop
  endfacet
  facet normal -0.555802 0.831315 0
    outer loop
      vertex 45 22.4215 3
      vertex 45.261 22.596 0
      vertex 45 22.4215 0
    endloop
  endfacet
  facet normal -0.0652929 -0.997866 0
    outer loop
      vertex 43.8 26.9 0
      vertex 44.1133 26.8795 3
      vertex 43.8 26.9 3
    endloop
  endfacet
  facet normal -0.0652929 -0.997866 -0
    outer loop
      vertex 44.1133 26.8795 3
      vertex 43.8 26.9 0
      vertex 44.1133 26.8795 0
    endloop
  endfacet
  facet normal -0.896961 -0.44211 0
    outer loop
      vertex 46.0173 25.4184 0
      vertex 45.8785 25.7 3
      vertex 45.8785 25.7 0
    endloop
  endfacet
  facet normal -0.896961 -0.44211 0
    outer loop
      vertex 45.8785 25.7 3
      vertex 46.0173 25.4184 0
      vertex 46.0173 25.4184 3
    endloop
  endfacet
  facet normal 0.752083 -0.659068 0
    outer loop
      vertex 36.496 25.961 3
      vertex 36.7029 26.1971 0
      vertex 36.7029 26.1971 3
    endloop
  endfacet
  facet normal 0.752083 -0.659068 0
    outer loop
      vertex 36.7029 26.1971 0
      vertex 36.496 25.961 3
      vertex 36.496 25.961 0
    endloop
  endfacet
  facet normal 0.946916 -0.32148 0
    outer loop
      vertex 36.0818 25.1212 3
      vertex 36.1827 25.4184 0
      vertex 36.1827 25.4184 3
    endloop
  endfacet
  facet normal 0.946916 -0.32148 0
    outer loop
      vertex 36.1827 25.4184 0
      vertex 36.0818 25.1212 3
      vertex 36.0818 25.1212 0
    endloop
  endfacet
  facet normal 0.980752 -0.195258 0
    outer loop
      vertex 36.0205 24.8133 3
      vertex 36.0818 25.1212 0
      vertex 36.0818 25.1212 3
    endloop
  endfacet
  facet normal 0.980752 -0.195258 0
    outer loop
      vertex 36.0818 25.1212 0
      vertex 36.0205 24.8133 3
      vertex 36.0205 24.8133 0
    endloop
  endfacet
  facet normal 0.0652929 0.997866 -0
    outer loop
      vertex 38.4 22.1 0
      vertex 38.0867 22.1205 3
      vertex 38.4 22.1 3
    endloop
  endfacet
  facet normal 0.0652929 0.997866 0
    outer loop
      vertex 38.0867 22.1205 3
      vertex 38.4 22.1 0
      vertex 38.0867 22.1205 0
    endloop
  endfacet
  facet normal 0 1 -0
    outer loop
      vertex 43.8 22.1 0
      vertex 38.4 22.1 3
      vertex 43.8 22.1 3
    endloop
  endfacet
  facet normal 0 1 0
    outer loop
      vertex 38.4 22.1 3
      vertex 43.8 22.1 0
      vertex 38.4 22.1 0
    endloop
  endfacet
  facet normal 0.997866 0.0652929 0
    outer loop
      vertex 36.0205 24.1867 3
      vertex 36 24.5 0
      vertex 36 24.5 3
    endloop
  endfacet
  facet normal 0.997866 0.0652929 0
    outer loop
      vertex 36 24.5 0
      vertex 36.0205 24.1867 3
      vertex 36.0205 24.1867 0
    endloop
  endfacet
  facet normal -0.980752 0.195258 0
    outer loop
      vertex 46.1182 23.8788 0
      vertex 46.1795 24.1867 3
      vertex 46.1795 24.1867 0
    endloop
  endfacet
  facet normal -0.980752 0.195258 0
    outer loop
      vertex 46.1795 24.1867 3
      vertex 46.1182 23.8788 0
      vertex 46.1182 23.8788 3
    endloop
  endfacet
  facet normal 0.752083 0.659068 0
    outer loop
      vertex 36.7029 22.8029 3
      vertex 36.496 23.039 0
      vertex 36.496 23.039 3
    endloop
  endfacet
  facet normal 0.752083 0.659068 0
    outer loop
      vertex 36.496 23.039 0
      vertex 36.7029 22.8029 3
      vertex 36.7029 22.8029 0
    endloop
  endfacet
  facet normal -0.659068 -0.752083 0
    outer loop
      vertex 45.261 26.404 0
      vertex 45.4971 26.1971 3
      vertex 45.261 26.404 3
    endloop
  endfacet
  facet normal -0.659068 -0.752083 -0
    outer loop
      vertex 45.4971 26.1971 3
      vertex 45.261 26.404 0
      vertex 45.4971 26.1971 0
    endloop
  endfacet
  facet normal 0 -1 0
    outer loop
      vertex 38.4 26.9 0
      vertex 43.8 26.9 3
      vertex 38.4 26.9 3
    endloop
  endfacet
  facet normal 0 -1 -0
    outer loop
      vertex 43.8 26.9 3
      vertex 38.4 26.9 0
      vertex 43.8 26.9 0
    endloop
  endfacet
  facet normal 0.32148 -0.946916 0
    outer loop
      vertex 37.4816 26.7173 0
      vertex 37.7788 26.8182 3
      vertex 37.4816 26.7173 3
    endloop
  endfacet
  facet normal 0.32148 -0.946916 0
    outer loop
      vertex 37.7788 26.8182 3
      vertex 37.4816 26.7173 0
      vertex 37.7788 26.8182 0
    endloop
  endfacet
  facet normal 0.980752 0.195258 0
    outer loop
      vertex 36.0818 23.8788 3
      vertex 36.0205 24.1867 0
      vertex 36.0205 24.1867 3
    endloop
  endfacet
  facet normal 0.980752 0.195258 0
    outer loop
      vertex 36.0205 24.1867 0
      vertex 36.0818 23.8788 3
      vertex 36.0818 23.8788 0
    endloop
  endfacet
  facet normal 0.44211 0.896961 -0
    outer loop
      vertex 37.4816 22.2827 0
      vertex 37.2 22.4215 3
      vertex 37.4816 22.2827 3
    endloop
  endfacet
  facet normal 0.44211 0.896961 0
    outer loop
      vertex 37.2 22.4215 3
      vertex 37.4816 22.2827 0
      vertex 37.2 22.4215 0
    endloop
  endfacet
  facet normal 0.32148 0.946916 -0
    outer loop
      vertex 37.7788 22.1818 0
      vertex 37.4816 22.2827 3
      vertex 37.7788 22.1818 3
    endloop
  endfacet
  facet normal 0.32148 0.946916 0
    outer loop
      vertex 37.4816 22.2827 3
      vertex 37.7788 22.1818 0
      vertex 37.4816 22.2827 0
    endloop
  endfacet
  facet normal -0.32148 -0.946916 0
    outer loop
      vertex 44.4212 26.8182 0
      vertex 44.7184 26.7173 3
      vertex 44.4212 26.8182 3
    endloop
  endfacet
  facet normal -0.32148 -0.946916 -0
    outer loop
      vertex 44.7184 26.7173 3
      vertex 44.4212 26.8182 0
      vertex 44.7184 26.7173 0
    endloop
  endfacet
  facet normal 0.659068 0.752083 -0
    outer loop
      vertex 36.939 22.596 0
      vertex 36.7029 22.8029 3
      vertex 36.939 22.596 3
    endloop
  endfacet
  facet normal 0.659068 0.752083 0
    outer loop
      vertex 36.7029 22.8029 3
      vertex 36.939 22.596 0
      vertex 36.7029 22.8029 0
    endloop
  endfacet
  facet normal 0.896961 -0.44211 0
    outer loop
      vertex 36.1827 25.4184 3
      vertex 36.3215 25.7 0
      vertex 36.3215 25.7 3
    endloop
  endfacet
  facet normal 0.896961 -0.44211 0
    outer loop
      vertex 36.3215 25.7 0
      vertex 36.1827 25.4184 3
      vertex 36.1827 25.4184 0
    endloop
  endfacet
  facet normal -0.195258 0.980752 0
    outer loop
      vertex 44.4212 22.1818 0
      vertex 44.1133 22.1205 3
      vertex 44.4212 22.1818 3
    endloop
  endfacet
  facet normal -0.195258 0.980752 0
    outer loop
      vertex 44.1133 22.1205 3
      vertex 44.4212 22.1818 0
      vertex 44.1133 22.1205 0
    endloop
  endfacet
  facet normal -0.946916 0.32148 0
    outer loop
      vertex 46.0173 23.5816 0
      vertex 46.1182 23.8788 3
      vertex 46.1182 23.8788 0
    endloop
  endfacet
  facet normal -0.946916 0.32148 0
    outer loop
      vertex 46.1182 23.8788 3
      vertex 46.0173 23.5816 0
      vertex 46.0173 23.5816 3
    endloop
  endfacet
  facet normal -0.0652929 0.997866 0
    outer loop
      vertex 44.1133 22.1205 0
      vertex 43.8 22.1 3
      vertex 44.1133 22.1205 3
    endloop
  endfacet
  facet normal -0.0652929 0.997866 0
    outer loop
      vertex 43.8 22.1 3
      vertex 44.1133 22.1205 0
      vertex 43.8 22.1 0
    endloop
  endfacet
  facet normal -0.32148 0.946916 0
    outer loop
      vertex 44.7184 22.2827 0
      vertex 44.4212 22.1818 3
      vertex 44.7184 22.2827 3
    endloop
  endfacet
  facet normal -0.32148 0.946916 0
    outer loop
      vertex 44.4212 22.1818 3
      vertex 44.7184 22.2827 0
      vertex 44.4212 22.1818 0
    endloop
  endfacet
  facet normal -0.831315 -0.555802 0
    outer loop
      vertex 45.8785 25.7 0
      vertex 45.704 25.961 3
      vertex 45.704 25.961 0
    endloop
  endfacet
  facet normal -0.831315 -0.555802 0
    outer loop
      vertex 45.704 25.961 3
      vertex 45.8785 25.7 0
      vertex 45.8785 25.7 3
    endloop
  endfacet
  facet normal 0.946916 0.32148 0
    outer loop
      vertex 36.1827 23.5816 3
      vertex 36.0818 23.8788 0
      vertex 36.0818 23.8788 3
    endloop
  endfacet
  facet normal 0.946916 0.32148 0
    outer loop
      vertex 36.0818 23.8788 0
      vertex 36.1827 23.5816 3
      vertex 36.1827 23.5816 0
    endloop
  endfacet
  facet normal -0.997866 0.0652929 0
    outer loop
      vertex 46.1795 24.1867 0
      vertex 46.2 24.5 3
      vertex 46.2 24.5 0
    endloop
  endfacet
  facet normal -0.997866 0.0652929 0
    outer loop
      vertex 46.2 24.5 3
      vertex 46.1795 24.1867 0
      vertex 46.1795 24.1867 3
    endloop
  endfacet
  facet normal -0.980752 -0.195258 0
    outer loop
      vertex 46.1795 24.8133 0
      vertex 46.1182 25.1212 3
      vertex 46.1182 25.1212 0
    endloop
  endfacet
  facet normal -0.980752 -0.195258 0
    outer loop
      vertex 46.1182 25.1212 3
      vertex 46.1795 24.8133 0
      vertex 46.1795 24.8133 3
    endloop
  endfacet
  facet normal 0.555802 0.831315 -0
    outer loop
      vertex 37.2 22.4215 0
      vertex 36.939 22.596 3
      vertex 37.2 22.4215 3
    endloop
  endfacet
  facet normal 0.555802 0.831315 0
    outer loop
      vertex 36.939 22.596 3
      vertex 37.2 22.4215 0
      vertex 36.939 22.596 0
    endloop
  endfacet
  facet normal -0.831315 0.555802 0
    outer loop
      vertex 45.704 23.039 0
      vertex 45.8785 23.3 3
      vertex 45.8785 23.3 0
    endloop
  endfacet
  facet normal -0.831315 0.555802 0
    outer loop
      vertex 45.8785 23.3 3
      vertex 45.704 23.039 0
      vertex 45.704 23.039 3
    endloop
  endfacet
  facet normal 0.555802 -0.831315 0
    outer loop
      vertex 36.939 26.404 0
      vertex 37.2 26.5785 3
      vertex 36.939 26.404 3
    endloop
  endfacet
  facet normal 0.555802 -0.831315 0
    outer loop
      vertex 37.2 26.5785 3
      vertex 36.939 26.404 0
      vertex 37.2 26.5785 0
    endloop
  endfacet
  facet normal -0.946916 -0.32148 0
    outer loop
      vertex 46.1182 25.1212 0
      vertex 46.0173 25.4184 3
      vertex 46.0173 25.4184 0
    endloop
  endfacet
  facet normal -0.946916 -0.32148 0
    outer loop
      vertex 46.0173 25.4184 3
      vertex 46.1182 25.1212 0
      vertex 46.1182 25.1212 3
    endloop
  endfacet
  facet normal -0.195258 -0.980752 0
    outer loop
      vertex 44.1133 26.8795 0
      vertex 44.4212 26.8182 3
      vertex 44.1133 26.8795 3
    endloop
  endfacet
  facet normal -0.195258 -0.980752 -0
    outer loop
      vertex 44.4212 26.8182 3
      vertex 44.1133 26.8795 0
      vertex 44.4212 26.8182 0
    endloop
  endfacet
  facet normal 0.831315 0.555802 0
    outer loop
      vertex 36.496 23.039 3
      vertex 36.3215 23.3 0
      vertex 36.3215 23.3 3
    endloop
  endfacet
  facet normal 0.831315 0.555802 0
    outer loop
      vertex 36.3215 23.3 0
      vertex 36.496 23.039 3
      vertex 36.496 23.039 0
    endloop
  endfacet
  facet normal 0.195258 0.980752 -0
    outer loop
      vertex 38.0867 22.1205 0
      vertex 37.7788 22.1818 3
      vertex 38.0867 22.1205 3
    endloop
  endfacet
  facet normal 0.195258 0.980752 0
    outer loop
      vertex 37.7788 22.1818 3
      vertex 38.0867 22.1205 0
      vertex 37.7788 22.1818 0
    endloop
  endfacet
  facet normal -0.555802 -0.831315 0
    outer loop
      vertex 45 26.5785 0
      vertex 45.261 26.404 3
      vertex 45 26.5785 3
    endloop
  endfacet
  facet normal -0.555802 -0.831315 -0
    outer loop
      vertex 45.261 26.404 3
      vertex 45 26.5785 0
      vertex 45.261 26.404 0
    endloop
  endfacet
  facet normal 0.659068 -0.752083 0
    outer loop
      vertex 36.7029 26.1971 0
      vertex 36.939 26.404 3
      vertex 36.7029 26.1971 3
    endloop
  endfacet
  facet normal 0.659068 -0.752083 0
    outer loop
      vertex 36.939 26.404 3
      vertex 36.7029 26.1971 0
      vertex 36.939 26.404 0
    endloop
  endfacet
  facet normal 0.997866 -0.0652929 0
    outer loop
      vertex 36 24.5 3
      vertex 36.0205 24.8133 0
      vertex 36.0205 24.8133 3
    endloop
  endfacet
  facet normal 0.997866 -0.0652929 0
    outer loop
      vertex 36.0205 24.8133 0
      vertex 36 24.5 3
      vertex 36 24.5 0
    endloop
  endfacet
  facet normal 0.195258 -0.980752 0
    outer loop
      vertex 37.7788 26.8182 0
      vertex 38.0867 26.8795 3
      vertex 37.7788 26.8182 3
    endloop
  endfacet
  facet normal 0.195258 -0.980752 0
    outer loop
      vertex 38.0867 26.8795 3
      vertex 37.7788 26.8182 0
      vertex 38.0867 26.8795 0
    endloop
  endfacet
  facet normal -0.659068 0.752083 0
    outer loop
      vertex 45.4971 22.8029 0
      vertex 45.261 22.596 3
      vertex 45.4971 22.8029 3
    endloop
  endfacet
  facet normal -0.659068 0.752083 0
    outer loop
      vertex 45.261 22.596 3
      vertex 45.4971 22.8029 0
      vertex 45.261 22.596 0
    endloop
  endfacet
  facet normal -0.752083 0.659068 0
    outer loop
      vertex 45.4971 22.8029 0
      vertex 45.704 23.039 3
      vertex 45.704 23.039 0
    endloop
  endfacet
  facet normal -0.752083 0.659068 0
    outer loop
      vertex 45.704 23.039 3
      vertex 45.4971 22.8029 0
      vertex 45.4971 22.8029 3
    endloop
  endfacet
  facet normal 0.896961 0.44211 0
    outer loop
      vertex 36.3215 23.3 3
      vertex 36.1827 23.5816 0
      vertex 36.1827 23.5816 3
    endloop
  endfacet
  facet normal 0.896961 0.44211 0
    outer loop
      vertex 36.1827 23.5816 0
      vertex 36.3215 23.3 3
      vertex 36.3215 23.3 0
    endloop
  endfacet
  facet normal -0.44211 -0.896961 0
    outer loop
      vertex 44.7184 26.7173 0
      vertex 45 26.5785 3
      vertex 44.7184 26.7173 3
    endloop
  endfacet
  facet normal -0.44211 -0.896961 -0
    outer loop
      vertex 45 26.5785 3
      vertex 44.7184 26.7173 0
      vertex 45 26.5785 0
    endloop
  endfacet
  facet normal -0.44211 0.896961 0
    outer loop
      vertex 45 22.4215 0
      vertex 44.7184 22.2827 3
      vertex 45 22.4215 3
    endloop
  endfacet
  facet normal -0.44211 0.896961 0
    outer loop
      vertex 44.7184 22.2827 3
      vertex 45 22.4215 0
      vertex 44.7184 22.2827 0
    endloop
  endfacet
  facet normal -0.997866 -0.0652929 0
    outer loop
      vertex 46.2 24.5 0
      vertex 46.1795 24.8133 3
      vertex 46.1795 24.8133 0
    endloop
  endfacet
  facet normal -0.997866 -0.0652929 0
    outer loop
      vertex 46.1795 24.8133 3
      vertex 46.2 24.5 0
      vertex 46.2 24.5 3
    endloop
  endfacet
  facet normal -0.752083 -0.659068 0
    outer loop
      vertex 45.704 25.961 0
      vertex 45.4971 26.1971 3
      vertex 45.4971 26.1971 0
    endloop
  endfacet
  facet normal -0.752083 -0.659068 0
    outer loop
      vertex 45.4971 26.1971 3
      vertex 45.704 25.961 0
      vertex 45.704 25.961 3
    endloop
  endfacet
  facet normal -0.896961 0.44211 0
    outer loop
      vertex 45.8785 23.3 0
      vertex 46.0173 23.5816 3
      vertex 46.0173 23.5816 0
    endloop
  endfacet
  facet normal -0.896961 0.44211 0
    outer loop
      vertex 46.0173 23.5816 3
      vertex 45.8785 23.3 0
      vertex 45.8785 23.3 3
    endloop
  endfacet
  facet normal 0.831315 -0.555802 0
    outer loop
      vertex 36.3215 25.7 3
      vertex 36.496 25.961 0
      vertex 36.496 25.961 3
    endloop
  endfacet
  facet normal 0.831315 -0.555802 0
    outer loop
      vertex 36.496 25.961 0
      vertex 36.3215 25.7 3
      vertex 36.3215 25.7 0
    endloop
  endfacet
  facet normal -0.32148 0.946916 0
    outer loop
      vertex 29.4592 8.89134 0
      vertex 29.3106 8.84089 3
      vertex 29.4592 8.89134 3
    endloop
  endfacet
  facet normal -0.32148 0.946916 0
    outer loop
      vertex 29.3106 8.84089 3
      vertex 29.4592 8.89134 0
      vertex 29.3106 8.84089 0
    endloop
  endfacet
  facet normal 0.980825 -0.194891 0
    outer loop
      vertex 27.8103 10.1566 3
      vertex 27.8409 10.3106 0
      vertex 27.8409 10.3106 3
    endloop
  endfacet
  facet normal 0.980825 -0.194891 0
    outer loop
      vertex 27.8409 10.3106 0
      vertex 27.8103 10.1566 3
      vertex 27.8103 10.1566 0
    endloop
  endfacet
  facet normal -0.442622 -0.896708 0
    outer loop
      vertex 29.4592 11.1087 0
      vertex 29.6 11.0392 3
      vertex 29.4592 11.1087 3
    endloop
  endfacet
  facet normal -0.442622 -0.896708 -0
    outer loop
      vertex 29.6 11.0392 3
      vertex 29.4592 11.1087 0
      vertex 29.6 11.0392 0
    endloop
  endfacet
  facet normal 0.194891 -0.980825 0
    outer loop
      vertex 28.6894 11.1591 0
      vertex 28.8434 11.1897 3
      vertex 28.6894 11.1591 3
    endloop
  endfacet
  facet normal 0.194891 -0.980825 0
    outer loop
      vertex 28.8434 11.1897 3
      vertex 28.6894 11.1591 0
      vertex 28.8434 11.1897 0
    endloop
  endfacet
  facet normal -0.831462 -0.555582 0
    outer loop
      vertex 30.0392 10.6 0
      vertex 29.952 10.7305 3
      vertex 29.952 10.7305 0
    endloop
  endfacet
  facet normal -0.831462 -0.555582 0
    outer loop
      vertex 29.952 10.7305 3
      vertex 30.0392 10.6 0
      vertex 30.0392 10.6 3
    endloop
  endfacet
  facet normal -0.896708 -0.442622 0
    outer loop
      vertex 30.1087 10.4592 0
      vertex 30.0392 10.6 3
      vertex 30.0392 10.6 0
    endloop
  endfacet
  facet normal -0.896708 -0.442622 0
    outer loop
      vertex 30.0392 10.6 3
      vertex 30.1087 10.4592 0
      vertex 30.1087 10.4592 3
    endloop
  endfacet
  facet normal -0.442264 0.896885 0
    outer loop
      vertex 29.6 8.96077 0
      vertex 29.4592 8.89134 3
      vertex 29.6 8.96077 3
    endloop
  endfacet
  facet normal -0.442264 0.896885 0
    outer loop
      vertex 29.4592 8.89134 3
      vertex 29.6 8.96077 0
      vertex 29.4592 8.89134 0
    endloop
  endfacet
  facet normal 0.65937 0.751818 -0
    outer loop
      vertex 28.2695 9.04798 0
      vertex 28.1515 9.15147 3
      vertex 28.2695 9.04798 3
    endloop
  endfacet
  facet normal 0.65937 0.751818 0
    outer loop
      vertex 28.1515 9.15147 3
      vertex 28.2695 9.04798 0
      vertex 28.1515 9.15147 0
    endloop
  endfacet
  facet normal 0.997845 0.0656183 0
    outer loop
      vertex 27.8103 9.84337 3
      vertex 27.8 10 0
      vertex 27.8 10 3
    endloop
  endfacet
  facet normal 0.997845 0.0656183 0
    outer loop
      vertex 27.8 10 0
      vertex 27.8103 9.84337 3
      vertex 27.8103 9.84337 0
    endloop
  endfacet
  facet normal -0.751787 -0.659406 0
    outer loop
      vertex 29.952 10.7305 0
      vertex 29.8485 10.8485 3
      vertex 29.8485 10.8485 0
    endloop
  endfacet
  facet normal -0.751787 -0.659406 0
    outer loop
      vertex 29.8485 10.8485 3
      vertex 29.952 10.7305 0
      vertex 29.952 10.7305 3
    endloop
  endfacet
  facet normal -0.831481 0.555553 0
    outer loop
      vertex 29.952 9.26949 0
      vertex 30.0392 9.4 3
      vertex 30.0392 9.4 0
    endloop
  endfacet
  facet normal -0.831481 0.555553 0
    outer loop
      vertex 30.0392 9.4 3
      vertex 29.952 9.26949 0
      vertex 29.952 9.26949 3
    endloop
  endfacet
  facet normal -0.980813 0.194952 0
    outer loop
      vertex 30.1591 9.68942 0
      vertex 30.1897 9.84337 3
      vertex 30.1897 9.84337 0
    endloop
  endfacet
  facet normal -0.980813 0.194952 0
    outer loop
      vertex 30.1897 9.84337 3
      vertex 30.1591 9.68942 0
      vertex 30.1591 9.68942 3
    endloop
  endfacet
  facet normal -0.980825 -0.194891 0
    outer loop
      vertex 30.1897 10.1566 0
      vertex 30.1591 10.3106 3
      vertex 30.1591 10.3106 0
    endloop
  endfacet
  facet normal -0.980825 -0.194891 0
    outer loop
      vertex 30.1591 10.3106 3
      vertex 30.1897 10.1566 0
      vertex 30.1897 10.1566 3
    endloop
  endfacet
  facet normal 0.0654405 0.997856 -0
    outer loop
      vertex 29 8.8 0
      vertex 28.8434 8.81027 3
      vertex 29 8.8 3
    endloop
  endfacet
  facet normal 0.0654405 0.997856 0
    outer loop
      vertex 28.8434 8.81027 3
      vertex 29 8.8 0
      vertex 28.8434 8.81027 0
    endloop
  endfacet
  facet normal 0.94704 0.321117 0
    outer loop
      vertex 27.8913 9.54078 3
      vertex 27.8409 9.68942 0
      vertex 27.8409 9.68942 3
    endloop
  endfacet
  facet normal 0.94704 0.321117 0
    outer loop
      vertex 27.8409 9.68942 0
      vertex 27.8913 9.54078 3
      vertex 27.8913 9.54078 0
    endloop
  endfacet
  facet normal -0.997844 -0.0656309 0
    outer loop
      vertex 30.2 10 0
      vertex 30.1897 10.1566 3
      vertex 30.1897 10.1566 0
    endloop
  endfacet
  facet normal -0.997844 -0.0656309 0
    outer loop
      vertex 30.1897 10.1566 3
      vertex 30.2 10 0
      vertex 30.2 10 3
    endloop
  endfacet
  facet normal -0.195014 0.980801 0
    outer loop
      vertex 29.3106 8.84089 0
      vertex 29.1566 8.81027 3
      vertex 29.3106 8.84089 3
    endloop
  endfacet
  facet normal -0.195014 0.980801 0
    outer loop
      vertex 29.1566 8.81027 3
      vertex 29.3106 8.84089 0
      vertex 29.1566 8.81027 0
    endloop
  endfacet
  facet normal 0.659406 -0.751787 0
    outer loop
      vertex 28.1515 10.8485 0
      vertex 28.2695 10.952 3
      vertex 28.1515 10.8485 3
    endloop
  endfacet
  facet normal 0.659406 -0.751787 0
    outer loop
      vertex 28.2695 10.952 3
      vertex 28.1515 10.8485 0
      vertex 28.2695 10.952 0
    endloop
  endfacet
  facet normal 0.751787 -0.659406 0
    outer loop
      vertex 28.048 10.7305 3
      vertex 28.1515 10.8485 0
      vertex 28.1515 10.8485 3
    endloop
  endfacet
  facet normal 0.751787 -0.659406 0
    outer loop
      vertex 28.1515 10.8485 0
      vertex 28.048 10.7305 3
      vertex 28.048 10.7305 0
    endloop
  endfacet
  facet normal -0.659406 -0.751787 0
    outer loop
      vertex 29.7305 10.952 0
      vertex 29.8485 10.8485 3
      vertex 29.7305 10.952 3
    endloop
  endfacet
  facet normal -0.659406 -0.751787 -0
    outer loop
      vertex 29.8485 10.8485 3
      vertex 29.7305 10.952 0
      vertex 29.8485 10.8485 0
    endloop
  endfacet
  facet normal -0.94704 0.321117 0
    outer loop
      vertex 30.1087 9.54078 0
      vertex 30.1591 9.68942 3
      vertex 30.1591 9.68942 0
    endloop
  endfacet
  facet normal -0.94704 0.321117 0
    outer loop
      vertex 30.1591 9.68942 3
      vertex 30.1087 9.54078 0
      vertex 30.1087 9.54078 3
    endloop
  endfacet
  facet normal -0.555582 -0.831462 0
    outer loop
      vertex 29.6 11.0392 0
      vertex 29.7305 10.952 3
      vertex 29.6 11.0392 3
    endloop
  endfacet
  facet normal -0.555582 -0.831462 -0
    outer loop
      vertex 29.7305 10.952 3
      vertex 29.6 11.0392 0
      vertex 29.7305 10.952 0
    endloop
  endfacet
  facet normal -0.947013 -0.321194 0
    outer loop
      vertex 30.1591 10.3106 0
      vertex 30.1087 10.4592 3
      vertex 30.1087 10.4592 0
    endloop
  endfacet
  facet normal -0.947013 -0.321194 0
    outer loop
      vertex 30.1087 10.4592 3
      vertex 30.1591 10.3106 0
      vertex 30.1591 10.3106 3
    endloop
  endfacet
  facet normal 0.321194 -0.947013 0
    outer loop
      vertex 28.5408 11.1087 0
      vertex 28.6894 11.1591 3
      vertex 28.5408 11.1087 3
    endloop
  endfacet
  facet normal 0.321194 -0.947013 0
    outer loop
      vertex 28.6894 11.1591 3
      vertex 28.5408 11.1087 0
      vertex 28.6894 11.1591 0
    endloop
  endfacet
  facet normal -0.0654405 0.997856 0
    outer loop
      vertex 29.1566 8.81027 0
      vertex 29 8.8 3
      vertex 29.1566 8.81027 3
    endloop
  endfacet
  facet normal -0.0654405 0.997856 0
    outer loop
      vertex 29 8.8 3
      vertex 29.1566 8.81027 0
      vertex 29 8.8 0
    endloop
  endfacet
  facet normal -0.321194 -0.947013 0
    outer loop
      vertex 29.3106 11.1591 0
      vertex 29.4592 11.1087 3
      vertex 29.3106 11.1591 3
    endloop
  endfacet
  facet normal -0.321194 -0.947013 -0
    outer loop
      vertex 29.4592 11.1087 3
      vertex 29.3106 11.1591 0
      vertex 29.4592 11.1087 0
    endloop
  endfacet
  facet normal 0.555582 -0.831462 0
    outer loop
      vertex 28.2695 10.952 0
      vertex 28.4 11.0392 3
      vertex 28.2695 10.952 3
    endloop
  endfacet
  facet normal 0.555582 -0.831462 0
    outer loop
      vertex 28.4 11.0392 3
      vertex 28.2695 10.952 0
      vertex 28.4 11.0392 0
    endloop
  endfacet
  facet normal -0.997845 0.0656183 0
    outer loop
      vertex 30.1897 9.84337 0
      vertex 30.2 10 3
      vertex 30.2 10 0
    endloop
  endfacet
  facet normal -0.997845 0.0656183 0
    outer loop
      vertex 30.2 10 3
      vertex 30.1897 9.84337 0
      vertex 30.1897 9.84337 3
    endloop
  endfacet
  facet normal -0.751842 0.659343 0
    outer loop
      vertex 29.8485 9.15147 0
      vertex 29.952 9.26949 3
      vertex 29.952 9.26949 0
    endloop
  endfacet
  facet normal -0.751842 0.659343 0
    outer loop
      vertex 29.952 9.26949 3
      vertex 29.8485 9.15147 0
      vertex 29.8485 9.15147 3
    endloop
  endfacet
  facet normal 0.831481 0.555553 0
    outer loop
      vertex 28.048 9.26949 3
      vertex 27.9608 9.4 0
      vertex 27.9608 9.4 3
    endloop
  endfacet
  facet normal 0.831481 0.555553 0
    outer loop
      vertex 27.9608 9.4 0
      vertex 28.048 9.26949 3
      vertex 28.048 9.26949 0
    endloop
  endfacet
  facet normal 0.442622 -0.896708 0
    outer loop
      vertex 28.4 11.0392 0
      vertex 28.5408 11.1087 3
      vertex 28.4 11.0392 3
    endloop
  endfacet
  facet normal 0.442622 -0.896708 0
    outer loop
      vertex 28.5408 11.1087 3
      vertex 28.4 11.0392 0
      vertex 28.5408 11.1087 0
    endloop
  endfacet
  facet normal 0.947013 -0.321194 0
    outer loop
      vertex 27.8409 10.3106 3
      vertex 27.8913 10.4592 0
      vertex 27.8913 10.4592 3
    endloop
  endfacet
  facet normal 0.947013 -0.321194 0
    outer loop
      vertex 27.8913 10.4592 0
      vertex 27.8409 10.3106 3
      vertex 27.8409 10.3106 0
    endloop
  endfacet
  facet normal 0.0656309 -0.997844 0
    outer loop
      vertex 28.8434 11.1897 0
      vertex 29 11.2 3
      vertex 28.8434 11.1897 3
    endloop
  endfacet
  facet normal 0.0656309 -0.997844 0
    outer loop
      vertex 29 11.2 3
      vertex 28.8434 11.1897 0
      vertex 29 11.2 0
    endloop
  endfacet
  facet normal 0.980813 0.194952 0
    outer loop
      vertex 27.8409 9.68942 3
      vertex 27.8103 9.84337 0
      vertex 27.8103 9.84337 3
    endloop
  endfacet
  facet normal 0.980813 0.194952 0
    outer loop
      vertex 27.8103 9.84337 0
      vertex 27.8409 9.68942 3
      vertex 27.8409 9.68942 0
    endloop
  endfacet
  facet normal -0.896683 0.442673 0
    outer loop
      vertex 30.0392 9.4 0
      vertex 30.1087 9.54078 3
      vertex 30.1087 9.54078 0
    endloop
  endfacet
  facet normal -0.896683 0.442673 0
    outer loop
      vertex 30.1087 9.54078 3
      vertex 30.0392 9.4 0
      vertex 30.0392 9.4 3
    endloop
  endfacet
  facet normal 0.997844 -0.0656309 0
    outer loop
      vertex 27.8 10 3
      vertex 27.8103 10.1566 0
      vertex 27.8103 10.1566 3
    endloop
  endfacet
  facet normal 0.997844 -0.0656309 0
    outer loop
      vertex 27.8103 10.1566 0
      vertex 27.8 10 3
      vertex 27.8 10 0
    endloop
  endfacet
  facet normal 0.555626 0.831432 -0
    outer loop
      vertex 28.4 8.96077 0
      vertex 28.2695 9.04798 3
      vertex 28.4 8.96077 3
    endloop
  endfacet
  facet normal 0.555626 0.831432 0
    outer loop
      vertex 28.2695 9.04798 3
      vertex 28.4 8.96077 0
      vertex 28.2695 9.04798 0
    endloop
  endfacet
  facet normal 0.442264 0.896885 -0
    outer loop
      vertex 28.5408 8.89134 0
      vertex 28.4 8.96077 3
      vertex 28.5408 8.89134 3
    endloop
  endfacet
  facet normal 0.442264 0.896885 0
    outer loop
      vertex 28.4 8.96077 3
      vertex 28.5408 8.89134 0
      vertex 28.4 8.96077 0
    endloop
  endfacet
  facet normal 0.751842 0.659343 0
    outer loop
      vertex 28.1515 9.15147 3
      vertex 28.048 9.26949 0
      vertex 28.048 9.26949 3
    endloop
  endfacet
  facet normal 0.751842 0.659343 0
    outer loop
      vertex 28.048 9.26949 0
      vertex 28.1515 9.15147 3
      vertex 28.1515 9.15147 0
    endloop
  endfacet
  facet normal -0.194891 -0.980825 0
    outer loop
      vertex 29.1566 11.1897 0
      vertex 29.3106 11.1591 3
      vertex 29.1566 11.1897 3
    endloop
  endfacet
  facet normal -0.194891 -0.980825 -0
    outer loop
      vertex 29.3106 11.1591 3
      vertex 29.1566 11.1897 0
      vertex 29.3106 11.1591 0
    endloop
  endfacet
  facet normal -0.65937 0.751818 0
    outer loop
      vertex 29.8485 9.15147 0
      vertex 29.7305 9.04798 3
      vertex 29.8485 9.15147 3
    endloop
  endfacet
  facet normal -0.65937 0.751818 0
    outer loop
      vertex 29.7305 9.04798 3
      vertex 29.8485 9.15147 0
      vertex 29.7305 9.04798 0
    endloop
  endfacet
  facet normal -0.555626 0.831432 0
    outer loop
      vertex 29.7305 9.04798 0
      vertex 29.6 8.96077 3
      vertex 29.7305 9.04798 3
    endloop
  endfacet
  facet normal -0.555626 0.831432 0
    outer loop
      vertex 29.6 8.96077 3
      vertex 29.7305 9.04798 0
      vertex 29.6 8.96077 0
    endloop
  endfacet
  facet normal 0.32148 0.946916 -0
    outer loop
      vertex 28.6894 8.84089 0
      vertex 28.5408 8.89134 3
      vertex 28.6894 8.84089 3
    endloop
  endfacet
  facet normal 0.32148 0.946916 0
    outer loop
      vertex 28.5408 8.89134 3
      vertex 28.6894 8.84089 0
      vertex 28.5408 8.89134 0
    endloop
  endfacet
  facet normal 0.896683 0.442673 0
    outer loop
      vertex 27.9608 9.4 3
      vertex 27.8913 9.54078 0
      vertex 27.8913 9.54078 3
    endloop
  endfacet
  facet normal 0.896683 0.442673 0
    outer loop
      vertex 27.8913 9.54078 0
      vertex 27.9608 9.4 3
      vertex 27.9608 9.4 0
    endloop
  endfacet
  facet normal 0.896708 -0.442622 0
    outer loop
      vertex 27.8913 10.4592 3
      vertex 27.9608 10.6 0
      vertex 27.9608 10.6 3
    endloop
  endfacet
  facet normal 0.896708 -0.442622 0
    outer loop
      vertex 27.9608 10.6 0
      vertex 27.8913 10.4592 3
      vertex 27.8913 10.4592 0
    endloop
  endfacet
  facet normal -0.0656309 -0.997844 0
    outer loop
      vertex 29 11.2 0
      vertex 29.1566 11.1897 3
      vertex 29 11.2 3
    endloop
  endfacet
  facet normal -0.0656309 -0.997844 -0
    outer loop
      vertex 29.1566 11.1897 3
      vertex 29 11.2 0
      vertex 29.1566 11.1897 0
    endloop
  endfacet
  facet normal 0.831462 -0.555582 0
    outer loop
      vertex 27.9608 10.6 3
      vertex 28.048 10.7305 0
      vertex 28.048 10.7305 3
    endloop
  endfacet
  facet normal 0.831462 -0.555582 0
    outer loop
      vertex 28.048 10.7305 0
      vertex 27.9608 10.6 3
      vertex 27.9608 10.6 0
    endloop
  endfacet
  facet normal 0.195014 0.980801 -0
    outer loop
      vertex 28.8434 8.81027 0
      vertex 28.6894 8.84089 3
      vertex 28.8434 8.81027 3
    endloop
  endfacet
  facet normal 0.195014 0.980801 0
    outer loop
      vertex 28.6894 8.84089 3
      vertex 28.8434 8.81027 0
      vertex 28.6894 8.84089 0
    endloop
  endfacet
  facet normal 1 0 0
    outer loop
      vertex 12.88 3.784 0
      vertex 12.88 2.2 0
      vertex 12.88 3.784 -4.32
    endloop
  endfacet
  facet normal 1 -0 0
    outer loop
      vertex 12.88 4.504 -4.176
      vertex 12.88 4.648 -4.32
      vertex 12.88 4.648 -4.176
    endloop
  endfacet
  facet normal 1 0 0
    outer loop
      vertex 12.88 3.784 -4.32
      vertex 12.88 4.648 -4.32
      vertex 12.88 4.504 -4.176
    endloop
  endfacet
  facet normal 1 0 0
    outer loop
      vertex 12.88 4.648 -4.32
      vertex 12.88 3.784 -4.32
      vertex 12.88 3.928 -5.76
    endloop
  endfacet
  facet normal 1 0 0
    outer loop
      vertex 12.88 2.2 -5.76
      vertex 12.88 3.784 -4.32
      vertex 12.88 2.2 0
    endloop
  endfacet
  facet normal 1 0 0
    outer loop
      vertex 12.88 3.784 -4.32
      vertex 12.88 2.2 -5.76
      vertex 12.88 3.928 -5.76
    endloop
  endfacet
  facet normal 0 0 -1
    outer loop
      vertex 7.12 2.2 -5.76
      vertex 12.88 3.928 -5.76
      vertex 12.88 2.2 -5.76
    endloop
  endfacet
  facet normal -0 0 -1
    outer loop
      vertex 12.88 3.928 -5.76
      vertex 7.12 2.2 -5.76
      vertex 7.12 3.928 -5.76
    endloop
  endfacet
  facet normal -1 0 0
    outer loop
      vertex 7.12 4.648 -4.32
      vertex 7.12 4.504 -4.176
      vertex 7.12 4.648 -4.176
    endloop
  endfacet
  facet normal -1 0 0
    outer loop
      vertex 7.12 3.784 -4.32
      vertex 7.12 4.648 -4.32
      vertex 7.12 3.928 -5.76
    endloop
  endfacet
  facet normal -1 0 0
    outer loop
      vertex 7.12 4.648 -4.32
      vertex 7.12 3.784 -4.32
      vertex 7.12 4.504 -4.176
    endloop
  endfacet
  facet normal -1 0 0
    outer loop
      vertex 7.12 2.2 -5.76
      vertex 7.12 3.784 -4.32
      vertex 7.12 3.928 -5.76
    endloop
  endfacet
  facet normal -1 0 0
    outer loop
      vertex 7.12 2.2 0
      vertex 7.12 3.784 -4.32
      vertex 7.12 2.2 -5.76
    endloop
  endfacet
  facet normal -1 0 0
    outer loop
      vertex 7.12 3.784 -4.32
      vertex 7.12 2.2 0
      vertex 7.12 3.784 0
    endloop
  endfacet
  facet normal 0 1 -0
    outer loop
      vertex 12.88 3.784 -4.32
      vertex 7.12 3.784 0
      vertex 12.88 3.784 0
    endloop
  endfacet
  facet normal 0 1 0
    outer loop
      vertex 7.12 3.784 0
      vertex 12.88 3.784 -4.32
      vertex 7.12 3.784 -4.32
    endloop
  endfacet
  facet normal 0 -1 0
    outer loop
      vertex 7.12 2.2 -5.76
      vertex 12.88 2.2 0
      vertex 7.12 2.2 0
    endloop
  endfacet
  facet normal 0 -1 -0
    outer loop
      vertex 12.88 2.2 0
      vertex 7.12 2.2 -5.76
      vertex 12.88 2.2 -5.76
    endloop
  endfacet
  facet normal 0 0.894427 -0.447214
    outer loop
      vertex 12.88 3.928 -5.76
      vertex 7.12 4.648 -4.32
      vertex 12.88 4.648 -4.32
    endloop
  endfacet
  facet normal 0 0.894427 -0.447214
    outer loop
      vertex 7.12 4.648 -4.32
      vertex 12.88 3.928 -5.76
      vertex 7.12 3.928 -5.76
    endloop
  endfacet
  facet normal 0 1 -0
    outer loop
      vertex 12.88 4.648 -4.32
      vertex 7.12 4.648 -4.176
      vertex 12.88 4.648 -4.176
    endloop
  endfacet
  facet normal 0 1 0
    outer loop
      vertex 7.12 4.648 -4.176
      vertex 12.88 4.648 -4.32
      vertex 7.12 4.648 -4.32
    endloop
  endfacet
  facet normal 0 -0.196116 0.980581
    outer loop
      vertex 7.12 4.504 -4.176
      vertex 12.88 3.784 -4.32
      vertex 12.88 4.504 -4.176
    endloop
  endfacet
  facet normal 0 -0.196116 0.980581
    outer loop
      vertex 12.88 3.784 -4.32
      vertex 7.12 4.504 -4.176
      vertex 7.12 3.784 -4.32
    endloop
  endfacet
  facet normal -0 0 1
    outer loop
      vertex 7.12 4.648 -4.176
      vertex 12.88 4.504 -4.176
      vertex 12.88 4.648 -4.176
    endloop
  endfacet
  facet normal 0 0 1
    outer loop
      vertex 12.88 4.504 -4.176
      vertex 7.12 4.648 -4.176
      vertex 7.12 4.504 -4.176
    endloop
  endfacet
  facet normal -1 0 0
    outer loop
      vertex 45.12 39.8 -5.76
      vertex 45.12 38.216 -4.32
      vertex 45.12 39.8 0
    endloop
  endfacet
  facet normal -1 0 0
    outer loop
      vertex 45.12 38.072 -5.76
      vertex 45.12 38.216 -4.32
      vertex 45.12 39.8 -5.76
    endloop
  endfacet
  facet normal -1 0 0
    outer loop
      vertex 45.12 37.352 -4.32
      vertex 45.12 38.216 -4.32
      vertex 45.12 38.072 -5.76
    endloop
  endfacet
  facet normal -1 0 0
    outer loop
      vertex 45.12 38.216 -4.32
      vertex 45.12 37.352 -4.32
      vertex 45.12 37.496 -4.176
    endloop
  endfacet
  facet normal -1 -0 0
    outer loop
      vertex 45.12 37.496 -4.176
      vertex 45.12 37.352 -4.32
      vertex 45.12 37.352 -4.176
    endloop
  endfacet
  facet normal -1 -0 0
    outer loop
      vertex 45.12 39.8 0
      vertex 45.12 38.216 -4.32
      vertex 45.12 38.216 0
    endloop
  endfacet
  facet normal 0 0 -1
    outer loop
      vertex 45.12 38.072 -5.76
      vertex 50.88 39.8 -5.76
      vertex 50.88 38.072 -5.76
    endloop
  endfacet
  facet normal -0 0 -1
    outer loop
      vertex 50.88 39.8 -5.76
      vertex 45.12 38.072 -5.76
      vertex 45.12 39.8 -5.76
    endloop
  endfacet
  facet normal 1 0 0
    outer loop
      vertex 50.88 38.216 -4.32
      vertex 50.88 39.8 0
      vertex 50.88 38.216 0
    endloop
  endfacet
  facet normal 1 0 0
    outer loop
      vertex 50.88 39.8 0
      vertex 50.88 38.216 -4.32
      vertex 50.88 39.8 -5.76
    endloop
  endfacet
  facet normal 1 0 0
    outer loop
      vertex 50.88 38.216 -4.32
      vertex 50.88 38.072 -5.76
      vertex 50.88 39.8 -5.76
    endloop
  endfacet
  facet normal 1 0 0
    outer loop
      vertex 50.88 37.352 -4.32
      vertex 50.88 38.216 -4.32
      vertex 50.88 37.496 -4.176
    endloop
  endfacet
  facet normal 1 0 0
    outer loop
      vertex 50.88 37.352 -4.32
      vertex 50.88 37.496 -4.176
      vertex 50.88 37.352 -4.176
    endloop
  endfacet
  facet normal 1 0 0
    outer loop
      vertex 50.88 38.216 -4.32
      vertex 50.88 37.352 -4.32
      vertex 50.88 38.072 -5.76
    endloop
  endfacet
  facet normal 0 -1 0
    outer loop
      vertex 45.12 38.216 -4.32
      vertex 50.88 38.216 0
      vertex 45.12 38.216 0
    endloop
  endfacet
  facet normal 0 -1 -0
    outer loop
      vertex 50.88 38.216 0
      vertex 45.12 38.216 -4.32
      vertex 50.88 38.216 -4.32
    endloop
  endfacet
  facet normal 0 1 -0
    outer loop
      vertex 50.88 39.8 -5.76
      vertex 45.12 39.8 0
      vertex 50.88 39.8 0
    endloop
  endfacet
  facet normal 0 1 0
    outer loop
      vertex 45.12 39.8 0
      vertex 50.88 39.8 -5.76
      vertex 45.12 39.8 -5.76
    endloop
  endfacet
  facet normal 0 -0.894427 -0.447214
    outer loop
      vertex 45.12 38.072 -5.76
      vertex 50.88 37.352 -4.32
      vertex 45.12 37.352 -4.32
    endloop
  endfacet
  facet normal 0 -0.894427 -0.447214
    outer loop
      vertex 50.88 37.352 -4.32
      vertex 45.12 38.072 -5.76
      vertex 50.88 38.072 -5.76
    endloop
  endfacet
  facet normal 0 -1 0
    outer loop
      vertex 45.12 37.352 -4.32
      vertex 50.88 37.352 -4.176
      vertex 45.12 37.352 -4.176
    endloop
  endfacet
  facet normal 0 -1 -0
    outer loop
      vertex 50.88 37.352 -4.176
      vertex 45.12 37.352 -4.32
      vertex 50.88 37.352 -4.32
    endloop
  endfacet
  facet normal -0 0.196116 0.980581
    outer loop
      vertex 45.12 38.216 -4.32
      vertex 50.88 37.496 -4.176
      vertex 50.88 38.216 -4.32
    endloop
  endfacet
  facet normal 0 0.196116 0.980581
    outer loop
      vertex 50.88 37.496 -4.176
      vertex 45.12 38.216 -4.32
      vertex 45.12 37.496 -4.176
    endloop
  endfacet
  facet normal -0 0 1
    outer loop
      vertex 45.12 37.496 -4.176
      vertex 50.88 37.352 -4.176
      vertex 50.88 37.496 -4.176
    endloop
  endfacet
  facet normal 0 0 1
    outer loop
      vertex 50.88 37.352 -4.176
      vertex 45.12 37.496 -4.176
      vertex 45.12 37.352 -4.176
    endloop
  endfacet
endsolid OpenSCAD_Model
