solid OpenSCAD_Model
  facet normal 0.707107 0.707107 0
    outer loop
      vertex 98 27 4
      vertex 93 32 1
      vertex 93 32 4
    endloop
  endfacet
  facet normal 0.707107 0.707107 0
    outer loop
      vertex 93 32 1
      vertex 98 27 4
      vertex 98 27 1
    endloop
  endfacet
  facet normal -0.707107 -0.707107 -0
    outer loop
      vertex 5 0 -12
      vertex 0 5 -10
      vertex 5 0 -15
    endloop
  endfacet
  facet normal -0.707107 -0.707107 0
    outer loop
      vertex 0 5 -10
      vertex 5 0 -12
      vertex 0 5 -7
    endloop
  endfacet
  facet normal 1 -0 0
    outer loop
      vertex 98 16 4
      vertex 98 27 1
      vertex 98 27 4
    endloop
  endfacet
  facet normal 1 0 0
    outer loop
      vertex 98 16 4
      vertex 98 16 1
      vertex 98 27 1
    endloop
  endfacet
  facet normal 1 0 0
    outer loop
      vertex 98 5 -7
      vertex 98 16 1
      vertex 98 16 4
    endloop
  endfacet
  facet normal 1 0 0
    outer loop
      vertex 98 16 1
      vertex 98 5 -7
      vertex 98 5 -10
    endloop
  endfacet
  facet normal 0 -1 0
    outer loop
      vertex 5 0 -15
      vertex 46.5 0 -12
      vertex 5 0 -12
    endloop
  endfacet
  facet normal 0 -1 -0
    outer loop
      vertex 46.5 0 -12
      vertex 5 0 -15
      vertex 46.5 0 -15
    endloop
  endfacet
  facet normal 0 -1 0
    outer loop
      vertex 51.5 0 -15
      vertex 93 0 -12
      vertex 51.5 0 -12
    endloop
  endfacet
  facet normal 0 -1 -0
    outer loop
      vertex 93 0 -12
      vertex 51.5 0 -15
      vertex 93 0 -15
    endloop
  endfacet
  facet normal -0.707107 0.707107 0
    outer loop
      vertex 0 27 1
      vertex 5 32 4
      vertex 5 32 1
    endloop
  endfacet
  facet normal -0.707107 0.707107 0
    outer loop
      vertex 5 32 4
      vertex 0 27 1
      vertex 0 27 4
    endloop
  endfacet
  facet normal 0 1 -0
    outer loop
      vertex 93 32 1
      vertex 5 32 4
      vertex 93 32 4
    endloop
  endfacet
  facet normal 0 1 0
    outer loop
      vertex 5 32 4
      vertex 93 32 1
      vertex 5 32 1
    endloop
  endfacet
  facet normal -1 0 0
    outer loop
      vertex 0 16 1
      vertex 0 27 4
      vertex 0 27 1
    endloop
  endfacet
  facet normal -1 0 0
    outer loop
      vertex 0 16 1
      vertex 0 16 4
      vertex 0 27 4
    endloop
  endfacet
  facet normal -1 0 0
    outer loop
      vertex 0 5 -7
      vertex 0 16 1
      vertex 0 5 -10
    endloop
  endfacet
  facet normal -1 -0 0
    outer loop
      vertex 0 16 1
      vertex 0 5 -7
      vertex 0 16 4
    endloop
  endfacet
  facet normal 0.707107 -0.707107 0
    outer loop
      vertex 93 0 -12
      vertex 98 5 -10
      vertex 98 5 -7
    endloop
  endfacet
  facet normal 0.707107 -0.707107 0
    outer loop
      vertex 98 5 -10
      vertex 93 0 -12
      vertex 93 0 -15
    endloop
  endfacet
  facet normal 0 0 -1
    outer loop
      vertex 88.2 20 1
      vertex 98 27 1
      vertex 98 16 1
    endloop
  endfacet
  facet normal 0 0 -1
    outer loop
      vertex 88.2 28 1
      vertex 98 27 1
      vertex 88.2 20 1
    endloop
  endfacet
  facet normal 0 0 -1
    outer loop
      vertex 98 16 1
      vertex 86 20 1
      vertex 88.2 20 1
    endloop
  endfacet
  facet normal 0 0 -1
    outer loop
      vertex 86 20 1
      vertex 12 20 1
      vertex 86 28 1
    endloop
  endfacet
  facet normal 0 0 -1
    outer loop
      vertex 98 16 1
      vertex 12 20 1
      vertex 86 20 1
    endloop
  endfacet
  facet normal 0 0 -1
    outer loop
      vertex 0 16 1
      vertex 12 20 1
      vertex 98 16 1
    endloop
  endfacet
  facet normal 0 0 -1
    outer loop
      vertex 0 27 1
      vertex 9.8 28 1
      vertex 9.8 20 1
    endloop
  endfacet
  facet normal -0 0 -1
    outer loop
      vertex 12 20 1
      vertex 0 16 1
      vertex 9.8 20 1
    endloop
  endfacet
  facet normal 0 0 -1
    outer loop
      vertex 0 27 1
      vertex 9.8 20 1
      vertex 0 16 1
    endloop
  endfacet
  facet normal -0 0 -1
    outer loop
      vertex 9.8 28 1
      vertex 0 27 1
      vertex 5 32 1
    endloop
  endfacet
  facet normal 0 0 -1
    outer loop
      vertex 98 27 1
      vertex 88.2 28 1
      vertex 93 32 1
    endloop
  endfacet
  facet normal 0 0 -1
    outer loop
      vertex 86 28 1
      vertex 93 32 1
      vertex 88.2 28 1
    endloop
  endfacet
  facet normal 0 0 -1
    outer loop
      vertex 12 28 1
      vertex 86 28 1
      vertex 12 20 1
    endloop
  endfacet
  facet normal 0 0 -1
    outer loop
      vertex 86 28 1
      vertex 12 28 1
      vertex 93 32 1
    endloop
  endfacet
  facet normal 0 0 -1
    outer loop
      vertex 5 32 1
      vertex 12 28 1
      vertex 9.8 28 1
    endloop
  endfacet
  facet normal 0 0 -1
    outer loop
      vertex 12 28 1
      vertex 5 32 1
      vertex 93 32 1
    endloop
  endfacet
  facet normal 0 0 1
    outer loop
      vertex 93 32 4
      vertex 98 16 4
      vertex 98 27 4
    endloop
  endfacet
  facet normal -0 0 1
    outer loop
      vertex 5 32 4
      vertex 98 16 4
      vertex 93 32 4
    endloop
  endfacet
  facet normal 0 0 1
    outer loop
      vertex 0 16 4
      vertex 5 32 4
      vertex 0 27 4
    endloop
  endfacet
  facet normal 0 0 1
    outer loop
      vertex 5 32 4
      vertex 0 16 4
      vertex 98 16 4
    endloop
  endfacet
  facet normal -6.14874e-07 -0.707105 0.707109
    outer loop
      vertex 51.5 0 -12
      vertex 86 6 -6
      vertex 51.5 0.200001 -11.8
    endloop
  endfacet
  facet normal 0 -0.707107 0.707107
    outer loop
      vertex 86 6 -6
      vertex 51.5 0 -12
      vertex 93 0 -12
    endloop
  endfacet
  facet normal 0 -0.707107 0.707107
    outer loop
      vertex 86 6 -6
      vertex 93 0 -12
      vertex 98 5 -7
    endloop
  endfacet
  facet normal 2.04958e-08 -0.707107 0.707107
    outer loop
      vertex 46.5 0.200001 -11.8
      vertex 12 7.4 -4.6
      vertex 12 6 -6
    endloop
  endfacet
  facet normal 0 -0.707107 0.707107
    outer loop
      vertex 12 7.4 -4.6
      vertex 46.5 0.200001 -11.8
      vertex 86 7.4 -4.6
    endloop
  endfacet
  facet normal 0 -0.707107 0.707107
    outer loop
      vertex 12 7.4 -4.6
      vertex 0 16 4
      vertex 9.8 7.4 -4.6
    endloop
  endfacet
  facet normal 0 -0.707107 0.707107
    outer loop
      vertex 0 5 -7
      vertex 9.8 7.4 -4.6
      vertex 0 16 4
    endloop
  endfacet
  facet normal 0 -0.707107 0.707107
    outer loop
      vertex 5 0 -12
      vertex 12 6 -6
      vertex 9.8 6 -6
    endloop
  endfacet
  facet normal 0 -0.707107 0.707107
    outer loop
      vertex 51.5 0.200001 -11.8
      vertex 86 7.4 -4.6
      vertex 46.5 0.200001 -11.8
    endloop
  endfacet
  facet normal 0 -0.707107 0.707107
    outer loop
      vertex 5 0 -12
      vertex 9.8 6 -6
      vertex 0 5 -7
    endloop
  endfacet
  facet normal 0 -0.707107 0.707107
    outer loop
      vertex 9.8 7.4 -4.6
      vertex 0 5 -7
      vertex 9.8 6 -6
    endloop
  endfacet
  facet normal 0 -0.707107 0.707107
    outer loop
      vertex 0 16 4
      vertex 12 7.4 -4.6
      vertex 98 16 4
    endloop
  endfacet
  facet normal 0 -0.707107 0.707107
    outer loop
      vertex 86 7.4 -4.6
      vertex 98 16 4
      vertex 12 7.4 -4.6
    endloop
  endfacet
  facet normal 0 -0.707107 0.707107
    outer loop
      vertex 88.2 7.4 -4.6
      vertex 98 16 4
      vertex 86 7.4 -4.6
    endloop
  endfacet
  facet normal 0 -0.707107 0.707107
    outer loop
      vertex 98 5 -7
      vertex 88.2 7.4 -4.6
      vertex 88.2 6 -6
    endloop
  endfacet
  facet normal 0 -0.707107 0.707107
    outer loop
      vertex 88.2 7.4 -4.6
      vertex 98 5 -7
      vertex 98 16 4
    endloop
  endfacet
  facet normal -2.04958e-08 -0.707107 0.707107
    outer loop
      vertex 86 7.4 -4.6
      vertex 51.5 0.200001 -11.8
      vertex 86 6 -6
    endloop
  endfacet
  facet normal 0 -0.707107 0.707107
    outer loop
      vertex 86 6 -6
      vertex 98 5 -7
      vertex 88.2 6 -6
    endloop
  endfacet
  facet normal 0 -0.707107 0.707107
    outer loop
      vertex 12 6 -6
      vertex 5 0 -12
      vertex 46.5 0 -12
    endloop
  endfacet
  facet normal 6.14874e-07 -0.707105 0.707109
    outer loop
      vertex 12 6 -6
      vertex 46.5 0 -12
      vertex 46.5 0.200001 -11.8
    endloop
  endfacet
  facet normal 0 0.707107 -0.707107
    outer loop
      vertex 46.5 0 -15
      vertex 12 6 -9
      vertex 46.5 2 -13
    endloop
  endfacet
  facet normal 0 0.707107 -0.707107
    outer loop
      vertex 12 6 -9
      vertex 46.5 0 -15
      vertex 5 0 -15
    endloop
  endfacet
  facet normal 0 0.707107 -0.707107
    outer loop
      vertex 12 6 -9
      vertex 5 0 -15
      vertex 0 5 -10
    endloop
  endfacet
  facet normal 0 0.707107 -0.707107
    outer loop
      vertex 51.5 2 -13
      vertex 86 10.4 -4.6
      vertex 86 6 -9
    endloop
  endfacet
  facet normal 0 0.707107 -0.707107
    outer loop
      vertex 86 10.4 -4.6
      vertex 51.5 2 -13
      vertex 12 10.4 -4.6
    endloop
  endfacet
  facet normal 0 0.707107 -0.707107
    outer loop
      vertex 86 10.4 -4.6
      vertex 98 16 1
      vertex 88.2 10.4 -4.6
    endloop
  endfacet
  facet normal 0 0.707107 -0.707107
    outer loop
      vertex 98 5 -10
      vertex 88.2 10.4 -4.6
      vertex 98 16 1
    endloop
  endfacet
  facet normal 0 0.707107 -0.707107
    outer loop
      vertex 93 0 -15
      vertex 86 6 -9
      vertex 88.2 6 -9
    endloop
  endfacet
  facet normal 0 0.707107 -0.707107
    outer loop
      vertex 46.5 2 -13
      vertex 12 10.4 -4.6
      vertex 51.5 2 -13
    endloop
  endfacet
  facet normal 0 0.707107 -0.707107
    outer loop
      vertex 93 0 -15
      vertex 88.2 6 -9
      vertex 98 5 -10
    endloop
  endfacet
  facet normal 0 0.707107 -0.707107
    outer loop
      vertex 88.2 10.4 -4.6
      vertex 98 5 -10
      vertex 88.2 6 -9
    endloop
  endfacet
  facet normal 0 0.707107 -0.707107
    outer loop
      vertex 98 16 1
      vertex 86 10.4 -4.6
      vertex 0 16 1
    endloop
  endfacet
  facet normal 0 0.707107 -0.707107
    outer loop
      vertex 12 10.4 -4.6
      vertex 0 16 1
      vertex 86 10.4 -4.6
    endloop
  endfacet
  facet normal 0 0.707107 -0.707107
    outer loop
      vertex 9.8 10.4 -4.6
      vertex 0 16 1
      vertex 12 10.4 -4.6
    endloop
  endfacet
  facet normal 0 0.707107 -0.707107
    outer loop
      vertex 0 5 -10
      vertex 9.8 10.4 -4.6
      vertex 9.8 6 -9
    endloop
  endfacet
  facet normal 0 0.707107 -0.707107
    outer loop
      vertex 9.8 10.4 -4.6
      vertex 0 5 -10
      vertex 0 16 1
    endloop
  endfacet
  facet normal 0 0.707107 -0.707107
    outer loop
      vertex 12 10.4 -4.6
      vertex 46.5 2 -13
      vertex 12 6 -9
    endloop
  endfacet
  facet normal 0 0.707107 -0.707107
    outer loop
      vertex 12 6 -9
      vertex 0 5 -10
      vertex 9.8 6 -9
    endloop
  endfacet
  facet normal 0 0.707107 -0.707107
    outer loop
      vertex 86 6 -9
      vertex 93 0 -15
      vertex 51.5 0 -15
    endloop
  endfacet
  facet normal 0 0.707107 -0.707107
    outer loop
      vertex 86 6 -9
      vertex 51.5 0 -15
      vertex 51.5 2 -13
    endloop
  endfacet
  facet normal 0 1 0
    outer loop
      vertex 12 14 -4.6
      vertex 9.8 14 -11
      vertex 9.8 14 -4.6
    endloop
  endfacet
  facet normal 0 1 -0
    outer loop
      vertex 12 14 -13
      vertex 9.8 14 -11
      vertex 12 14 -4.6
    endloop
  endfacet
  facet normal 0 1 0
    outer loop
      vertex 9.6 14 -13
      vertex 9.8 14 -11
      vertex 12 14 -13
    endloop
  endfacet
  facet normal 0 1 0
    outer loop
      vertex 9.8 14 -11
      vertex 9.6 14 -13
      vertex 8.6 14 -11
    endloop
  endfacet
  facet normal 0 1 0
    outer loop
      vertex 8.6 14 -11
      vertex 8.8 14 -10.8
      vertex 9.8 14 -11
    endloop
  endfacet
  facet normal 0 1 0
    outer loop
      vertex 8.8 14 -10.8
      vertex 8.6 14 -11
      vertex 8.6 14 -10.8
    endloop
  endfacet
  facet normal -0 0 1
    outer loop
      vertex 9.8 7.4 -4.6
      vertex 12 6 -4.6
      vertex 12 7.4 -4.6
    endloop
  endfacet
  facet normal 0 0 1
    outer loop
      vertex 12 6 -4.6
      vertex 9.8 7.4 -4.6
      vertex 9.8 6 -4.6
    endloop
  endfacet
  facet normal -0 0 1
    outer loop
      vertex 9.8 14 -4.6
      vertex 12 10.4 -4.6
      vertex 12 14 -4.6
    endloop
  endfacet
  facet normal 0 0 1
    outer loop
      vertex 12 10.4 -4.6
      vertex 9.8 14 -4.6
      vertex 9.8 10.4 -4.6
    endloop
  endfacet
  facet normal 0 0 -1
    outer loop
      vertex 9.6 6 -13
      vertex 12 14 -13
      vertex 12 6 -13
    endloop
  endfacet
  facet normal -0 0 -1
    outer loop
      vertex 12 14 -13
      vertex 9.6 6 -13
      vertex 9.6 14 -13
    endloop
  endfacet
  facet normal 0 -1 0
    outer loop
      vertex 9.8 6 -6
      vertex 12 6 -4.6
      vertex 9.8 6 -4.6
    endloop
  endfacet
  facet normal 0 -1 -0
    outer loop
      vertex 12 6 -4.6
      vertex 9.8 6 -6
      vertex 12 6 -6
    endloop
  endfacet
  facet normal 0 -1 0
    outer loop
      vertex 8.6 6 -11
      vertex 8.8 6 -10.8
      vertex 8.6 6 -10.8
    endloop
  endfacet
  facet normal 0 -1 0
    outer loop
      vertex 8.6 6 -11
      vertex 9.8 6 -11
      vertex 8.8 6 -10.8
    endloop
  endfacet
  facet normal -0 -1 0
    outer loop
      vertex 9.8 6 -11
      vertex 8.6 6 -11
      vertex 9.6 6 -13
    endloop
  endfacet
  facet normal 0 -1 0
    outer loop
      vertex 9.8 6 -11
      vertex 12 6 -9
      vertex 9.8 6 -9
    endloop
  endfacet
  facet normal 0 -1 0
    outer loop
      vertex 12 6 -13
      vertex 9.8 6 -11
      vertex 9.6 6 -13
    endloop
  endfacet
  facet normal 0 -1 0
    outer loop
      vertex 9.8 6 -11
      vertex 12 6 -13
      vertex 12 6 -9
    endloop
  endfacet
  facet normal -1 -0 0
    outer loop
      vertex 9.8 7.4 -4.6
      vertex 9.8 6 -6
      vertex 9.8 6 -4.6
    endloop
  endfacet
  facet normal -1 0 0
    outer loop
      vertex 9.8 14 -11
      vertex 9.8 10.4 -4.6
      vertex 9.8 14 -4.6
    endloop
  endfacet
  facet normal -1 0 0
    outer loop
      vertex 9.8 6 -9
      vertex 9.8 14 -11
      vertex 9.8 6 -11
    endloop
  endfacet
  facet normal -1 0 0
    outer loop
      vertex 9.8 14 -11
      vertex 9.8 6 -9
      vertex 9.8 10.4 -4.6
    endloop
  endfacet
  facet normal 1 -0 0
    outer loop
      vertex 12 6 -4.6
      vertex 12 6 -6
      vertex 12 7.4 -4.6
    endloop
  endfacet
  facet normal 1 -0 0
    outer loop
      vertex 12 10.4 -4.6
      vertex 12 14 -13
      vertex 12 14 -4.6
    endloop
  endfacet
  facet normal 1 -0 0
    outer loop
      vertex 12 6 -9
      vertex 12 14 -13
      vertex 12 10.4 -4.6
    endloop
  endfacet
  facet normal 1 0 0
    outer loop
      vertex 12 14 -13
      vertex 12 6 -9
      vertex 12 6 -13
    endloop
  endfacet
  facet normal -0.894427 0 -0.447214
    outer loop
      vertex 9.6 6 -13
      vertex 8.6 14 -11
      vertex 9.6 14 -13
    endloop
  endfacet
  facet normal -0.894427 -0 -0.447214
    outer loop
      vertex 8.6 14 -11
      vertex 9.6 6 -13
      vertex 8.6 6 -11
    endloop
  endfacet
  facet normal -1 0 0
    outer loop
      vertex 8.6 6 -11
      vertex 8.6 14 -10.8
      vertex 8.6 14 -11
    endloop
  endfacet
  facet normal -1 -0 0
    outer loop
      vertex 8.6 14 -10.8
      vertex 8.6 6 -11
      vertex 8.6 6 -10.8
    endloop
  endfacet
  facet normal 0.196116 0 0.980581
    outer loop
      vertex 8.8 14 -10.8
      vertex 9.8 6 -11
      vertex 9.8 14 -11
    endloop
  endfacet
  facet normal 0.196116 0 0.980581
    outer loop
      vertex 9.8 6 -11
      vertex 8.8 14 -10.8
      vertex 8.8 6 -10.8
    endloop
  endfacet
  facet normal -0 0 1
    outer loop
      vertex 8.6 14 -10.8
      vertex 8.8 6 -10.8
      vertex 8.8 14 -10.8
    endloop
  endfacet
  facet normal 0 0 1
    outer loop
      vertex 8.8 6 -10.8
      vertex 8.6 14 -10.8
      vertex 8.6 6 -10.8
    endloop
  endfacet
  facet normal 0 -1 0
    outer loop
      vertex 86 6 -6
      vertex 88.2 6 -4.6
      vertex 86 6 -4.6
    endloop
  endfacet
  facet normal 0 -1 -0
    outer loop
      vertex 88.2 6 -4.6
      vertex 86 6 -6
      vertex 88.2 6 -6
    endloop
  endfacet
  facet normal 0 -1 0
    outer loop
      vertex 86 6 -9
      vertex 88.2 6 -11
      vertex 88.2 6 -9
    endloop
  endfacet
  facet normal 0 -1 0
    outer loop
      vertex 86 6 -13
      vertex 88.2 6 -11
      vertex 86 6 -9
    endloop
  endfacet
  facet normal 0 -1 0
    outer loop
      vertex 88.4 6 -13
      vertex 88.2 6 -11
      vertex 86 6 -13
    endloop
  endfacet
  facet normal 0 -1 0
    outer loop
      vertex 88.2 6 -11
      vertex 88.4 6 -13
      vertex 89.4 6 -11
    endloop
  endfacet
  facet normal 0 -1 0
    outer loop
      vertex 89.4 6 -11
      vertex 89.2 6 -10.8
      vertex 88.2 6 -11
    endloop
  endfacet
  facet normal 0 -1 0
    outer loop
      vertex 89.2 6 -10.8
      vertex 89.4 6 -11
      vertex 89.4 6 -10.8
    endloop
  endfacet
  facet normal -0 0 1
    outer loop
      vertex 86 14 -4.6
      vertex 88.2 10.4 -4.6
      vertex 88.2 14 -4.6
    endloop
  endfacet
  facet normal 0 0 1
    outer loop
      vertex 88.2 10.4 -4.6
      vertex 86 14 -4.6
      vertex 86 10.4 -4.6
    endloop
  endfacet
  facet normal -0 0 1
    outer loop
      vertex 86 7.4 -4.6
      vertex 88.2 6 -4.6
      vertex 88.2 7.4 -4.6
    endloop
  endfacet
  facet normal 0 0 1
    outer loop
      vertex 88.2 6 -4.6
      vertex 86 7.4 -4.6
      vertex 86 6 -4.6
    endloop
  endfacet
  facet normal 0 0 -1
    outer loop
      vertex 86 6 -13
      vertex 88.4 14 -13
      vertex 88.4 6 -13
    endloop
  endfacet
  facet normal -0 0 -1
    outer loop
      vertex 88.4 14 -13
      vertex 86 6 -13
      vertex 86 14 -13
    endloop
  endfacet
  facet normal 0 1 -0
    outer loop
      vertex 89.4 14 -11
      vertex 89.2 14 -10.8
      vertex 89.4 14 -10.8
    endloop
  endfacet
  facet normal 0 1 0
    outer loop
      vertex 89.4 14 -11
      vertex 88.2 14 -11
      vertex 89.2 14 -10.8
    endloop
  endfacet
  facet normal -0 1 0
    outer loop
      vertex 88.2 14 -11
      vertex 89.4 14 -11
      vertex 88.4 14 -13
    endloop
  endfacet
  facet normal 0 1 -0
    outer loop
      vertex 88.2 14 -11
      vertex 86 14 -4.6
      vertex 88.2 14 -4.6
    endloop
  endfacet
  facet normal 0 1 0
    outer loop
      vertex 86 14 -13
      vertex 88.2 14 -11
      vertex 88.4 14 -13
    endloop
  endfacet
  facet normal 0 1 0
    outer loop
      vertex 88.2 14 -11
      vertex 86 14 -13
      vertex 86 14 -4.6
    endloop
  endfacet
  facet normal 1 -0 0
    outer loop
      vertex 88.2 10.4 -4.6
      vertex 88.2 14 -11
      vertex 88.2 14 -4.6
    endloop
  endfacet
  facet normal 1 -0 0
    outer loop
      vertex 88.2 6 -9
      vertex 88.2 14 -11
      vertex 88.2 10.4 -4.6
    endloop
  endfacet
  facet normal 1 0 0
    outer loop
      vertex 88.2 14 -11
      vertex 88.2 6 -9
      vertex 88.2 6 -11
    endloop
  endfacet
  facet normal 1 -0 0
    outer loop
      vertex 88.2 6 -4.6
      vertex 88.2 6 -6
      vertex 88.2 7.4 -4.6
    endloop
  endfacet
  facet normal -1 0 0
    outer loop
      vertex 86 14 -13
      vertex 86 10.4 -4.6
      vertex 86 14 -4.6
    endloop
  endfacet
  facet normal -1 0 0
    outer loop
      vertex 86 6 -9
      vertex 86 14 -13
      vertex 86 6 -13
    endloop
  endfacet
  facet normal -1 0 0
    outer loop
      vertex 86 14 -13
      vertex 86 6 -9
      vertex 86 10.4 -4.6
    endloop
  endfacet
  facet normal -1 -0 0
    outer loop
      vertex 86 7.4 -4.6
      vertex 86 6 -6
      vertex 86 6 -4.6
    endloop
  endfacet
  facet normal 0.894427 0 -0.447214
    outer loop
      vertex 89.4 6 -11
      vertex 88.4 14 -13
      vertex 89.4 14 -11
    endloop
  endfacet
  facet normal 0.894427 0 -0.447214
    outer loop
      vertex 88.4 14 -13
      vertex 89.4 6 -11
      vertex 88.4 6 -13
    endloop
  endfacet
  facet normal 1 -0 0
    outer loop
      vertex 89.4 6 -10.8
      vertex 89.4 14 -11
      vertex 89.4 14 -10.8
    endloop
  endfacet
  facet normal 1 0 0
    outer loop
      vertex 89.4 14 -11
      vertex 89.4 6 -10.8
      vertex 89.4 6 -11
    endloop
  endfacet
  facet normal -0.196116 0 0.980581
    outer loop
      vertex 88.2 14 -11
      vertex 89.2 6 -10.8
      vertex 89.2 14 -10.8
    endloop
  endfacet
  facet normal -0.196116 0 0.980581
    outer loop
      vertex 89.2 6 -10.8
      vertex 88.2 14 -11
      vertex 88.2 6 -11
    endloop
  endfacet
  facet normal -0 0 1
    outer loop
      vertex 89.2 14 -10.8
      vertex 89.4 6 -10.8
      vertex 89.4 14 -10.8
    endloop
  endfacet
  facet normal 0 0 1
    outer loop
      vertex 89.4 6 -10.8
      vertex 89.2 14 -10.8
      vertex 89.2 6 -10.8
    endloop
  endfacet
  facet normal 0 1 0
    outer loop
      vertex 12 28 1
      vertex 9.8 28 -5
      vertex 9.8 28 1
    endloop
  endfacet
  facet normal 0 1 -0
    outer loop
      vertex 12 28 -7
      vertex 9.8 28 -5
      vertex 12 28 1
    endloop
  endfacet
  facet normal 0 1 0
    outer loop
      vertex 9.6 28 -7
      vertex 9.8 28 -5
      vertex 12 28 -7
    endloop
  endfacet
  facet normal 0 1 0
    outer loop
      vertex 9.8 28 -5
      vertex 9.6 28 -7
      vertex 8.6 28 -5
    endloop
  endfacet
  facet normal 0 1 0
    outer loop
      vertex 8.6 28 -5
      vertex 8.8 28 -4.8
      vertex 9.8 28 -5
    endloop
  endfacet
  facet normal 0 1 0
    outer loop
      vertex 8.8 28 -4.8
      vertex 8.6 28 -5
      vertex 8.6 28 -4.8
    endloop
  endfacet
  facet normal 0 0 -1
    outer loop
      vertex 9.6 20 -7
      vertex 12 28 -7
      vertex 12 20 -7
    endloop
  endfacet
  facet normal -0 0 -1
    outer loop
      vertex 12 28 -7
      vertex 9.6 20 -7
      vertex 9.6 28 -7
    endloop
  endfacet
  facet normal 0 -1 0
    outer loop
      vertex 8.6 20 -5
      vertex 8.8 20 -4.8
      vertex 8.6 20 -4.8
    endloop
  endfacet
  facet normal 0 -1 0
    outer loop
      vertex 8.6 20 -5
      vertex 9.8 20 -5
      vertex 8.8 20 -4.8
    endloop
  endfacet
  facet normal -0 -1 0
    outer loop
      vertex 9.8 20 -5
      vertex 8.6 20 -5
      vertex 9.6 20 -7
    endloop
  endfacet
  facet normal 0 -1 0
    outer loop
      vertex 9.8 20 -5
      vertex 12 20 1
      vertex 9.8 20 1
    endloop
  endfacet
  facet normal 0 -1 0
    outer loop
      vertex 12 20 -7
      vertex 9.8 20 -5
      vertex 9.6 20 -7
    endloop
  endfacet
  facet normal 0 -1 0
    outer loop
      vertex 9.8 20 -5
      vertex 12 20 -7
      vertex 12 20 1
    endloop
  endfacet
  facet normal -1 0 0
    outer loop
      vertex 9.8 20 -5
      vertex 9.8 28 1
      vertex 9.8 28 -5
    endloop
  endfacet
  facet normal -1 -0 0
    outer loop
      vertex 9.8 28 1
      vertex 9.8 20 -5
      vertex 9.8 20 1
    endloop
  endfacet
  facet normal 1 -0 0
    outer loop
      vertex 12 20 1
      vertex 12 28 -7
      vertex 12 28 1
    endloop
  endfacet
  facet normal 1 0 0
    outer loop
      vertex 12 28 -7
      vertex 12 20 1
      vertex 12 20 -7
    endloop
  endfacet
  facet normal -0.894427 0 -0.447214
    outer loop
      vertex 9.6 20 -7
      vertex 8.6 28 -5
      vertex 9.6 28 -7
    endloop
  endfacet
  facet normal -0.894427 -0 -0.447214
    outer loop
      vertex 8.6 28 -5
      vertex 9.6 20 -7
      vertex 8.6 20 -5
    endloop
  endfacet
  facet normal -1 0 0
    outer loop
      vertex 8.6 20 -5
      vertex 8.6 28 -4.8
      vertex 8.6 28 -5
    endloop
  endfacet
  facet normal -1 -0 0
    outer loop
      vertex 8.6 28 -4.8
      vertex 8.6 20 -5
      vertex 8.6 20 -4.8
    endloop
  endfacet
  facet normal 0.196116 0 0.980581
    outer loop
      vertex 8.8 28 -4.8
      vertex 9.8 20 -5
      vertex 9.8 28 -5
    endloop
  endfacet
  facet normal 0.196116 0 0.980581
    outer loop
      vertex 9.8 20 -5
      vertex 8.8 28 -4.8
      vertex 8.8 20 -4.8
    endloop
  endfacet
  facet normal -0 0 1
    outer loop
      vertex 8.6 28 -4.8
      vertex 8.8 20 -4.8
      vertex 8.8 28 -4.8
    endloop
  endfacet
  facet normal 0 0 1
    outer loop
      vertex 8.8 20 -4.8
      vertex 8.6 28 -4.8
      vertex 8.6 20 -4.8
    endloop
  endfacet
  facet normal 0 -1 0
    outer loop
      vertex 86 20 1
      vertex 88.2 20 -5
      vertex 88.2 20 1
    endloop
  endfacet
  facet normal 0 -1 0
    outer loop
      vertex 86 20 -7
      vertex 88.2 20 -5
      vertex 86 20 1
    endloop
  endfacet
  facet normal 0 -1 0
    outer loop
      vertex 88.4 20 -7
      vertex 88.2 20 -5
      vertex 86 20 -7
    endloop
  endfacet
  facet normal 0 -1 0
    outer loop
      vertex 88.2 20 -5
      vertex 88.4 20 -7
      vertex 89.4 20 -5
    endloop
  endfacet
  facet normal 0 -1 0
    outer loop
      vertex 89.4 20 -5
      vertex 89.2 20 -4.8
      vertex 88.2 20 -5
    endloop
  endfacet
  facet normal 0 -1 0
    outer loop
      vertex 89.2 20 -4.8
      vertex 89.4 20 -5
      vertex 89.4 20 -4.8
    endloop
  endfacet
  facet normal 0 0 -1
    outer loop
      vertex 86 20 -7
      vertex 88.4 28 -7
      vertex 88.4 20 -7
    endloop
  endfacet
  facet normal -0 0 -1
    outer loop
      vertex 88.4 28 -7
      vertex 86 20 -7
      vertex 86 28 -7
    endloop
  endfacet
  facet normal 0 1 -0
    outer loop
      vertex 89.4 28 -5
      vertex 89.2 28 -4.8
      vertex 89.4 28 -4.8
    endloop
  endfacet
  facet normal 0 1 0
    outer loop
      vertex 89.4 28 -5
      vertex 88.2 28 -5
      vertex 89.2 28 -4.8
    endloop
  endfacet
  facet normal -0 1 0
    outer loop
      vertex 88.2 28 -5
      vertex 89.4 28 -5
      vertex 88.4 28 -7
    endloop
  endfacet
  facet normal 0 1 -0
    outer loop
      vertex 88.2 28 -5
      vertex 86 28 1
      vertex 88.2 28 1
    endloop
  endfacet
  facet normal 0 1 0
    outer loop
      vertex 86 28 -7
      vertex 88.2 28 -5
      vertex 88.4 28 -7
    endloop
  endfacet
  facet normal 0 1 0
    outer loop
      vertex 88.2 28 -5
      vertex 86 28 -7
      vertex 86 28 1
    endloop
  endfacet
  facet normal 1 -0 0
    outer loop
      vertex 88.2 20 1
      vertex 88.2 28 -5
      vertex 88.2 28 1
    endloop
  endfacet
  facet normal 1 0 0
    outer loop
      vertex 88.2 28 -5
      vertex 88.2 20 1
      vertex 88.2 20 -5
    endloop
  endfacet
  facet normal -1 0 0
    outer loop
      vertex 86 20 -7
      vertex 86 28 1
      vertex 86 28 -7
    endloop
  endfacet
  facet normal -1 -0 0
    outer loop
      vertex 86 28 1
      vertex 86 20 -7
      vertex 86 20 1
    endloop
  endfacet
  facet normal 0.894427 0 -0.447214
    outer loop
      vertex 89.4 20 -5
      vertex 88.4 28 -7
      vertex 89.4 28 -5
    endloop
  endfacet
  facet normal 0.894427 0 -0.447214
    outer loop
      vertex 88.4 28 -7
      vertex 89.4 20 -5
      vertex 88.4 20 -7
    endloop
  endfacet
  facet normal 1 -0 0
    outer loop
      vertex 89.4 20 -4.8
      vertex 89.4 28 -5
      vertex 89.4 28 -4.8
    endloop
  endfacet
  facet normal 1 0 0
    outer loop
      vertex 89.4 28 -5
      vertex 89.4 20 -4.8
      vertex 89.4 20 -5
    endloop
  endfacet
  facet normal -0.196116 0 0.980581
    outer loop
      vertex 88.2 28 -5
      vertex 89.2 20 -4.8
      vertex 89.2 28 -4.8
    endloop
  endfacet
  facet normal -0.196116 0 0.980581
    outer loop
      vertex 89.2 20 -4.8
      vertex 88.2 28 -5
      vertex 88.2 20 -5
    endloop
  endfacet
  facet normal -0 0 1
    outer loop
      vertex 89.2 28 -4.8
      vertex 89.4 20 -4.8
      vertex 89.4 28 -4.8
    endloop
  endfacet
  facet normal 0 0 1
    outer loop
      vertex 89.4 20 -4.8
      vertex 89.2 28 -4.8
      vertex 89.2 20 -4.8
    endloop
  endfacet
  facet normal -1 0 0
    outer loop
      vertex 51.5 2 -13
      vertex 51.5 0.200001 -11.8
      vertex 51.5 2 -11.8
    endloop
  endfacet
  facet normal -1 0 0
    outer loop
      vertex 51.5 0 -12
      vertex 51.5 2 -13
      vertex 51.5 0 -15
    endloop
  endfacet
  facet normal -1 0 0
    outer loop
      vertex 51.5 2 -13
      vertex 51.5 0 -12
      vertex 51.5 0.200001 -11.8
    endloop
  endfacet
  facet normal 0 0 -1
    outer loop
      vertex 46.5 0.200001 -11.8
      vertex 51.5 2 -11.8
      vertex 51.5 0.200001 -11.8
    endloop
  endfacet
  facet normal -0 0 -1
    outer loop
      vertex 51.5 2 -11.8
      vertex 46.5 0.200001 -11.8
      vertex 46.5 2 -11.8
    endloop
  endfacet
  facet normal 1 -0 0
    outer loop
      vertex 46.5 0.200001 -11.8
      vertex 46.5 2 -13
      vertex 46.5 2 -11.8
    endloop
  endfacet
  facet normal 1 -0 0
    outer loop
      vertex 46.5 0 -12
      vertex 46.5 2 -13
      vertex 46.5 0.200001 -11.8
    endloop
  endfacet
  facet normal 1 0 0
    outer loop
      vertex 46.5 2 -13
      vertex 46.5 0 -12
      vertex 46.5 0 -15
    endloop
  endfacet
  facet normal 0 -1 0
    outer loop
      vertex 46.5 2 -13
      vertex 51.5 2 -11.8
      vertex 46.5 2 -11.8
    endloop
  endfacet
  facet normal 0 -1 -0
    outer loop
      vertex 51.5 2 -11.8
      vertex 46.5 2 -13
      vertex 51.5 2 -13
    endloop
  endfacet
endsolid OpenSCAD_Model
